<?xml version="1.0" standalone="no"?>
<!DOCTYPE svg PUBLIC "-//W3C//DTD SVG 1.1//EN" "http://www.w3.org/Graphics/SVG/1.1/DTD/svg11.dtd" >
<svg>
<metadata>
Created by FontForge 20090622 at Thu Oct 29 16:59:44 2015
 By deploy user
The use of this font is permitted only within the boundaries of the license agreement between Virginmedia and Lineto GmbH. Its use is reserved for authorised users appointed by Virginmedia. Any use is limited to work carried out on behalf of and for the purposes of Virginmedia. This font must not be distributed to any third parties within Virginmedia, the Virgin group of companies, or any external companies. If in doubt, please contact service@lineto.com.
</metadata>
<defs>
<font id="VMCircularWhisper-Light" horiz-adv-x="560" >
  <font-face 
    font-family="VM Circular Whisper Light"
    font-weight="300"
    font-stretch="normal"
    units-per-em="1000"
    panose-1="2 11 4 4 2 1 1 2 1 2"
    ascent="809"
    descent="-191"
    x-height="477"
    cap-height="709"
    bbox="-37 -239 1485 1014"
    underline-thickness="80"
    underline-position="-115"
    unicode-range="U+000D-U+FEFF"
  />
<missing-glyph horiz-adv-x="540" 
d="M84 0v709h372v-709h-372zM135 51h270v607h-270v-607z" />
    <glyph glyph-name="f_f" unicode="ff" horiz-adv-x="628" 
d="M565 674q-40 0 -65.5 -24t-25.5 -77v-96h133v-55h-133v-422h-61v422h-238v-422h-62v422h-97v55h97v99q0 74 39.5 114t103.5 40q32 0 54 -10v-54q-18 8 -45 8q-40 0 -65 -24t-25 -77v-96h238v99q0 74 39.5 114t103.5 40q30 0 54 -10v-54q-18 8 -45 8z" />
    <glyph glyph-name="f_f_i" unicode="ffi" horiz-adv-x="858" 
d="M113 477v99q0 74 39.5 114t103.5 40q32 0 54 -10v-54q-18 8 -45 8q-40 0 -65 -24t-25 -77v-96h238v99q0 74 39.5 114t103.5 40q30 0 54 -10v-54q-18 8 -45 8q-40 0 -65.5 -24t-25.5 -77v-96h300v-477h-59v422h-241v-422h-61v422h-238v-422h-62v422h-97v55h97zM695 675
q0 21 14.5 35.5t34.5 14.5q21 0 35.5 -14.5t14.5 -35.5q0 -20 -14.5 -34.5t-35.5 -14.5q-20 0 -34.5 14.5t-14.5 34.5z" />
    <glyph glyph-name="f_f_l" unicode="ffl" horiz-adv-x="858" 
d="M113 477v99q0 74 39.5 114t103.5 40q32 0 54 -10v-54q-18 8 -45 8q-40 0 -65 -24t-25 -77v-96h238v99q0 74 39.5 114t103.5 40q30 0 54 -10v-54q-18 8 -45 8q-40 0 -65.5 -24t-25.5 -77v-96h241v245h59v-722h-59v422h-241v-422h-61v422h-238v-422h-62v422h-97v55h97z" />
    <glyph glyph-name="f_i" unicode="fi" horiz-adv-x="559" 
d="M256 730q32 0 54 -10v-54q-18 8 -45 8q-40 0 -65 -24t-25 -77v-96h300v-477h-60v422h-240v-422h-62v422h-97v55h97v99q0 74 39.5 114t103.5 40zM396 675q0 21 14 35.5t35 14.5q20 0 35 -14.5t15 -35.5q0 -20 -15 -34.5t-35 -14.5q-21 0 -35 14.5t-14 34.5z" />
    <glyph glyph-name="f_l" unicode="fl" horiz-adv-x="558" 
d="M265 674q-40 0 -65 -24t-25 -77v-96h239v245h60v-722h-60v422h-239v-422h-62v422h-97v55h97v99q0 74 39.5 114t103.5 40q32 0 54 -10v-54q-18 8 -45 8z" />
    <glyph glyph-name=".notdef" horiz-adv-x="540" 
d="M84 0v709h372v-709h-372zM135 51h270v607h-270v-607z" />
    <glyph glyph-name=".null" horiz-adv-x="0" 
 />
    <glyph glyph-name=".null" horiz-adv-x="0" 
 />
    <glyph glyph-name="uni000D" unicode="&#xd;" horiz-adv-x="253" 
 />
    <glyph glyph-name="space" unicode=" " horiz-adv-x="253" 
 />
    <glyph glyph-name="exclam" unicode="!" horiz-adv-x="292" 
d="M186 709l-17 -520h-41l-18 520h76zM96 45q0 21 14.5 35.5t35.5 14.5q20 0 35 -14.5t15 -35.5q0 -20 -15 -34.5t-35 -14.5q-21 0 -35.5 14.5t-14.5 34.5z" />
    <glyph glyph-name="quotedbl" unicode="&#x22;" horiz-adv-x="293" 
d="M37 612q0 20 12.5 32.5t30.5 12.5q19 0 31 -12.5t12 -32.5q0 -14 -4 -32l-28 -152h-22l-28 151q-4 20 -4 33zM170 612q0 20 12.5 32.5t30.5 12.5q19 0 31 -12.5t12 -32.5q0 -14 -4 -32l-28 -152h-22l-28 151q-4 20 -4 33z" />
    <glyph glyph-name="numbersign" unicode="#" horiz-adv-x="744" 
d="M102 418v50h157l38 180h55l-39 -180h172l38 180h55l-39 -180h152v-50h-163l-39 -186h153v-50h-164l-39 -182h-55l39 182h-171l-39 -182h-55l39 182h-144v50h155l40 186h-146zM302 418l-39 -186h171l40 186h-172z" />
    <glyph glyph-name="dollar" unicode="$" horiz-adv-x="574" 
d="M318 -114h-50v102q-91 7 -147 63t-65 131l59 19q5 -61 46 -105.5t107 -52.5v260l-37 9q-68 15 -108.5 58t-40.5 110q0 71 53.5 121.5t132.5 58.5v103h50v-104q81 -6 127.5 -50.5t61.5 -108.5l-56 -20q-10 49 -43.5 83t-89.5 41v-251l32 -8q76 -17 119.5 -62.5
t43.5 -113.5q0 -72 -53.5 -123t-141.5 -58v-102zM452 166q0 44 -29.5 75t-82.5 45l-22 5v-249q63 6 98.5 40t35.5 84zM144 484q0 -88 101 -113l23 -6v241q-53 -7 -88.5 -40.5t-35.5 -81.5z" />
    <glyph glyph-name="percent" unicode="%" horiz-adv-x="811" 
d="M114 501q0 -44 28.5 -73.5t70.5 -29.5t70.5 29.5t28.5 73.5t-28.5 73.5t-70.5 29.5t-70.5 -29.5t-28.5 -73.5zM60 501q0 64 44.5 108.5t108.5 44.5q63 0 108 -44.5t45 -108.5t-45 -108.5t-108 -44.5q-64 0 -108.5 44.5t-44.5 108.5zM510 146q0 -44 28.5 -73.5t70.5 -29.5
t70.5 29.5t28.5 73.5t-28.5 73.5t-70.5 29.5t-70.5 -29.5t-28.5 -73.5zM456 146q0 64 44.5 108.5t108.5 44.5q63 0 108 -44.5t45 -108.5t-45 -108.5t-108 -44.5q-64 0 -108.5 44.5t-44.5 108.5zM201 0h-60l473 648h59z" />
    <glyph glyph-name="ampersand" unicode="&#x26;" horiz-adv-x="670" 
d="M580 -1l-105 109q-50 -60 -99 -90t-107 -30q-89 0 -141 52t-52 124q0 61 32 106t92 89l19 15l-31 31q-75 82 -75 150q0 72 50.5 119.5t120.5 47.5q75 0 123.5 -45.5t48.5 -116.5q0 -80 -97 -153l-52 -39l167 -173l146 174v-84l-107 -130l151 -156h-84zM271 46
q76 0 162 101l2 3l-177 182l-35 -25q-83 -63 -83 -138q0 -51 35.5 -87t95.5 -36zM174 559q0 -52 57 -113l36 -37l60 44q67 47 67 109q0 44 -31 75t-78 31t-79 -31.5t-32 -77.5z" />
    <glyph glyph-name="quotesingle" unicode="'" horiz-adv-x="160" 
d="M37 612q0 20 12.5 32.5t30.5 12.5q19 0 31 -12.5t12 -32.5q0 -14 -4 -32l-28 -152h-22l-28 151q-4 20 -4 33z" />
    <glyph glyph-name="parenleft" unicode="(" horiz-adv-x="283" 
d="M61 317q0 275 185 472l36 -32q-167 -188 -167 -440t167 -440l-36 -32q-185 192 -185 472z" />
    <glyph glyph-name="parenright" unicode=")" horiz-adv-x="286" 
d="M224 317q0 -281 -184 -472l-37 32q168 188 168 440t-168 440l37 32q184 -196 184 -472z" />
    <glyph glyph-name="asterisk" unicode="*" horiz-adv-x="434" 
d="M242 709v-147l139 48l15 -46l-140 -48l91 -123l-39 -30l-92 126l-88 -125l-39 30l88 122l-139 47l16 47l137 -49v148h51z" />
    <glyph glyph-name="plus" unicode="+" horiz-adv-x="564" 
d="M61 313h194v207h53v-207h195v-51h-195v-209h-53v209h-194v51z" />
    <glyph glyph-name="comma" unicode="," horiz-adv-x="264" 
d="M76 48q0 21 15.5 35.5t38.5 14.5q25 0 42 -18.5t17 -52.5q0 -70 -35 -116t-84 -58v37q33 10 53.5 42.5t21.5 68.5q-5 -5 -19 -5q-21 0 -35.5 14.5t-14.5 37.5z" />
    <glyph glyph-name="hyphen" unicode="-" horiz-adv-x="365" 
d="M314 260h-263v54h263v-54z" />
    <glyph glyph-name="period" unicode="." horiz-adv-x="258" 
d="M76 48q0 22 15 37.5t37 15.5t37.5 -15.5t15.5 -37.5t-15.5 -37t-37.5 -15t-37 15t-15 37z" />
    <glyph glyph-name="slash" unicode="/" horiz-adv-x="421" 
d="M411 709l-342 -709h-60l343 709h59z" />
    <glyph glyph-name="zero" unicode="0" horiz-adv-x="594" 
d="M113 324q0 -161 65 -230q48 -51 119 -51t119 51q65 69 65 230t-65 230q-48 51 -119 51t-119 -51q-65 -69 -65 -230zM51 324q0 157 63 244q66 93 183 93t183 -93q63 -87 63 -244t-63 -244q-66 -93 -183 -93t-183 93q-63 87 -63 244z" />
    <glyph glyph-name="one" unicode="1" horiz-adv-x="347" 
d="M253 0h-61v543q-23 -31 -69 -54t-92 -24v48q65 5 109 42.5t56 92.5h57v-648z" />
    <glyph glyph-name="two" unicode="2" horiz-adv-x="519" 
d="M113 418l-62 8q-3 13 -3 31q0 86 59 145t156 59q93 0 150 -55t57 -136q0 -121 -121 -198l-140 -89q-80 -54 -88 -125h357v-58h-433q2 147 135 232l126 81q101 64 101 156q0 57 -39.5 97t-106.5 40q-68 0 -109.5 -43t-41.5 -113q0 -16 3 -32z" />
    <glyph glyph-name="three" unicode="3" horiz-adv-x="536" 
d="M215 324l-30 52l215 215h-350v57h431v-56l-210 -210q14 2 24 2q83 -1 141.5 -51t58.5 -140q0 -87 -62.5 -146.5t-165.5 -59.5q-99 0 -164 57t-70 143l61 14q2 -72 52.5 -115.5t120.5 -43.5q72 0 118.5 42t46.5 107q0 67 -44.5 105t-111.5 38q-28 0 -61 -10z" />
    <glyph glyph-name="four" unicode="4" horiz-adv-x="557" 
d="M42 158v72l297 418h88v-432h114v-58h-114v-158h-61v158h-324zM366 216v371l-265 -371h265z" />
    <glyph glyph-name="five" unicode="5" horiz-adv-x="540" 
d="M42 180l60 18q5 -67 52.5 -111.5t116.5 -44.5q71 0 119 45.5t48 113.5q0 72 -47.5 116.5t-118.5 44.5q-85 0 -144 -65q-48 20 -60 24l82 327h326v-57h-283l-58 -233q55 59 148 59q95 0 156.5 -59.5t61.5 -154.5q0 -91 -64.5 -153.5t-165.5 -62.5q-94 0 -158.5 56.5
t-70.5 136.5z" />
    <glyph glyph-name="six" unicode="6" horiz-adv-x="561" 
d="M509 625l-19 -52q-54 32 -124 32q-120 0 -185.5 -86.5t-67.5 -214.5v-4q15 52 68 89t125 37q94 0 156.5 -61t62.5 -159q0 -97 -67.5 -158t-162.5 -61q-107 0 -175.5 80t-68.5 223q0 177 91 274t227 97q87 0 140 -36zM130 207q0 -72 49 -118.5t117 -46.5q69 0 117.5 46
t48.5 119t-48.5 118.5t-117.5 45.5t-117.5 -45.5t-48.5 -118.5z" />
    <glyph glyph-name="seven" unicode="7" horiz-adv-x="482" 
d="M474 648v-61q-52 -48 -94 -98.5t-85 -121.5t-73 -165t-41 -202h-65q34 345 289 591h-396v57h465z" />
    <glyph glyph-name="eight" unicode="8" horiz-adv-x="549" 
d="M274 359q66 0 107.5 35t41.5 90q0 54 -40.5 89t-108.5 35t-108.5 -35t-40.5 -89q0 -55 41.5 -90t107.5 -35zM274 42q75 0 119 37.5t44 93.5q0 58 -43.5 95.5t-119.5 37.5t-119.5 -38t-43.5 -95q0 -56 44 -93.5t119 -37.5zM274 -13q-103 0 -164 51.5t-61 129.5
q0 60 37.5 104t95.5 60q-51 16 -85 58.5t-34 96.5q0 75 59.5 124.5t151.5 49.5t151.5 -49.5t59.5 -124.5q0 -54 -34 -97t-85 -58q58 -16 96 -60t38 -104q0 -78 -61 -129.5t-165 -51.5z" />
    <glyph glyph-name="nine" unicode="9" horiz-adv-x="564" 
d="M55 28l21 53q57 -38 132 -38q117 0 179 75.5t63 210.5v19q-18 -53 -69 -86.5t-120 -33.5q-88 0 -152.5 59t-64.5 156q0 94 66.5 156t159.5 62q108 0 175.5 -80t67.5 -219q0 -172 -74.5 -273.5t-230.5 -101.5q-39 0 -82.5 11.5t-70.5 29.5zM435 444q0 71 -49 116t-116 45
t-115.5 -45t-48.5 -116q0 -72 48 -117t116 -45t116.5 45t48.5 117z" />
    <glyph glyph-name="colon" unicode=":" horiz-adv-x="262" 
d="M78 428q0 22 15 37.5t37 15.5t37.5 -15.5t15.5 -37.5t-15.5 -37t-37.5 -15t-37 15t-15 37zM79 48q0 22 15 37.5t37 15.5t37.5 -15.5t15.5 -37.5t-15.5 -37t-37.5 -15t-37 15t-15 37z" />
    <glyph glyph-name="semicolon" unicode=";" horiz-adv-x="265" 
d="M78 47q0 21 15 35t38 14q24 0 41 -18t17 -51q0 -70 -34.5 -115t-82.5 -56v36q32 10 52 42t21 67q-5 -5 -18 -5q-21 0 -35 14.5t-14 36.5zM75 428q0 22 15 37.5t37 15.5t37.5 -15.5t15.5 -37.5t-15.5 -37t-37.5 -15t-37 15t-15 37z" />
    <glyph glyph-name="less" unicode="&#x3c;" horiz-adv-x="529" 
d="M63 260v55l402 207v-61l-342 -173l342 -175v-60z" />
    <glyph glyph-name="equal" unicode="=" horiz-adv-x="589" 
d="M518 359h-447v51h447v-51zM518 165h-447v52h447v-52z" />
    <glyph glyph-name="greater" unicode="&#x3e;" horiz-adv-x="485" 
d="M443 315v-55l-402 -207v60l344 175l-344 173v61z" />
    <glyph glyph-name="question" unicode="?" horiz-adv-x="495" 
d="M264 189h-55q-3 10 -3 38q0 94 72 147l44 34q69 53 69 123q0 56 -37.5 95.5t-103.5 39.5q-71 0 -109.5 -43t-38.5 -104q0 -25 8 -54l-61 9q-8 23 -8 51q0 78 54.5 137.5t154.5 59.5q93 0 148.5 -56.5t55.5 -133.5q0 -97 -100 -172l-45 -33q-47 -37 -47 -106q0 -14 2 -32z
M187 45q0 21 14.5 35.5t34.5 14.5q21 0 36 -14.5t15 -35.5q0 -20 -15 -34.5t-36 -14.5q-20 0 -34.5 14.5t-14.5 34.5z" />
    <glyph glyph-name="at" unicode="@" horiz-adv-x="825" 
d="M599 145q-41 0 -66 21.5t-28 56.5q-20 -37 -53.5 -58t-71.5 -21q-63 0 -104.5 46.5t-41.5 120.5q0 91 55.5 158t136.5 67q40 0 71.5 -21.5t39.5 -59.5l12 69h51l-50 -250q-3 -15 -3 -28q0 -56 55 -56q50 0 90 61t40 146q0 114 -82 196t-219 82q-139 0 -233 -97t-94 -245
q0 -143 91.5 -236.5t243.5 -93.5q136 0 235 91l27 -34q-47 -48 -118 -76t-144 -28q-172 0 -280 106t-108 272q0 165 111 276.5t268 111.5q155 0 254 -96t99 -228q0 -108 -56 -180.5t-128 -72.5zM519 383q0 48 -25 76.5t-71 28.5q-56 0 -96 -50.5t-40 -119.5q0 -54 25.5 -90
t73.5 -36q62 0 96.5 56t36.5 135z" />
    <glyph glyph-name="A" unicode="A" horiz-adv-x="689" 
d="M601 0l-88 219h-339l-87 -219h-68l287 709h76l287 -709h-68zM343 646l-146 -369h293z" />
    <glyph glyph-name="B" unicode="B" horiz-adv-x="585" 
d="M94 709h204q100 0 157.5 -52t57.5 -137q0 -56 -30 -97.5t-78 -58.5q58 -14 94.5 -62.5t36.5 -110.5q0 -84 -60.5 -137.5t-157.5 -53.5h-224v709zM157 386h157q59 0 97 36.5t38 93.5q0 63 -41.5 100t-115.5 37h-135v-267zM157 56h155q73 0 116.5 37.5t43.5 101.5
q0 61 -41 98.5t-106 37.5h-168v-275z" />
    <glyph glyph-name="C" unicode="C" horiz-adv-x="742" 
d="M393 -13q-67 0 -128.5 24.5t-110.5 69.5t-78.5 116t-29.5 157q0 114 51 199.5t129 127t167 41.5q118 0 199 -61.5t106 -164.5l-57 -20q-21 88 -87 138t-161 50q-116 0 -199.5 -82.5t-83.5 -227.5q0 -144 83.5 -226.5t199.5 -82.5q97 0 164 52.5t89 138.5l55 -20
q-26 -102 -108.5 -165.5t-199.5 -63.5z" />
    <glyph glyph-name="D" unicode="D" horiz-adv-x="697" 
d="M157 56h154q117 0 196.5 77.5t79.5 219.5q0 143 -78.5 221.5t-195.5 78.5h-156v-597zM313 0h-219v709h221q143 0 240 -94.5t97 -261.5q0 -166 -98 -259.5t-241 -93.5z" />
    <glyph glyph-name="E" unicode="E" horiz-adv-x="569" 
d="M512 0h-418v709h418v-58h-355v-267h324v-58h-324v-268h355v-58z" />
    <glyph glyph-name="F" unicode="F" 
d="M157 0h-63v709h419v-58h-356v-275h325v-58h-325v-318z" />
    <glyph glyph-name="G" unicode="G" horiz-adv-x="762" 
d="M693 0h-50l-6 137q-26 -58 -90 -104t-167 -46q-63 0 -122.5 24.5t-107 69.5t-76 116.5t-28.5 157.5q0 114 50 199.5t127 126.5t166 41q112 0 194.5 -58t113.5 -155l-57 -24q-27 83 -93 131t-158 48q-115 0 -197 -82t-82 -227q0 -74 23.5 -134.5t62.5 -98t87 -58t99 -20.5
q66 0 117 23t78.5 59.5t41 74t14.5 74.5h-262v58h322v-333z" />
    <glyph glyph-name="H" unicode="H" horiz-adv-x="720" 
d="M626 0h-63v331h-406v-331h-63v709h63v-319h406v319h63v-709z" />
    <glyph glyph-name="I" unicode="I" horiz-adv-x="252" 
d="M158 0h-64v709h64v-709z" />
    <glyph glyph-name="J" unicode="J" horiz-adv-x="521" 
d="M27 208v45l63 15v-57q0 -79 38 -122.5t106 -43.5q67 0 103.5 43.5t36.5 119.5v501h63v-500q0 -99 -54.5 -160.5t-148.5 -61.5q-96 0 -151.5 59.5t-55.5 161.5z" />
    <glyph glyph-name="K" unicode="K" horiz-adv-x="645" 
d="M540 0l-261 349l-122 -130v-219h-63v709h63v-406l376 406h83l-295 -315l299 -394h-80z" />
    <glyph glyph-name="L" unicode="L" horiz-adv-x="550" 
d="M515 0h-421v709h63v-650h358v-59z" />
    <glyph glyph-name="M" unicode="M" horiz-adv-x="929" 
d="M835 0h-63v614l-278 -614h-60l-277 614v-614h-63v709h89l282 -626l282 626h88v-709z" />
    <glyph glyph-name="N" unicode="N" horiz-adv-x="747" 
d="M653 0h-67l-429 630v-630h-63v709h87l409 -605v605h63v-709z" />
    <glyph glyph-name="O" unicode="O" horiz-adv-x="784" 
d="M110 354q0 -144 83 -226.5t199 -82.5t199.5 82.5t83.5 226.5q0 145 -83.5 227.5t-199.5 82.5t-199 -82.5t-83 -227.5zM46 354q0 114 51 199.5t128.5 127t166.5 41.5t167 -41.5t129 -127t51 -199.5q0 -86 -29.5 -157t-79 -116t-111 -69.5t-127.5 -24.5q-89 0 -166.5 41
t-128.5 126.5t-51 199.5z" />
    <glyph glyph-name="P" unicode="P" horiz-adv-x="574" 
d="M157 357h160q75 0 119 40.5t44 106.5t-44 107t-119 41h-160v-295zM327 300h-170v-300h-63v709h233q96 0 156.5 -58t60.5 -147t-60 -146.5t-157 -57.5z" />
    <glyph glyph-name="Q" unicode="Q" horiz-adv-x="784" 
d="M686 -53l-94 103q-87 -63 -200 -63q-89 0 -166.5 41t-128.5 126.5t-51 199.5t51 199.5t128.5 127t166.5 41.5t167 -41.5t129 -127t51 -199.5q0 -162 -103 -267l92 -102zM392 45q89 0 160 50l-141 155l44 38l140 -156q80 87 80 222q0 145 -83.5 227.5t-199.5 82.5
t-199 -82.5t-83 -227.5q0 -144 83 -226.5t199 -82.5z" />
    <glyph glyph-name="R" unicode="R" horiz-adv-x="605" 
d="M477 0l-171 306h-148v-306h-64v709h248q94 0 152.5 -57.5t58.5 -144.5q0 -78 -48.5 -132t-129.5 -64l176 -311h-74zM158 364h173q71 0 114 39.5t43 103.5q0 65 -43 105t-114 40h-173v-288z" />
    <glyph glyph-name="S" unicode="S" horiz-adv-x="575" 
d="M522 548l-56 -20q-12 60 -55.5 99t-117.5 39q-66 0 -114 -39.5t-48 -100.5q0 -48 29 -80t83 -45l108 -25q84 -20 131 -68.5t47 -121.5q0 -84 -65 -141.5t-170 -57.5q-111 0 -177.5 61.5t-76.5 149.5l59 19q7 -73 59 -123t136 -50q80 0 126 38.5t46 98.5q0 49 -33 84
t-94 49l-107 25q-75 17 -119.5 63.5t-44.5 119.5q0 82 67 141t156 59q101 0 157.5 -49t73.5 -125z" />
    <glyph glyph-name="T" unicode="T" horiz-adv-x="610" 
d="M588 651h-251v-651h-64v651h-250v58h565v-58z" />
    <glyph glyph-name="U" unicode="U" horiz-adv-x="654" 
d="M327 -13q-111 0 -177 65t-66 184v473h63v-470q0 -94 46 -144t134 -50t134 50t46 144v470h63v-473q0 -119 -66 -184t-177 -65z" />
    <glyph glyph-name="V" unicode="V" horiz-adv-x="643" 
d="M321 76l236 633h67l-273 -709h-63l-269 709h68z" />
    <glyph glyph-name="W" unicode="W" horiz-adv-x="984" 
d="M724 89l174 620h65l-204 -709h-69l-198 626l-198 -626h-66l-207 709h66l176 -616l195 616h69z" />
    <glyph glyph-name="X" unicode="X" horiz-adv-x="598" 
d="M575 709l-239 -353l238 -356h-75l-200 305l-202 -305h-74l240 356l-238 353h76l199 -304l200 304h75z" />
    <glyph glyph-name="Y" unicode="Y" horiz-adv-x="597" 
d="M268 303l-249 406h76l206 -347l205 347h72l-248 -406v-303h-62v303z" />
    <glyph glyph-name="Z" unicode="Z" horiz-adv-x="620" 
d="M589 0h-543v65l466 586h-460v58h534v-63l-467 -587h470v-59z" />
    <glyph glyph-name="bracketleft" unicode="[" horiz-adv-x="268" 
d="M250 -141h-154v918h154v-49h-101v-820h101v-49z" />
    <glyph glyph-name="backslash" unicode="\" horiz-adv-x="421" 
d="M351 0l-342 709h61l341 -709h-60z" />
    <glyph glyph-name="bracketright" unicode="]" horiz-adv-x="268" 
d="M172 -141h-154v49h101v820h-101v49h154v-918z" />
    <glyph glyph-name="asciicircum" unicode="^" horiz-adv-x="503" 
d="M471 355h-63l-156 293l-158 -293h-63l194 354h53z" />
    <glyph glyph-name="underscore" unicode="_" horiz-adv-x="554" 
d="M533 -51h-512v51h512v-51z" />
    <glyph glyph-name="grave" unicode="`" horiz-adv-x="248" 
d="M159 537l-118 139h77l89 -139h-48z" />
    <glyph glyph-name="a.ss02" unicode="a" horiz-adv-x="570" 
d="M105 240q0 -86 45 -142.5t119 -56.5q73 0 117.5 56.5t44.5 142.5q0 85 -44.5 140.5t-116.5 55.5q-74 0 -119.5 -55t-45.5 -141zM431 75v19q-19 -43 -61 -74.5t-106 -31.5q-99 0 -159.5 71.5t-60.5 180.5q0 107 61 178t159 71q68 0 108.5 -31t57.5 -71v90h60v-386
q0 -66 5 -91h-59q-5 30 -5 75z" />
    <glyph glyph-name="b" unicode="b" horiz-adv-x="575" 
d="M143 0h-59v722h59v-337q19 42 63 73t110 31q100 0 158 -70t58 -179q0 -110 -59.5 -181t-158.5 -71q-64 0 -107 30.5t-64 74.5v-93zM471 240q0 87 -45.5 141.5t-119.5 54.5q-73 0 -118.5 -55t-45.5 -141q0 -87 45.5 -143t118.5 -56t119 56.5t46 142.5z" />
    <glyph glyph-name="c" unicode="c" horiz-adv-x="522" 
d="M278 435q-74 0 -123.5 -53.5t-49.5 -143.5q0 -89 49.5 -142.5t123.5 -53.5q63 0 102 34.5t53 81.5l53 -22q-19 -62 -73.5 -105.5t-134.5 -43.5q-101 0 -167.5 71t-66.5 180q0 110 66.5 181t167.5 71q81 0 133.5 -42.5t70.5 -107.5l-53 -22q-14 49 -51 83t-100 34z" />
    <glyph glyph-name="d" unicode="d" horiz-adv-x="574" 
d="M105 239q0 -86 45 -142t119 -56q73 0 117.5 56.5t44.5 142.5q0 85 -44.5 140.5t-116.5 55.5q-74 0 -119.5 -55t-45.5 -142zM431 75v19q-19 -43 -61 -74.5t-106 -31.5q-99 0 -159.5 71.5t-60.5 179.5q0 107 61.5 178.5t158.5 71.5q68 0 108.5 -31t57.5 -71v335h60v-631
q0 -66 5 -91h-59q-5 30 -5 75z" />
    <glyph glyph-name="e" unicode="e" horiz-adv-x="531" 
d="M108 277h317q-2 69 -44 114t-115 45q-65 0 -109 -46t-49 -113zM432 154l53 -19q-22 -65 -76 -106.5t-133 -41.5q-98 0 -165 68.5t-67 184.5q0 110 64.5 180t156.5 70q104 0 163 -66.5t60 -174.5q0 -6 -2 -22h-380v-4q1 -81 49.5 -132t120.5 -51q61 0 100.5 31.5
t55.5 82.5z" />
    <glyph glyph-name="f" unicode="f" horiz-adv-x="328" 
d="M307 422h-132v-422h-62v422h-97v55h97v99q0 74 39.5 114t103.5 40q32 0 54 -10v-54q-18 8 -45 8q-40 0 -65 -24t-25 -77v-96h132v-55z" />
    <glyph glyph-name="g" unicode="g" horiz-adv-x="555" 
d="M46 -27l57 14q6 -58 48.5 -97.5t104.5 -39.5q164 0 164 184v88q-17 -41 -58.5 -68.5t-102.5 -27.5q-93 0 -153 65.5t-60 165.5q0 99 59.5 164.5t153.5 65.5q63 0 104 -27t58 -68v85h59v-442q0 -45 -11 -84.5t-35 -75.5t-70 -57t-109 -21q-85 0 -142.5 49.5t-66.5 126.5z
M267 78q70 0 113 50.5t43 128.5q0 77 -43 127.5t-113 50.5q-71 0 -115.5 -50t-44.5 -128q0 -79 44.5 -129t115.5 -50z" />
    <glyph glyph-name="h" unicode="h" horiz-adv-x="540" 
d="M144 287v-287h-60v722h60v-320q20 38 60 62.5t93 24.5q81 0 125 -50.5t44 -127.5v-311h-60v301q0 60 -32.5 97t-96.5 37q-59 0 -95.5 -43.5t-37.5 -104.5z" />
    <glyph glyph-name="i" unicode="i" horiz-adv-x="227" 
d="M143 0h-59v477h59v-477zM64 674q0 21 14.5 36t34.5 15q21 0 35.5 -15t14.5 -36q0 -20 -14.5 -34t-35.5 -14q-20 0 -34.5 14t-14.5 34z" />
    <glyph glyph-name="j" unicode="j" horiz-adv-x="228" 
d="M84 -62v539h60v-541q0 -65 -34 -101.5t-92 -36.5q-35 0 -53 9v51q16 -6 41 -6q78 0 78 86zM64 675q0 21 14.5 35.5t34.5 14.5q21 0 35.5 -14.5t14.5 -35.5q0 -20 -14.5 -34.5t-35.5 -14.5q-20 0 -34.5 14.5t-14.5 34.5z" />
    <glyph glyph-name="k" unicode="k" horiz-adv-x="500" 
d="M476 477l-203 -203l207 -274h-75l-174 233l-88 -87v-146h-59v722h59v-497l250 252h83z" />
    <glyph glyph-name="l" unicode="l" horiz-adv-x="228" 
d="M144 0h-60v722h60v-722z" />
    <glyph glyph-name="m" unicode="m" horiz-adv-x="846" 
d="M143 0h-59v477h58v-79q17 39 58 65t94 26q56 0 96 -29t54 -79q22 52 64.5 80t99.5 28q72 0 118.5 -47t46.5 -127v-315h-60v308q0 56 -32 92t-90 36t-95.5 -42t-37.5 -102v-292h-60v308q0 56 -31.5 92t-90.5 36q-58 0 -95.5 -42t-37.5 -102v-292z" />
    <glyph glyph-name="n" unicode="n" horiz-adv-x="540" 
d="M144 285v-285h-60v477h58v-81q20 42 61 67.5t94 25.5q81 0 125 -50.5t44 -127.5v-311h-60v301q0 60 -32.5 97t-96.5 37q-59 0 -96 -44t-37 -106z" />
    <glyph glyph-name="o" unicode="o" horiz-adv-x="557" 
d="M278 41q73 0 123.5 53.5t50.5 143.5q0 91 -50 144t-124 53q-73 0 -123 -53.5t-50 -143.5t50 -143.5t123 -53.5zM278 490q100 0 167.5 -70.5t67.5 -181.5q0 -110 -67.5 -180.5t-167.5 -70.5q-99 0 -166.5 70.5t-67.5 180.5q0 111 66.5 181.5t167.5 70.5z" />
    <glyph glyph-name="p" unicode="p" horiz-adv-x="575" 
d="M143 -190h-59v667h59v-95q20 43 64 74.5t109 31.5q99 0 157.5 -70.5t58.5 -178.5q0 -109 -59.5 -180t-158.5 -71q-63 0 -106.5 30t-64.5 72v-280zM471 239q0 85 -45.5 140.5t-119.5 55.5q-73 0 -118.5 -55.5t-45.5 -140.5q0 -86 45.5 -142t118.5 -56q74 0 119.5 56.5
t45.5 141.5z" />
    <glyph glyph-name="q" unicode="q" horiz-adv-x="566" 
d="M491 -190h-60v281q-20 -43 -62.5 -73t-105.5 -30q-98 0 -158.5 71.5t-60.5 179.5t59.5 179t158.5 71q65 0 108 -32t62 -75v95h59v-667zM105 239q0 -85 45.5 -141.5t118.5 -56.5t118 56.5t45 141.5q0 86 -45 141t-118 55q-74 0 -119 -55t-45 -141z" />
    <glyph glyph-name="r" unicode="r" horiz-adv-x="352" 
d="M327 478v-63q-18 5 -42 5q-63 0 -102 -41t-39 -120v-259h-60v477h58v-89q43 95 148 95q24 0 37 -5z" />
    <glyph glyph-name="s" unicode="s" horiz-adv-x="437" 
d="M39 127l55 19q7 -48 41 -77.5t90 -29.5q47 0 77 24t30 61q0 63 -81 81l-80 18q-53 13 -84 45t-31 82q0 58 47.5 99t113.5 41q76 0 117 -37.5t53 -89.5l-53 -20q-8 40 -36.5 67.5t-80.5 27.5q-42 0 -72 -23.5t-30 -60.5q0 -59 73 -76l79 -17q60 -14 92 -48t32 -85
q0 -57 -45.5 -99t-121.5 -42q-81 0 -129 41.5t-56 98.5z" />
    <glyph glyph-name="t" unicode="t" horiz-adv-x="342" 
d="M175 628v-151h124v-55h-124v-287q0 -86 81 -86q27 0 43 7v-52q-18 -9 -59 -9q-59 0 -92 35t-33 99v293h-101v55h36q70 0 70 70v81h55z" />
    <glyph glyph-name="u" unicode="u" horiz-adv-x="543" 
d="M404 74q-18 -37 -57.5 -62t-92.5 -25q-86 0 -132 54.5t-46 135.5v300h60v-291q0 -63 31.5 -104.5t97.5 -41.5q62 0 98.5 41.5t36.5 103.5v292h60v-386q0 -49 6 -91h-57q-5 25 -5 67v7z" />
    <glyph glyph-name="v" unicode="v" horiz-adv-x="474" 
d="M457 477l-188 -477h-63l-190 477h68l154 -409l155 409h64z" />
    <glyph glyph-name="w" unicode="w" horiz-adv-x="768" 
d="M354 477h64l142 -403l127 403h63l-158 -477h-64l-144 404l-142 -404h-65l-159 477h66l128 -403z" />
    <glyph glyph-name="x" unicode="x" horiz-adv-x="463" 
d="M13 0l183 243l-175 234h72l140 -191l139 191h70l-173 -234l181 -243h-72l-147 200l-146 -200h-72z" />
    <glyph glyph-name="y" unicode="y" horiz-adv-x="488" 
d="M163 -194h-65l120 256l-205 415h68l169 -353l158 353h64z" />
    <glyph glyph-name="z" unicode="z" horiz-adv-x="447" 
d="M413 0h-379v53l301 369h-298v55h371v-53l-300 -370h305v-54z" />
    <glyph glyph-name="braceleft" unicode="{" horiz-adv-x="330" 
d="M51 289v58q47 3 76 30t29 76v160q0 158 147 158h9v-49h-9q-52 0 -73 -25.5t-21 -80.5v-175q0 -49 -28 -82t-77 -41q49 -8 77 -41t28 -82v-175q0 -55 21 -80.5t73 -25.5h9v-48h-9q-147 0 -147 158v159q0 49 -29 76t-76 30z" />
    <glyph glyph-name="bar" unicode="|" horiz-adv-x="246" 
d="M149 -141h-53v918h53v-918z" />
    <glyph glyph-name="braceright" unicode="}" horiz-adv-x="330" 
d="M278 347v-58q-47 -3 -75.5 -30t-28.5 -76v-159q0 -158 -147 -158h-9v48h9q52 0 73 25.5t21 80.5v175q0 49 28 82t77 41q-49 8 -77 41t-28 82v175q0 55 -21 80.5t-73 25.5h-9v49h9q147 0 147 -158v-160q0 -49 28.5 -76t75.5 -30z" />
    <glyph glyph-name="asciitilde" unicode="~" horiz-adv-x="557" 
d="M288 253l-47 25q-35 19 -64 19q-57 0 -99 -57l-37 30q52 80 135 80q44 0 91 -26l46 -25q38 -20 69 -20q60 0 97 55l37 -30q-52 -79 -134 -79q-40 0 -94 28z" />
    <glyph glyph-name="uni00A0" unicode="&#xa0;" horiz-adv-x="253" 
 />
    <glyph glyph-name="exclamdown" unicode="&#xa1;" horiz-adv-x="280" 
d="M161 294l17 -520h-76l17 520h42zM90 438q0 20 14.5 34.5t35.5 14.5q20 0 35 -14.5t15 -34.5q0 -21 -15 -35.5t-35 -14.5q-21 0 -35.5 14.5t-14.5 35.5z" />
    <glyph glyph-name="cent" unicode="&#xa2;" horiz-adv-x="536" 
d="M300 0h-50v95q-86 11 -140 74.5t-54 158.5q0 94 54 157.5t140 74.5v88h50v-87q69 -4 114.5 -43t61.5 -97l-51 -21q-11 41 -43 72t-82 37v-363q51 6 83.5 37t45.5 72l50 -21q-16 -55 -63 -95t-116 -45v-94zM115 328q0 -74 37.5 -121.5t97.5 -58.5v359q-60 -10 -97.5 -57.5
t-37.5 -121.5z" />
    <glyph glyph-name="sterling" unicode="&#xa3;" horiz-adv-x="587" 
d="M74 341h77l-10 25l-11.5 28.5t-8.5 25t-7 30.5t-2 29q0 79 54.5 130.5t136.5 51.5q95 0 144 -51t54 -126l-63 -12q-3 62 -38.5 98t-95.5 36q-55 0 -92.5 -35.5t-37.5 -91.5q0 -13 2 -26.5t7.5 -30t9 -25.5t12.5 -29.5t11 -26.5h195v-55h-178q7 -28 7 -49
q0 -52 -29.5 -101t-73.5 -80h234q57 0 87.5 35.5t33.5 93.5l60 -9q-3 -80 -47 -128t-120 -48h-320v60q48 28 81 75.5t33 94.5q0 29 -9 56h-96v55z" />
    <glyph glyph-name="currency" unicode="&#xa4;" horiz-adv-x="575" 
d="M78 233q0 75 47 132l-74 76l39 38l73 -77q59 44 128 44t123 -40l72 73l38 -38l-70 -72q51 -59 51 -136t-49 -134l69 -70l-38 -38l-70 71q-56 -43 -126 -43q-73 0 -131 47l-72 -75l-38 38l73 74q-45 56 -45 130zM132 233q0 -69 46 -115t113 -46t112.5 46t45.5 115
q0 68 -45.5 114t-112.5 46q-66 0 -112.5 -46t-46.5 -114z" />
    <glyph glyph-name="yen" unicode="&#xa5;" horiz-adv-x="564" 
d="M499 165h-184v-165h-62v165h-183v48h183v85h-183v47h151l-190 303h73l180 -298l177 298h72l-187 -303h153v-47h-184v-85h184v-48z" />
    <glyph glyph-name="brokenbar" unicode="&#xa6;" horiz-adv-x="246" 
d="M96 777h53v-399h-53v399zM96 259h53v-400h-53v400z" />
    <glyph glyph-name="section" unicode="&#xa7;" horiz-adv-x="549" 
d="M459 238q0 -45 -27.5 -79t-68.5 -49q100 -58 100 -151q0 -74 -55 -121t-134 -47q-86 0 -136 49t-53 131l57 12q2 -63 37.5 -102t96.5 -39q55 0 90.5 30.5t35.5 80.5q0 70 -77 111l-106 57q-63 33 -94.5 66.5t-31.5 87.5q0 45 28 80t67 48q-97 57 -97 151q0 74 55 121
t131 47q85 0 135 -50t52 -129l-58 -13q-1 64 -35.5 102.5t-94.5 38.5q-51 0 -88 -31t-37 -81q0 -69 76 -109l106 -57q63 -33 94.5 -67t31.5 -88zM322 332l-94 50q-31 -9 -54 -36t-23 -62q0 -60 79 -102l93 -50q31 9 54 36t23 61q0 61 -78 103z" />
    <glyph glyph-name="dieresis" unicode="&#xa8;" horiz-adv-x="346" 
d="M42 610q0 17 12.5 30t29.5 13q18 0 30.5 -13t12.5 -30q0 -18 -12.5 -30t-30.5 -12q-17 0 -29.5 12t-12.5 30zM219 610q0 18 12 30.5t30 12.5q17 0 29.5 -13t12.5 -30q0 -18 -12.5 -30t-29.5 -12q-18 0 -30 12t-12 30z" />
    <glyph glyph-name="copyright" unicode="&#xa9;" horiz-adv-x="830" 
d="M102 354q0 -134 90.5 -227t221.5 -93t221.5 93t90.5 227q0 135 -90.5 228t-221.5 93t-221.5 -93t-90.5 -228zM51 354q0 153 106 260.5t257 107.5t258 -108t107 -260t-107 -259.5t-258 -107.5t-257 107.5t-106 259.5zM417 514q-60 0 -99.5 -43.5t-39.5 -115.5t39.5 -116
t99.5 -44q51 0 83.5 28t44.5 67l44 -20q-17 -50 -61.5 -85t-110.5 -35q-83 0 -136.5 58t-53.5 147t53.5 147t136.5 58q67 0 110.5 -34.5t58.5 -87.5l-45 -18q-11 41 -42.5 67.5t-81.5 26.5z" />
    <glyph glyph-name="ordfeminine" unicode="&#xaa;" horiz-adv-x="412" 
d="M67 402q0 41 27 66.5t72 31.5l93 14q32 5 32 31q0 31 -21.5 51t-60.5 20q-38 0 -61.5 -21t-28.5 -56l-46 12q5 47 42.5 77.5t92.5 30.5q67 0 100 -33.5t33 -86.5v-169q0 -35 4 -57h-49q-4 20 -4 53q-13 -26 -42.5 -44t-69.5 -18q-52 0 -82.5 28.5t-30.5 69.5zM187 346
q50 0 77 31.5t27 87.5v23q-5 -7 -40 -12l-74 -12q-59 -10 -59 -60q0 -24 18 -41t51 -17z" />
    <glyph glyph-name="guillemotleft" unicode="&#xab;" horiz-adv-x="424" 
d="M229 95h-60l-133 191l133 191h60l-132 -191zM397 95h-59l-133 191l133 191h59l-131 -191z" />
    <glyph glyph-name="logicalnot" unicode="&#xac;" horiz-adv-x="562" 
d="M488 157h-55v201h-385v54h440v-255z" />
    <glyph glyph-name="uni00AD" unicode="&#xad;" horiz-adv-x="365" 
d="M314 260h-263v54h263v-54z" />
    <glyph glyph-name="registered" unicode="&#xae;" horiz-adv-x="830" 
d="M51 354q0 153 106 260.5t257 107.5t258 -108t107 -260t-107 -259.5t-258 -107.5t-257 107.5t-106 259.5zM102 354q0 -134 90.5 -227t221.5 -93t221.5 93t90.5 227q0 135 -90.5 228t-221.5 93t-221.5 -93t-90.5 -228zM351 360h74q39 0 61.5 20.5t22.5 55.5
q0 36 -22.5 56.5t-61.5 20.5h-74v-153zM351 318v-162h-49v400h130q56 0 91.5 -34t35.5 -85q0 -43 -26 -74.5t-68 -40.5l95 -166h-57l-92 162h-60z" />
    <glyph glyph-name="macron" unicode="&#xaf;" horiz-adv-x="336" 
d="M295 581h-254v52h254v-52z" />
    <glyph glyph-name="degree" unicode="&#xb0;" horiz-adv-x="368" 
d="M85 505q0 -44 28.5 -73.5t70.5 -29.5t70.5 29.5t28.5 73.5t-28.5 73.5t-70.5 29.5t-70.5 -29.5t-28.5 -73.5zM31 505q0 64 44.5 108.5t108.5 44.5q63 0 108 -44.5t45 -108.5t-45 -108.5t-108 -44.5q-64 0 -108.5 44.5t-44.5 108.5z" />
    <glyph glyph-name="plusminus" unicode="&#xb1;" horiz-adv-x="572" 
d="M71 373h188v146h53v-146h189v-50h-189v-145h-53v145h-188v50zM71 116h430v-51h-430v51z" />
    <glyph glyph-name="twosuperior" unicode="&#xb2;" horiz-adv-x="392" 
d="M120 575l-50 3q-2 14 -2 24q0 48 35 81t93 33q56 0 90.5 -32t34.5 -78q0 -63 -72 -108l-74 -46q-41 -27 -46 -61h196v-44h-258v5q0 85 78 135l69 42q55 34 55 78q0 27 -20.5 46.5t-53.5 19.5q-34 0 -55.5 -20.5t-21.5 -54.5q0 -7 2 -23z" />
    <glyph glyph-name="threesuperior" unicode="&#xb3;" horiz-adv-x="409" 
d="M176 522l-22 39l114 104h-195v44h262v-42l-116 -104q1 0 4.5 0.5t4.5 0.5q48 -2 81.5 -29.5t33.5 -77.5t-38.5 -83.5t-99.5 -33.5q-59 0 -97.5 30t-44.5 76l46 17q3 -36 30.5 -58t64.5 -22q38 0 62.5 21t24.5 53q0 34 -24 52t-59 18q-17 0 -32 -5z" />
    <glyph glyph-name="acute" unicode="&#xb4;" horiz-adv-x="249" 
d="M208 676l-118 -139h-49l89 139h78z" />
    <glyph glyph-name="mu" unicode="&#xb5;" horiz-adv-x="554" 
d="M415 74q-18 -37 -57.5 -62t-92.5 -25q-81 0 -119 54v-231h-60v667h60v-291q0 -63 32 -104.5t98 -41.5q61 0 98 41.5t37 103.5v292h60v-386q0 -43 5 -91h-57q-4 20 -4 67v7z" />
    <glyph glyph-name="paragraph" unicode="&#xb6;" horiz-adv-x="608" 
d="M317 658v-856h-52v525h-33q-78 0 -134.5 56t-56.5 134q0 84 61.5 138t155.5 54h319v-51h-94v-856h-53v856h-113z" />
    <glyph glyph-name="periodcentered" unicode="&#xb7;" horiz-adv-x="251" 
d="M74 284q0 22 14.5 37t36.5 15t37 -15t15 -37t-15 -36.5t-37 -14.5t-36.5 14.5t-14.5 36.5z" />
    <glyph glyph-name="cedilla" unicode="&#xb8;" horiz-adv-x="298" 
d="M115 -95l-24 29l48 74h48l-44 -65q10 5 22 5q41 0 66 -21t25 -55q0 -36 -28.5 -59t-79.5 -23q-70 0 -108 47l27 32q33 -39 80 -39q62 0 62 42q0 41 -57 41q-21 0 -37 -8z" />
    <glyph glyph-name="onesuperior" unicode="&#xb9;" horiz-adv-x="265" 
d="M197 347h-51v277q-4 -6 -36 -16t-51 -12v39q36 5 60 26t29 49h49v-363z" />
    <glyph glyph-name="ordmasculine" unicode="&#xba;" horiz-adv-x="473" 
d="M236 349q50 0 84 36t34 97t-34.5 96.5t-83.5 35.5t-83.5 -35.5t-34.5 -96.5t34 -97t84 -36zM236 659q72 0 120.5 -49.5t48.5 -127.5q0 -79 -48 -128.5t-121 -49.5q-72 0 -120 49.5t-48 128.5q0 78 48 127.5t120 49.5z" />
    <glyph glyph-name="guillemotright" unicode="&#xbb;" horiz-adv-x="424" 
d="M254 95h-59l131 191l-131 191h59l133 -191zM86 95h-60l133 191l-133 191h60l133 -191z" />
    <glyph glyph-name="onequarter" unicode="&#xbc;" horiz-adv-x="785" 
d="M199 285h-51v277q-4 -6 -36 -16t-51 -12v39q36 5 60 26t29 49h49v-363zM414 81v51l180 230h61v-236h71v-45h-71v-81h-51v81h-190zM604 126v179l-140 -179h140zM157 0h-60l473 648h59z" />
    <glyph glyph-name="onehalf" unicode="&#xbd;" horiz-adv-x="794" 
d="M199 286h-51v277q-4 -6 -36 -16t-51 -12v39q36 5 60 26t29 49h49v-363zM150 0h-60l473 648h59zM527 228l-50 3q-2 14 -2 24q0 48 35 81t93 33q56 0 90.5 -32t34.5 -78q0 -63 -72 -108l-74 -46q-41 -27 -46 -61h196v-44h-258v5q0 85 78 135l69 42q55 34 55 78
q0 27 -20.5 46.5t-53.5 19.5q-34 0 -55.5 -20.5t-21.5 -54.5q0 -7 2 -23z" />
    <glyph glyph-name="threequarters" unicode="&#xbe;" horiz-adv-x="861" 
d="M174 460l-22 39l114 104h-195v44h262v-42l-116 -104q1 0 4.5 0.5t4.5 0.5q48 -2 81.5 -29.5t33.5 -77.5t-38.5 -83.5t-99.5 -33.5q-59 0 -97.5 30t-44.5 76l46 17q3 -36 30.5 -58t64.5 -22q38 0 62.5 21t24.5 53q0 34 -24 52t-59 18q-17 0 -32 -5zM490 81v51l180 230h61
v-236h71v-45h-71v-81h-51v81h-190zM680 126v179l-140 -179h140zM240 0h-60l473 648h59z" />
    <glyph glyph-name="questiondown" unicode="&#xbf;" horiz-adv-x="495" 
d="M225 295h56q3 -15 3 -38q0 -95 -73 -148l-44 -33q-68 -53 -68 -124q0 -57 37 -96t103 -39q71 0 109.5 43t38.5 104q0 25 -8 54l62 -8q7 -25 7 -52q0 -78 -54.5 -137.5t-154.5 -59.5q-92 0 -147.5 56.5t-55.5 133.5q0 98 99 172l45 33q47 36 47 106q0 15 -2 33zM302 438
q0 -21 -14.5 -35.5t-35.5 -14.5q-20 0 -35 14.5t-15 35.5q0 20 15 34.5t35 14.5q21 0 35.5 -14.5t14.5 -34.5z" />
    <glyph glyph-name="Agrave" unicode="&#xc0;" horiz-adv-x="689" 
d="M601 0l-88 219h-339l-87 -219h-68l287 709h76l287 -709h-68zM343 646l-146 -369h293zM314 759l-134 119h84l107 -119h-57z" />
    <glyph glyph-name="Aacute" unicode="&#xc1;" horiz-adv-x="689" 
d="M601 0l-88 219h-339l-87 -219h-68l287 709h76l287 -709h-68zM343 646l-146 -369h293zM506 878l-133 -119h-58l107 119h84z" />
    <glyph glyph-name="Acircumflex" unicode="&#xc2;" horiz-adv-x="689" 
d="M601 0l-88 219h-339l-87 -219h-68l287 709h76l287 -709h-68zM343 646l-146 -369h293zM245 759h-59l115 119h82l116 -119h-59l-98 84z" />
    <glyph glyph-name="Atilde" unicode="&#xc3;" horiz-adv-x="689" 
d="M601 0l-88 219h-339l-87 -219h-68l287 709h76l287 -709h-68zM343 646l-146 -369h293zM496 872v-11q0 -46 -24 -72.5t-60 -26.5q-35 0 -68 24l-19 15q-25 21 -48 21q-42 0 -42 -56h-46v12q0 45 24 71t61 26q35 0 71 -27l19 -14q28 -19 46 -19q41 0 41 54v3h45z" />
    <glyph glyph-name="Adieresis" unicode="&#xc4;" horiz-adv-x="689" 
d="M182 819q0 18 12.5 30.5t29.5 12.5q18 0 31 -12.5t13 -30.5t-13 -30.5t-31 -12.5q-17 0 -29.5 12.5t-12.5 30.5zM420 819q0 18 12.5 30.5t29.5 12.5q19 0 31.5 -12.5t12.5 -30.5t-12.5 -30.5t-31.5 -12.5q-17 0 -29.5 12.5t-12.5 30.5zM601 0l-88 219h-339l-87 -219h-68
l287 709h76l287 -709h-68zM343 646l-146 -369h293z" />
    <glyph glyph-name="Aring" unicode="&#xc5;" horiz-adv-x="689" 
d="M343 646l-146 -369h293zM400 768q0 26 -16.5 43t-41.5 17q-24 0 -40.5 -17.5t-16.5 -42.5t16.5 -42t40.5 -17q25 0 41.5 17t16.5 42zM448 768q0 -60 -54 -90l275 -678h-68l-88 219h-339l-87 -219h-68l275 677q-56 29 -56 91q0 44 31 74.5t74 30.5t74 -30.5t31 -74.5z" />
    <glyph glyph-name="AE" unicode="&#xc6;" horiz-adv-x="993" 
d="M935 0h-418v212h-288l-138 -212h-80l472 709h452v-58h-355v-267h324v-58h-324v-268h355v-58zM266 268h251v385z" />
    <glyph glyph-name="Ccedilla" unicode="&#xc7;" horiz-adv-x="742" 
d="M367 -95l-24 29l34 53q-136 6 -233.5 104.5t-97.5 262.5q0 114 51 199.5t129 127t167 41.5q118 0 199 -61.5t106 -164.5l-57 -20q-21 88 -87 138t-161 50q-116 0 -199.5 -82.5t-83.5 -227.5q0 -144 83.5 -226.5t199.5 -82.5q96 0 163.5 52.5t89.5 138.5l55 -20
q-24 -95 -97.5 -157t-178.5 -71l-30 -45q8 5 21 5q41 0 66.5 -21t25.5 -55q0 -36 -28.5 -59t-80.5 -23q-69 0 -107 47l27 32q33 -39 80 -39q28 0 44.5 11t16.5 31q0 41 -57 41q-21 0 -36 -8z" />
    <glyph glyph-name="Egrave" unicode="&#xc8;" horiz-adv-x="569" 
d="M300 759l-134 119h84l107 -119h-57zM512 0h-418v709h418v-58h-355v-267h324v-58h-324v-268h355v-58z" />
    <glyph glyph-name="Eacute" unicode="&#xc9;" horiz-adv-x="569" 
d="M442 878l-133 -119h-58l107 119h84zM512 0h-418v709h418v-58h-355v-267h324v-58h-324v-268h355v-58z" />
    <glyph glyph-name="Ecircumflex" unicode="&#xca;" horiz-adv-x="569" 
d="M207 759h-59l115 119h82l116 -119h-59l-98 84zM512 0h-418v709h418v-58h-355v-267h324v-58h-324v-268h355v-58z" />
    <glyph glyph-name="Edieresis" unicode="&#xcb;" horiz-adv-x="569" 
d="M161 819q0 18 12.5 30.5t29.5 12.5q19 0 31.5 -12.5t12.5 -30.5t-12.5 -30.5t-31.5 -12.5q-17 0 -29.5 12.5t-12.5 30.5zM363 819q0 18 12.5 30.5t30.5 12.5t30.5 -12.5t12.5 -30.5t-12.5 -30.5t-30.5 -12.5t-30.5 12.5t-12.5 30.5zM512 0h-418v709h418v-58h-355v-267
h324v-58h-324v-268h355v-58z" />
    <glyph glyph-name="Igrave" unicode="&#xcc;" horiz-adv-x="252" 
d="M158 0h-64v709h64v-709zM97 759l-134 119h84l107 -119h-57z" />
    <glyph glyph-name="Iacute" unicode="&#xcd;" horiz-adv-x="252" 
d="M158 0h-64v709h64v-709zM289 878l-133 -119h-58l107 119h84z" />
    <glyph glyph-name="Icircumflex" unicode="&#xce;" horiz-adv-x="252" 
d="M158 0h-64v709h64v-709zM30 759h-59l115 119h82l116 -119h-59l-98 84z" />
    <glyph glyph-name="Idieresis" unicode="&#xcf;" horiz-adv-x="252" 
d="M20 819q0 17 12 28.5t28 11.5t28 -12t12 -28t-12 -28t-28 -12t-28 11.5t-12 28.5zM153 819q0 17 11.5 28.5t27.5 11.5q17 0 28.5 -11.5t11.5 -28.5t-11.5 -28.5t-28.5 -11.5q-16 0 -27.5 11.5t-11.5 28.5zM158 0h-64v709h64v-709z" />
    <glyph glyph-name="Eth" unicode="&#xd0;" horiz-adv-x="699" 
d="M314 0h-219v339h-78v54h78v316h221q143 0 240 -94.5t97 -261.5q0 -166 -98 -259.5t-241 -93.5zM159 56h153q118 0 197.5 77.5t79.5 219.5q0 143 -79 221.5t-196 78.5h-155v-260h142v-54h-142v-283z" />
    <glyph glyph-name="Ntilde" unicode="&#xd1;" horiz-adv-x="747" 
d="M528 872v-11q0 -46 -24 -72.5t-60 -26.5q-35 0 -68 24l-19 15q-25 21 -48 21q-42 0 -42 -56h-46v12q0 45 24 71t61 26q35 0 71 -27l19 -14q28 -19 46 -19q41 0 41 54v3h45zM653 0h-67l-429 630v-630h-63v709h87l409 -605v605h63v-709z" />
    <glyph glyph-name="Ograve" unicode="&#xd2;" horiz-adv-x="784" 
d="M370 759l-134 119h84l107 -119h-57zM110 354q0 -144 83 -226.5t199 -82.5t199.5 82.5t83.5 226.5q0 145 -83.5 227.5t-199.5 82.5t-199 -82.5t-83 -227.5zM46 354q0 114 51 199.5t128.5 127t166.5 41.5t167 -41.5t129 -127t51 -199.5q0 -86 -29.5 -157t-79 -116
t-111 -69.5t-127.5 -24.5q-89 0 -166.5 41t-128.5 126.5t-51 199.5z" />
    <glyph glyph-name="Oacute" unicode="&#xd3;" horiz-adv-x="784" 
d="M550 878l-133 -119h-58l107 119h84zM110 354q0 -144 83 -226.5t199 -82.5t199.5 82.5t83.5 226.5q0 145 -83.5 227.5t-199.5 82.5t-199 -82.5t-83 -227.5zM46 354q0 114 51 199.5t128.5 127t166.5 41.5t167 -41.5t129 -127t51 -199.5q0 -86 -29.5 -157t-79 -116
t-111 -69.5t-127.5 -24.5q-89 0 -166.5 41t-128.5 126.5t-51 199.5z" />
    <glyph glyph-name="Ocircumflex" unicode="&#xd4;" horiz-adv-x="784" 
d="M295 759h-59l115 119h82l116 -119h-59l-98 84zM110 354q0 -144 83 -226.5t199 -82.5t199.5 82.5t83.5 226.5q0 145 -83.5 227.5t-199.5 82.5t-199 -82.5t-83 -227.5zM46 354q0 114 51 199.5t128.5 127t166.5 41.5t167 -41.5t129 -127t51 -199.5q0 -86 -29.5 -157
t-79 -116t-111 -69.5t-127.5 -24.5q-89 0 -166.5 41t-128.5 126.5t-51 199.5z" />
    <glyph glyph-name="Otilde" unicode="&#xd5;" horiz-adv-x="784" 
d="M548 872v-11q0 -46 -24 -72.5t-60 -26.5q-35 0 -68 24l-19 15q-25 21 -48 21q-42 0 -42 -56h-46v12q0 45 24 71t61 26q35 0 71 -27l19 -14q28 -19 46 -19q41 0 41 54v3h45zM110 354q0 -144 83 -226.5t199 -82.5t199.5 82.5t83.5 226.5q0 145 -83.5 227.5t-199.5 82.5
t-199 -82.5t-83 -227.5zM46 354q0 114 51 199.5t128.5 127t166.5 41.5t167 -41.5t129 -127t51 -199.5q0 -86 -29.5 -157t-79 -116t-111 -69.5t-127.5 -24.5q-89 0 -166.5 41t-128.5 126.5t-51 199.5z" />
    <glyph glyph-name="Odieresis" unicode="&#xd6;" horiz-adv-x="784" 
d="M203 819q0 18 12.5 30.5t30.5 12.5t30.5 -12.5t12.5 -30.5t-12.5 -30.5t-30.5 -12.5t-30.5 12.5t-12.5 30.5zM495 819q0 18 12.5 30.5t29.5 12.5q19 0 31.5 -12.5t12.5 -30.5t-12.5 -30.5t-31.5 -12.5q-17 0 -29.5 12.5t-12.5 30.5zM110 354q0 -144 83 -226.5t199 -82.5
t199.5 82.5t83.5 226.5q0 145 -83.5 227.5t-199.5 82.5t-199 -82.5t-83 -227.5zM46 354q0 114 51 199.5t128.5 127t166.5 41.5t167 -41.5t129 -127t51 -199.5q0 -86 -29.5 -157t-79 -116t-111 -69.5t-127.5 -24.5q-89 0 -166.5 41t-128.5 126.5t-51 199.5z" />
    <glyph glyph-name="multiply" unicode="&#xd7;" horiz-adv-x="521" 
d="M439 65l-179 185l-178 -184l-36 36l178 185l-177 185l36 37l178 -185l177 185l37 -36l-180 -186l180 -185z" />
    <glyph glyph-name="Oslash" unicode="&#xd8;" horiz-adv-x="784" 
d="M46 354q0 114 51 199.5t128.5 127t166.5 41.5q118 0 206 -69l75 96l43 -32l-77 -99q100 -102 100 -264q0 -86 -29.5 -157t-79 -116t-111 -69.5t-127.5 -24.5q-109 0 -196 60l-70 -90l-43 32l71 92q-108 103 -108 273zM110 354q0 -139 81 -225l371 478q-74 57 -170 57
q-116 0 -199 -82.5t-83 -227.5zM675 354q0 130 -73 216l-370 -476q70 -49 160 -49q116 0 199.5 82.5t83.5 226.5z" />
    <glyph glyph-name="Ugrave" unicode="&#xd9;" horiz-adv-x="654" 
d="M323 759l-134 119h84l107 -119h-57zM327 -13q-111 0 -177 65t-66 184v473h63v-470q0 -94 46 -144t134 -50t134 50t46 144v470h63v-473q0 -119 -66 -184t-177 -65z" />
    <glyph glyph-name="Uacute" unicode="&#xda;" horiz-adv-x="654" 
d="M465 878l-133 -119h-58l107 119h84zM327 -13q-111 0 -177 65t-66 184v473h63v-470q0 -94 46 -144t134 -50t134 50t46 144v470h63v-473q0 -119 -66 -184t-177 -65z" />
    <glyph glyph-name="Ucircumflex" unicode="&#xdb;" horiz-adv-x="654" 
d="M230 759h-59l115 119h82l116 -119h-59l-98 84zM327 -13q-111 0 -177 65t-66 184v473h63v-470q0 -94 46 -144t134 -50t134 50t46 144v470h63v-473q0 -119 -66 -184t-177 -65z" />
    <glyph glyph-name="Udieresis" unicode="&#xdc;" horiz-adv-x="654" 
d="M186 819q0 18 12.5 30.5t30.5 12.5t30.5 -12.5t12.5 -30.5t-12.5 -30.5t-30.5 -12.5t-30.5 12.5t-12.5 30.5zM385 819q0 18 12.5 30.5t30.5 12.5t30.5 -12.5t12.5 -30.5t-12.5 -30.5t-30.5 -12.5t-30.5 12.5t-12.5 30.5zM327 -13q-111 0 -177 65t-66 184v473h63v-470
q0 -94 46 -144t134 -50t134 50t46 144v470h63v-473q0 -119 -66 -184t-177 -65z" />
    <glyph glyph-name="Yacute" unicode="&#xdd;" horiz-adv-x="597" 
d="M268 303l-249 406h76l206 -347l205 347h72l-248 -406v-303h-62v303zM436 878l-133 -119h-58l107 119h84z" />
    <glyph glyph-name="Thorn" unicode="&#xde;" horiz-adv-x="572" 
d="M157 213h161q74 0 118 40t44 106t-44 106.5t-118 40.5h-161v-293zM326 156h-169v-156h-63v709h63v-146h168q97 0 158 -58t61 -146q0 -89 -61 -146t-157 -57z" />
    <glyph glyph-name="germandbls" unicode="&#xdf;" horiz-adv-x="553" 
d="M336 343q0 -16 9.5 -24.5t32.5 -20.5l39 -21q43 -22 70 -59.5t27 -84.5q0 -57 -41 -101.5t-114 -44.5q-76 0 -115 43t-41 96l56 14q1 -38 25.5 -69.5t74.5 -31.5q45 0 70 27t25 62q0 63 -70 100l-38 20q-72 36 -72 93q0 52 51 85l38 26q56 36 56 100q0 49 -35.5 82.5
t-95.5 33.5q-62 0 -103 -47t-41 -132v-489h-60v492q0 106 58 168t146 62q86 0 139 -48t53 -121q0 -88 -78 -141l-37 -25q-29 -19 -29 -44z" />
    <glyph glyph-name="agrave.ss02" unicode="&#xe0;" horiz-adv-x="570" 
d="M105 240q0 -86 45 -142.5t119 -56.5q73 0 117.5 56.5t44.5 142.5q0 85 -44.5 140.5t-116.5 55.5q-74 0 -119.5 -55t-45.5 -141zM431 75v19q-19 -43 -61 -74.5t-106 -31.5q-99 0 -159.5 71.5t-60.5 180.5q0 107 61 178t159 71q68 0 108.5 -31t57.5 -71v90h60v-386
q0 -66 5 -91h-59q-5 30 -5 75zM258 537l-118 139h77l89 -139h-48z" />
    <glyph glyph-name="aacute.ss02" unicode="&#xe1;" horiz-adv-x="570" 
d="M400 676l-118 -139h-49l89 139h78zM105 240q0 -86 45 -142.5t119 -56.5q73 0 117.5 56.5t44.5 142.5q0 85 -44.5 140.5t-116.5 55.5q-74 0 -119.5 -55t-45.5 -141zM431 75v19q-19 -43 -61 -74.5t-106 -31.5q-99 0 -159.5 71.5t-60.5 180.5q0 107 61 178t159 71
q68 0 108.5 -31t57.5 -71v90h60v-386q0 -66 5 -91h-59q-5 30 -5 75z" />
    <glyph glyph-name="acircumflex.ss02" unicode="&#xe2;" horiz-adv-x="570" 
d="M184 538h-54l110 137h72l110 -137h-54l-92 99zM105 240q0 -86 45 -142.5t119 -56.5q73 0 117.5 56.5t44.5 142.5q0 85 -44.5 140.5t-116.5 55.5q-74 0 -119.5 -55t-45.5 -141zM431 75v19q-19 -43 -61 -74.5t-106 -31.5q-99 0 -159.5 71.5t-60.5 180.5q0 107 61 178
t159 71q68 0 108.5 -31t57.5 -71v90h60v-386q0 -66 5 -91h-59q-5 30 -5 75z" />
    <glyph glyph-name="atilde.ss02" unicode="&#xe3;" horiz-adv-x="570" 
d="M105 240q0 -86 45 -142.5t119 -56.5q73 0 117.5 56.5t44.5 142.5q0 85 -44.5 140.5t-116.5 55.5q-74 0 -119.5 -55t-45.5 -141zM431 75v19q-19 -43 -61 -74.5t-106 -31.5q-99 0 -159.5 71.5t-60.5 180.5q0 107 61 178t159 71q68 0 108.5 -31t57.5 -71v90h60v-386
q0 -66 5 -91h-59q-5 30 -5 75zM424 659v-11q0 -46 -24 -71.5t-61 -25.5q-32 0 -64 23l-19 15q-25 20 -47 20q-40 0 -40 -55h-47v12q0 44 24 69.5t61 25.5q32 0 68 -27l18 -13q25 -18 44 -18q40 0 40 56h47z" />
    <glyph glyph-name="adieresis.ss02" unicode="&#xe4;" horiz-adv-x="570" 
d="M148 610q0 17 12.5 30t29.5 13q18 0 30.5 -13t12.5 -30q0 -18 -12.5 -30t-30.5 -12q-17 0 -29.5 12t-12.5 30zM325 610q0 18 12 30.5t30 12.5q17 0 29.5 -13t12.5 -30q0 -18 -12.5 -30t-29.5 -12q-18 0 -30 12t-12 30zM105 240q0 -86 45 -142.5t119 -56.5
q73 0 117.5 56.5t44.5 142.5q0 85 -44.5 140.5t-116.5 55.5q-74 0 -119.5 -55t-45.5 -141zM431 75v19q-19 -43 -61 -74.5t-106 -31.5q-99 0 -159.5 71.5t-60.5 180.5q0 107 61 178t159 71q68 0 108.5 -31t57.5 -71v90h60v-386q0 -66 5 -91h-59q-5 30 -5 75z" />
    <glyph glyph-name="aring.ss02" unicode="&#xe5;" horiz-adv-x="570" 
d="M377 635q0 -43 -30.5 -74t-74.5 -31q-43 0 -74 31t-31 74t31 74t74 31q44 0 74.5 -31t30.5 -74zM333 635q0 26 -17.5 44.5t-43.5 18.5t-43.5 -18.5t-17.5 -44.5t17.5 -44.5t43.5 -18.5t43.5 18.5t17.5 44.5zM105 240q0 -86 45 -142.5t119 -56.5q73 0 117.5 56.5
t44.5 142.5q0 85 -44.5 140.5t-116.5 55.5q-74 0 -119.5 -55t-45.5 -141zM431 75v19q-19 -43 -61 -74.5t-106 -31.5q-99 0 -159.5 71.5t-60.5 180.5q0 107 61 178t159 71q68 0 108.5 -31t57.5 -71v90h60v-386q0 -66 5 -91h-59q-5 30 -5 75z" />
    <glyph glyph-name="ae" unicode="&#xe6;" horiz-adv-x="863" 
d="M765 155l52 -18q-21 -65 -77 -107.5t-132 -42.5q-65 0 -118.5 32t-83.5 91q-22 -54 -70.5 -88t-123.5 -34q-74 0 -117.5 40t-43.5 95q0 59 38 94.5t106 46.5l130 19q51 8 51 47q0 48 -32.5 78t-89.5 30t-93.5 -30t-42.5 -81l-57 12q8 69 62.5 110t129.5 41q63 0 106 -27
t60 -74q30 48 77 74.5t101 26.5q104 0 162.5 -66.5t59.5 -174.5q0 -14 -1 -22h-381v-4q1 -81 50 -132t121 -51q60 0 100 32t57 83zM219 39q66 0 111.5 41.5t45.5 111.5v60q-8 -9 -61 -18l-114 -17q-41 -6 -64.5 -29.5t-23.5 -61.5q0 -36 28 -61.5t78 -25.5zM440 277h316
q-1 69 -43.5 114t-114.5 45q-65 0 -109 -46t-49 -113z" />
    <glyph glyph-name="ccedilla" unicode="&#xe7;" horiz-adv-x="522" 
d="M249 -95l-24 28l35 55q-95 6 -155.5 76.5t-60.5 173.5q0 110 66.5 181t167.5 71q81 0 133.5 -42.5t70.5 -107.5l-53 -22q-14 49 -51 83t-100 34q-73 0 -123 -54t-50 -143t49.5 -142.5t123.5 -53.5q62 0 101.5 34.5t53.5 81.5l53 -22q-17 -56 -63.5 -97.5t-115.5 -49.5
l-30 -46q7 4 21 4q42 0 67 -20.5t25 -54.5q0 -37 -28.5 -59.5t-80.5 -22.5q-71 0 -107 47l27 32q32 -40 80 -40q28 0 44.5 11.5t16.5 31.5q0 41 -57 41q-18 0 -36 -8z" />
    <glyph glyph-name="egrave" unicode="&#xe8;" horiz-adv-x="531" 
d="M108 277h317q-2 69 -44 114t-115 45q-65 0 -109 -46t-49 -113zM432 154l53 -19q-22 -65 -76 -106.5t-133 -41.5q-98 0 -165 68.5t-67 184.5q0 110 64.5 180t156.5 70q104 0 163 -66.5t60 -174.5q0 -6 -2 -22h-380v-4q1 -81 49.5 -132t120.5 -51q61 0 100.5 31.5
t55.5 82.5zM262 537l-118 139h77l89 -139h-48z" />
    <glyph glyph-name="eacute" unicode="&#xe9;" horiz-adv-x="531" 
d="M410 676l-118 -139h-49l89 139h78zM108 277h317q-2 69 -44 114t-115 45q-65 0 -109 -46t-49 -113zM432 154l53 -19q-22 -65 -76 -106.5t-133 -41.5q-98 0 -165 68.5t-67 184.5q0 110 64.5 180t156.5 70q104 0 163 -66.5t60 -174.5q0 -6 -2 -22h-380v-4q1 -81 49.5 -132
t120.5 -51q61 0 100.5 31.5t55.5 82.5z" />
    <glyph glyph-name="ecircumflex" unicode="&#xea;" horiz-adv-x="531" 
d="M182 538h-54l110 137h72l110 -137h-54l-92 99zM108 277h317q-2 69 -44 114t-115 45q-65 0 -109 -46t-49 -113zM432 154l53 -19q-22 -65 -76 -106.5t-133 -41.5q-98 0 -165 68.5t-67 184.5q0 110 64.5 180t156.5 70q104 0 163 -66.5t60 -174.5q0 -6 -2 -22h-380v-4
q1 -81 49.5 -132t120.5 -51q61 0 100.5 31.5t55.5 82.5z" />
    <glyph glyph-name="edieresis" unicode="&#xeb;" horiz-adv-x="531" 
d="M143 610q0 17 12.5 30t29.5 13q18 0 30.5 -13t12.5 -30q0 -18 -12.5 -30t-30.5 -12q-17 0 -29.5 12t-12.5 30zM320 610q0 18 12 30.5t30 12.5q17 0 29.5 -13t12.5 -30q0 -18 -12.5 -30t-29.5 -12q-18 0 -30 12t-12 30zM108 277h317q-2 69 -44 114t-115 45q-65 0 -109 -46
t-49 -113zM432 154l53 -19q-22 -65 -76 -106.5t-133 -41.5q-98 0 -165 68.5t-67 184.5q0 110 64.5 180t156.5 70q104 0 163 -66.5t60 -174.5q0 -6 -2 -22h-380v-4q1 -81 49.5 -132t120.5 -51q61 0 100.5 31.5t55.5 82.5z" />
    <glyph glyph-name="igrave" unicode="&#xec;" horiz-adv-x="227" 
d="M143 0h-59v477h59v-477zM93 537l-118 139h77l89 -139h-48z" />
    <glyph glyph-name="iacute" unicode="&#xed;" horiz-adv-x="227" 
d="M255 676l-118 -139h-49l89 139h78zM143 0h-59v477h59v-477z" />
    <glyph glyph-name="icircumflex" unicode="&#xee;" horiz-adv-x="227" 
d="M22 538h-54l110 137h72l110 -137h-54l-92 99zM143 0h-59v477h59v-477z" />
    <glyph glyph-name="idieresis" unicode="&#xef;" horiz-adv-x="227" 
d="M12 610q0 17 11.5 28.5t27.5 11.5q17 0 28.5 -12t11.5 -28t-11.5 -27.5t-28.5 -11.5t-28 11.5t-11 27.5zM137 610q0 17 11.5 28.5t27.5 11.5q17 0 28.5 -11.5t11.5 -28.5t-11.5 -28t-28.5 -11q-16 0 -27.5 11.5t-11.5 27.5zM143 0h-59v477h59v-477z" />
    <glyph glyph-name="eth" unicode="&#xf0;" horiz-adv-x="555" 
d="M467 650l-95 -47q139 -137 139 -348q0 -117 -62.5 -191.5t-170.5 -74.5q-102 0 -167.5 67.5t-65.5 170.5q0 105 67 169.5t158 64.5q114 0 163 -79q-31 115 -115 194l-133 -67l-19 41l111 55q-64 49 -137 68l19 49q96 -25 175 -88l113 57zM278 42q77 0 124.5 54t47.5 140
q0 78 -50 126t-122 48t-122 -50t-50 -133t49 -134t123 -51z" />
    <glyph glyph-name="ntilde" unicode="&#xf1;" horiz-adv-x="540" 
d="M433 659v-11q0 -46 -24 -71.5t-61 -25.5q-32 0 -64 23l-19 15q-25 20 -47 20q-40 0 -40 -55h-47v12q0 44 24 69.5t61 25.5q32 0 68 -27l18 -13q25 -18 44 -18q40 0 40 56h47zM144 285v-285h-60v477h58v-81q20 42 61 67.5t94 25.5q81 0 125 -50.5t44 -127.5v-311h-60v301
q0 60 -32.5 97t-96.5 37q-59 0 -96 -44t-37 -106z" />
    <glyph glyph-name="ograve" unicode="&#xf2;" horiz-adv-x="557" 
d="M259 537l-118 139h77l89 -139h-48zM278 41q73 0 123.5 53.5t50.5 143.5q0 91 -50 144t-124 53q-73 0 -123 -53.5t-50 -143.5t50 -143.5t123 -53.5zM278 490q100 0 167.5 -70.5t67.5 -181.5q0 -110 -67.5 -180.5t-167.5 -70.5q-99 0 -166.5 70.5t-67.5 180.5
q0 111 66.5 181.5t167.5 70.5z" />
    <glyph glyph-name="oacute" unicode="&#xf3;" horiz-adv-x="557" 
d="M412 676l-118 -139h-49l89 139h78zM278 41q73 0 123.5 53.5t50.5 143.5q0 91 -50 144t-124 53q-73 0 -123 -53.5t-50 -143.5t50 -143.5t123 -53.5zM278 490q100 0 167.5 -70.5t67.5 -181.5q0 -110 -67.5 -180.5t-167.5 -70.5q-99 0 -166.5 70.5t-67.5 180.5
q0 111 66.5 181.5t167.5 70.5z" />
    <glyph glyph-name="ocircumflex" unicode="&#xf4;" horiz-adv-x="557" 
d="M187 538h-54l110 137h72l110 -137h-54l-92 99zM278 41q73 0 123.5 53.5t50.5 143.5q0 91 -50 144t-124 53q-73 0 -123 -53.5t-50 -143.5t50 -143.5t123 -53.5zM278 490q100 0 167.5 -70.5t67.5 -181.5q0 -110 -67.5 -180.5t-167.5 -70.5q-99 0 -166.5 70.5t-67.5 180.5
q0 111 66.5 181.5t167.5 70.5z" />
    <glyph glyph-name="otilde" unicode="&#xf5;" horiz-adv-x="557" 
d="M278 41q73 0 123.5 53.5t50.5 143.5q0 91 -50 144t-124 53q-73 0 -123 -53.5t-50 -143.5t50 -143.5t123 -53.5zM278 490q100 0 167.5 -70.5t67.5 -181.5q0 -110 -67.5 -180.5t-167.5 -70.5q-99 0 -166.5 70.5t-67.5 180.5q0 111 66.5 181.5t167.5 70.5zM430 659v-11
q0 -46 -24 -71.5t-61 -25.5q-32 0 -64 23l-19 15q-25 20 -47 20q-40 0 -40 -55h-47v12q0 44 24 69.5t61 25.5q32 0 68 -27l18 -13q25 -18 44 -18q40 0 40 56h47z" />
    <glyph glyph-name="odieresis" unicode="&#xf6;" horiz-adv-x="557" 
d="M148 610q0 17 12.5 30t29.5 13q18 0 30.5 -13t12.5 -30q0 -18 -12.5 -30t-30.5 -12q-17 0 -29.5 12t-12.5 30zM325 610q0 18 12 30.5t30 12.5q17 0 29.5 -13t12.5 -30q0 -18 -12.5 -30t-29.5 -12q-18 0 -30 12t-12 30zM278 41q73 0 123.5 53.5t50.5 143.5q0 91 -50 144
t-124 53q-73 0 -123 -53.5t-50 -143.5t50 -143.5t123 -53.5zM278 490q100 0 167.5 -70.5t67.5 -181.5q0 -110 -67.5 -180.5t-167.5 -70.5q-99 0 -166.5 70.5t-67.5 180.5q0 111 66.5 181.5t167.5 70.5z" />
    <glyph glyph-name="divide" unicode="&#xf7;" horiz-adv-x="564" 
d="M233 109q0 20 14.5 34t33.5 14q20 0 34 -14t14 -34q0 -19 -14.5 -33t-33.5 -14t-33.5 14t-14.5 33zM233 465q0 19 14.5 33.5t33.5 14.5t33.5 -14.5t14.5 -33.5t-14.5 -33.5t-33.5 -14.5t-33.5 14.5t-14.5 33.5zM61 261v54h442v-54h-442z" />
    <glyph glyph-name="oslash" unicode="&#xf8;" horiz-adv-x="557" 
d="M278 490q74 0 135 -43l55 71l39 -31l-57 -73q63 -69 63 -176q0 -110 -67.5 -180.5t-167.5 -70.5q-73 0 -130 40l-53 -68l-38 31l53 69q-66 69 -66 179q0 111 66.5 181.5t167.5 70.5zM105 238q0 -78 42 -133l231 297q-44 33 -100 33q-73 0 -123 -53.5t-50 -143.5zM278 41
q73 0 123.5 53.5t50.5 143.5q0 77 -39 129l-230 -296q42 -30 95 -30z" />
    <glyph glyph-name="ugrave" unicode="&#xf9;" horiz-adv-x="543" 
d="M404 74q-18 -37 -57.5 -62t-92.5 -25q-86 0 -132 54.5t-46 135.5v300h60v-291q0 -63 31.5 -104.5t97.5 -41.5q62 0 98.5 41.5t36.5 103.5v292h60v-386q0 -49 6 -91h-57q-5 25 -5 67v7zM264 537l-118 139h77l89 -139h-48z" />
    <glyph glyph-name="uacute" unicode="&#xfa;" horiz-adv-x="543" 
d="M387 676l-118 -139h-49l89 139h78zM404 74q-18 -37 -57.5 -62t-92.5 -25q-86 0 -132 54.5t-46 135.5v300h60v-291q0 -63 31.5 -104.5t97.5 -41.5q62 0 98.5 41.5t36.5 103.5v292h60v-386q0 -49 6 -91h-57q-5 25 -5 67v7z" />
    <glyph glyph-name="ucircumflex" unicode="&#xfb;" horiz-adv-x="543" 
d="M177 538h-54l110 137h72l110 -137h-54l-92 99zM404 74q-18 -37 -57.5 -62t-92.5 -25q-86 0 -132 54.5t-46 135.5v300h60v-291q0 -63 31.5 -104.5t97.5 -41.5q62 0 98.5 41.5t36.5 103.5v292h60v-386q0 -49 6 -91h-57q-5 25 -5 67v7z" />
    <glyph glyph-name="udieresis" unicode="&#xfc;" horiz-adv-x="543" 
d="M136 610q0 17 12.5 30t29.5 13q18 0 30.5 -13t12.5 -30q0 -18 -12.5 -30t-30.5 -12q-17 0 -29.5 12t-12.5 30zM313 610q0 18 12 30.5t30 12.5q17 0 29.5 -13t12.5 -30q0 -18 -12.5 -30t-29.5 -12q-18 0 -30 12t-12 30zM404 74q-18 -37 -57.5 -62t-92.5 -25
q-86 0 -132 54.5t-46 135.5v300h60v-291q0 -63 31.5 -104.5t97.5 -41.5q62 0 98.5 41.5t36.5 103.5v292h60v-386q0 -49 6 -91h-57q-5 25 -5 67v7z" />
    <glyph glyph-name="yacute" unicode="&#xfd;" horiz-adv-x="488" 
d="M163 -194h-65l120 256l-205 415h68l169 -353l158 353h64zM364 676l-118 -139h-49l89 139h78z" />
    <glyph glyph-name="thorn" unicode="&#xfe;" horiz-adv-x="575" 
d="M143 -190h-59v912h60v-338q20 43 64 73.5t108 30.5q99 0 157.5 -70.5t58.5 -178.5q0 -109 -59.5 -180t-158.5 -71q-63 0 -106.5 30t-64.5 72v-280zM471 239q0 85 -45.5 140.5t-119.5 55.5q-73 0 -118.5 -55.5t-45.5 -140.5q0 -86 45.5 -142t118.5 -56q74 0 119.5 56.5
t45.5 141.5z" />
    <glyph glyph-name="ydieresis" unicode="&#xff;" horiz-adv-x="488" 
d="M113 610q0 17 12.5 30t29.5 13q18 0 30.5 -13t12.5 -30q0 -18 -12.5 -30t-30.5 -12q-17 0 -29.5 12t-12.5 30zM290 610q0 18 12 30.5t30 12.5q17 0 29.5 -13t12.5 -30q0 -18 -12.5 -30t-29.5 -12q-18 0 -30 12t-12 30zM163 -194h-65l120 256l-205 415h68l169 -353
l158 353h64z" />
    <glyph glyph-name="Amacron" unicode="&#x100;" horiz-adv-x="689" 
d="M601 0l-88 219h-339l-87 -219h-68l287 709h76l287 -709h-68zM343 646l-146 -369h293zM479 793h-272v53h272v-53z" />
    <glyph glyph-name="amacron.ss02" unicode="&#x101;" horiz-adv-x="570" 
d="M105 240q0 -86 45 -142.5t119 -56.5q73 0 117.5 56.5t44.5 142.5q0 85 -44.5 140.5t-116.5 55.5q-74 0 -119.5 -55t-45.5 -141zM431 75v19q-19 -43 -61 -74.5t-106 -31.5q-99 0 -159.5 71.5t-60.5 180.5q0 107 61 178t159 71q68 0 108.5 -31t57.5 -71v90h60v-386
q0 -66 5 -91h-59q-5 30 -5 75zM394 581h-254v52h254v-52z" />
    <glyph glyph-name="Abreve" unicode="&#x102;" horiz-adv-x="689" 
d="M601 0l-88 219h-339l-87 -219h-68l287 709h76l287 -709h-68zM343 646l-146 -369h293zM343 754q-64 0 -102 37t-42 89h51q3 -32 27 -55t66 -23q43 0 66 23t26 55h51q-3 -52 -41 -89t-102 -37z" />
    <glyph glyph-name="abreve.ss02" unicode="&#x103;" horiz-adv-x="570" 
d="M105 240q0 -86 45 -142.5t119 -56.5q73 0 117.5 56.5t44.5 142.5q0 85 -44.5 140.5t-116.5 55.5q-74 0 -119.5 -55t-45.5 -141zM431 75v19q-19 -43 -61 -74.5t-106 -31.5q-99 0 -159.5 71.5t-60.5 180.5q0 107 61 178t159 71q68 0 108.5 -31t57.5 -71v90h60v-386
q0 -66 5 -91h-59q-5 30 -5 75zM271 538q-64 0 -101.5 41.5t-38.5 96.5h47q2 -36 25.5 -62.5t67.5 -26.5t67.5 26.5t25.5 62.5h47q-1 -56 -38 -97t-102 -41z" />
    <glyph glyph-name="Aogonek" unicode="&#x104;" horiz-adv-x="689" 
d="M343 646l-146 -369h293zM635 -210q-44 0 -74 25t-30 68q0 68 75 117h-5l-88 219h-339l-87 -219h-68l287 709h76l287 -709l-3 -1q-83 -43 -83 -105q0 -27 18 -42t45 -15q19 0 34 5v-44q-19 -8 -45 -8z" />
    <glyph glyph-name="aogonek.ss02" unicode="&#x105;" horiz-adv-x="584" 
d="M464 -210q-44 0 -73.5 25t-29.5 68q0 71 74 118q-4 24 -4 74v19q-19 -43 -61 -74.5t-106 -31.5q-99 0 -159.5 71.5t-60.5 180.5q0 107 61 178t159 71q68 0 108.5 -31t57.5 -71v90h60v-386q0 -46 5 -91q-83 -43 -83 -106q0 -27 18 -42t45 -15q19 0 34 5v-44q-19 -8 -45 -8
zM105 240q0 -86 45 -142.5t119 -56.5q73 0 117.5 56.5t44.5 142.5q0 85 -44.5 140.5t-116.5 55.5q-74 0 -119.5 -55t-45.5 -141z" />
    <glyph glyph-name="Cacute" unicode="&#x106;" horiz-adv-x="742" 
d="M552 878l-133 -119h-58l107 119h84zM393 -13q-67 0 -128.5 24.5t-110.5 69.5t-78.5 116t-29.5 157q0 114 51 199.5t129 127t167 41.5q118 0 199 -61.5t106 -164.5l-57 -20q-21 88 -87 138t-161 50q-116 0 -199.5 -82.5t-83.5 -227.5q0 -144 83.5 -226.5t199.5 -82.5
q97 0 164 52.5t89 138.5l55 -20q-26 -102 -108.5 -165.5t-199.5 -63.5z" />
    <glyph glyph-name="cacute" unicode="&#x107;" horiz-adv-x="522" 
d="M413 676l-118 -139h-49l89 139h78zM278 435q-74 0 -123.5 -53.5t-49.5 -143.5q0 -89 49.5 -142.5t123.5 -53.5q63 0 102 34.5t53 81.5l53 -22q-19 -62 -73.5 -105.5t-134.5 -43.5q-101 0 -167.5 71t-66.5 180q0 110 66.5 181t167.5 71q81 0 133.5 -42.5t70.5 -107.5
l-53 -22q-14 49 -51 83t-100 34z" />
    <glyph glyph-name="Ccircumflex" unicode="&#x108;" horiz-adv-x="742" 
d="M302 759h-59l115 119h82l116 -119h-59l-98 84zM393 -13q-67 0 -128.5 24.5t-110.5 69.5t-78.5 116t-29.5 157q0 114 51 199.5t129 127t167 41.5q118 0 199 -61.5t106 -164.5l-57 -20q-21 88 -87 138t-161 50q-116 0 -199.5 -82.5t-83.5 -227.5q0 -144 83.5 -226.5
t199.5 -82.5q97 0 164 52.5t89 138.5l55 -20q-26 -102 -108.5 -165.5t-199.5 -63.5z" />
    <glyph glyph-name="ccircumflex" unicode="&#x109;" horiz-adv-x="522" 
d="M188 538h-54l110 137h72l110 -137h-54l-92 99zM278 435q-74 0 -123.5 -53.5t-49.5 -143.5q0 -89 49.5 -142.5t123.5 -53.5q63 0 102 34.5t53 81.5l53 -22q-19 -62 -73.5 -105.5t-134.5 -43.5q-101 0 -167.5 71t-66.5 180q0 110 66.5 181t167.5 71q81 0 133.5 -42.5
t70.5 -107.5l-53 -22q-14 49 -51 83t-100 34z" />
    <glyph glyph-name="Cdotaccent" unicode="&#x10a;" horiz-adv-x="742" 
d="M393 -13q-67 0 -128.5 24.5t-110.5 69.5t-78.5 116t-29.5 157q0 114 51 199.5t129 127t167 41.5q118 0 199 -61.5t106 -164.5l-57 -20q-21 88 -87 138t-161 50q-116 0 -199.5 -82.5t-83.5 -227.5q0 -144 83.5 -226.5t199.5 -82.5q97 0 164 52.5t89 138.5l55 -20
q-26 -102 -108.5 -165.5t-199.5 -63.5zM350 819q0 19 14 33t34 14t33.5 -14t13.5 -33q0 -20 -14 -34t-33 -14q-20 0 -34 14.5t-14 33.5z" />
    <glyph glyph-name="cdotaccent" unicode="&#x10b;" horiz-adv-x="522" 
d="M278 435q-74 0 -123.5 -53.5t-49.5 -143.5q0 -89 49.5 -142.5t123.5 -53.5q63 0 102 34.5t53 81.5l53 -22q-19 -62 -73.5 -105.5t-134.5 -43.5q-101 0 -167.5 71t-66.5 180q0 110 66.5 181t167.5 71q81 0 133.5 -42.5t70.5 -107.5l-53 -22q-14 49 -51 83t-100 34z
M234 607q0 19 14 33t33 14t33 -14t14 -33t-14 -33t-33 -14t-33 14t-14 33z" />
    <glyph glyph-name="Ccaron" unicode="&#x10c;" horiz-adv-x="742" 
d="M240 878h59l97 -84l98 84h59l-116 -119h-82zM393 -13q-67 0 -128.5 24.5t-110.5 69.5t-78.5 116t-29.5 157q0 114 51 199.5t129 127t167 41.5q118 0 199 -61.5t106 -164.5l-57 -20q-21 88 -87 138t-161 50q-116 0 -199.5 -82.5t-83.5 -227.5q0 -144 83.5 -226.5
t199.5 -82.5q97 0 164 52.5t89 138.5l55 -20q-26 -102 -108.5 -165.5t-199.5 -63.5z" />
    <glyph glyph-name="ccaron" unicode="&#x10d;" horiz-adv-x="522" 
d="M128 676h55l91 -100l91 100h55l-109 -138h-74zM278 435q-74 0 -123.5 -53.5t-49.5 -143.5q0 -89 49.5 -142.5t123.5 -53.5q63 0 102 34.5t53 81.5l53 -22q-19 -62 -73.5 -105.5t-134.5 -43.5q-101 0 -167.5 71t-66.5 180q0 110 66.5 181t167.5 71q81 0 133.5 -42.5
t70.5 -107.5l-53 -22q-14 49 -51 83t-100 34z" />
    <glyph glyph-name="Dcaron" unicode="&#x10e;" horiz-adv-x="697" 
d="M189 878h59l97 -84l98 84h59l-116 -119h-82zM157 56h154q117 0 196.5 77.5t79.5 219.5q0 143 -78.5 221.5t-195.5 78.5h-156v-597zM313 0h-219v709h221q143 0 240 -94.5t97 -261.5q0 -166 -98 -259.5t-241 -93.5z" />
    <glyph glyph-name="dcaron" unicode="&#x10f;" horiz-adv-x="575" 
d="M645 722l-58 -176h-46l36 176h68zM105 239q0 -86 45 -142t119 -56q73 0 117.5 56.5t44.5 142.5q0 85 -44.5 140.5t-116.5 55.5q-74 0 -119.5 -55t-45.5 -142zM431 75v19q-19 -43 -61 -74.5t-106 -31.5q-99 0 -159.5 71.5t-60.5 179.5q0 107 61.5 178.5t158.5 71.5
q68 0 108.5 -31t57.5 -71v335h60v-631q0 -66 5 -91h-59q-5 30 -5 75z" />
    <glyph glyph-name="Dcroat" unicode="&#x110;" horiz-adv-x="699" 
d="M314 0h-219v339h-78v54h78v316h221q143 0 240 -94.5t97 -261.5q0 -166 -98 -259.5t-241 -93.5zM159 56h153q118 0 197.5 77.5t79.5 219.5q0 143 -79 221.5t-196 78.5h-155v-260h142v-54h-142v-283z" />
    <glyph glyph-name="dcroat" unicode="&#x111;" horiz-adv-x="575" 
d="M490 722v-104h94v-50h-94v-477q0 -66 5 -91h-59q-5 30 -5 75v19q-19 -43 -61 -74.5t-106 -31.5q-99 0 -159.5 71.5t-60.5 179.5q0 107 61.5 178.5t158.5 71.5q68 0 108.5 -31t57.5 -71v181h-132v50h132v104h60zM105 239q0 -86 45 -142t119 -56q73 0 117.5 56.5
t44.5 142.5q0 85 -44.5 140.5t-116.5 55.5q-74 0 -119.5 -55t-45.5 -142z" />
    <glyph glyph-name="Emacron" unicode="&#x112;" horiz-adv-x="569" 
d="M512 0h-418v709h418v-58h-355v-267h324v-58h-324v-268h355v-58zM438 793h-272v53h272v-53z" />
    <glyph glyph-name="emacron" unicode="&#x113;" horiz-adv-x="531" 
d="M403 581h-254v52h254v-52zM108 277h317q-2 69 -44 114t-115 45q-65 0 -109 -46t-49 -113zM432 154l53 -19q-22 -65 -76 -106.5t-133 -41.5q-98 0 -165 68.5t-67 184.5q0 110 64.5 180t156.5 70q104 0 163 -66.5t60 -174.5q0 -6 -2 -22h-380v-4q1 -81 49.5 -132t120.5 -51
q61 0 100.5 31.5t55.5 82.5z" />
    <glyph glyph-name="Ebreve" unicode="&#x114;" horiz-adv-x="569" 
d="M305 754q-64 0 -102 37t-42 89h51q3 -32 27 -55t66 -23q43 0 66 23t26 55h51q-3 -52 -41 -89t-102 -37zM512 0h-418v709h418v-58h-355v-267h324v-58h-324v-268h355v-58z" />
    <glyph glyph-name="ebreve" unicode="&#x115;" horiz-adv-x="531" 
d="M108 277h317q-2 69 -44 114t-115 45q-65 0 -109 -46t-49 -113zM432 154l53 -19q-22 -65 -76 -106.5t-133 -41.5q-98 0 -165 68.5t-67 184.5q0 110 64.5 180t156.5 70q104 0 163 -66.5t60 -174.5q0 -6 -2 -22h-380v-4q1 -81 49.5 -132t120.5 -51q61 0 100.5 31.5
t55.5 82.5zM275 538q-64 0 -101.5 41.5t-38.5 96.5h47q2 -36 25.5 -62.5t67.5 -26.5t67.5 26.5t25.5 62.5h47q-1 -56 -38 -97t-102 -41z" />
    <glyph glyph-name="Edotaccent" unicode="&#x116;" horiz-adv-x="569" 
d="M258 819q0 19 14 33t34 14t33.5 -14t13.5 -33q0 -20 -14 -34t-33 -14q-20 0 -34 14.5t-14 33.5zM512 0h-418v709h418v-58h-355v-267h324v-58h-324v-268h355v-58z" />
    <glyph glyph-name="edotaccent" unicode="&#x117;" horiz-adv-x="531" 
d="M108 277h317q-2 69 -44 114t-115 45q-65 0 -109 -46t-49 -113zM432 154l53 -19q-22 -65 -76 -106.5t-133 -41.5q-98 0 -165 68.5t-67 184.5q0 110 64.5 180t156.5 70q104 0 163 -66.5t60 -174.5q0 -6 -2 -22h-380v-4q1 -81 49.5 -132t120.5 -51q61 0 100.5 31.5
t55.5 82.5zM230 607q0 19 14 33t33 14t33 -14t14 -33t-14 -33t-33 -14t-33 14t-14 33z" />
    <glyph glyph-name="Eogonek" unicode="&#x118;" horiz-adv-x="569" 
d="M377 -117q0 68 74 117h-357v709h418v-58h-355v-267h324v-58h-324v-268h355v-58q-83 -43 -83 -106q0 -27 18 -42t45 -15q19 0 34 5v-44q-19 -8 -45 -8q-44 0 -74 25t-30 68z" />
    <glyph glyph-name="eogonek" unicode="&#x119;" horiz-adv-x="531" 
d="M324 -209q-44 0 -74 25t-30 67q0 58 56 105q-3 -1 -10 -1q-94 4 -158 72.5t-64 180.5q0 109 64.5 179.5t156.5 70.5q104 0 163 -66.5t60 -174.5q0 -11 -2 -22h-380v-4q1 -81 50 -132t121 -51q60 0 100 32t57 83l52 -18q-35 -101 -135 -138q-32 -14 -55.5 -42t-23.5 -61
q0 -28 18 -43.5t44 -15.5q18 0 35 5v-44q-21 -7 -45 -7zM108 277h317q-2 69 -44 114t-115 45q-65 0 -109 -46t-49 -113z" />
    <glyph glyph-name="Ecaron" unicode="&#x11a;" horiz-adv-x="569" 
d="M154 878h59l97 -84l98 84h59l-116 -119h-82zM512 0h-418v709h418v-58h-355v-267h324v-58h-324v-268h355v-58z" />
    <glyph glyph-name="ecaron" unicode="&#x11b;" horiz-adv-x="531" 
d="M130 676h55l91 -100l91 100h55l-109 -138h-74zM108 277h317q-2 69 -44 114t-115 45q-65 0 -109 -46t-49 -113zM432 154l53 -19q-22 -65 -76 -106.5t-133 -41.5q-98 0 -165 68.5t-67 184.5q0 110 64.5 180t156.5 70q104 0 163 -66.5t60 -174.5q0 -6 -2 -22h-380v-4
q1 -81 49.5 -132t120.5 -51q61 0 100.5 31.5t55.5 82.5z" />
    <glyph glyph-name="Gcircumflex" unicode="&#x11c;" horiz-adv-x="762" 
d="M293 759h-59l115 119h82l116 -119h-59l-98 84zM693 0h-50l-6 137q-26 -58 -90 -104t-167 -46q-63 0 -122.5 24.5t-107 69.5t-76 116.5t-28.5 157.5q0 114 50 199.5t127 126.5t166 41q112 0 194.5 -58t113.5 -155l-57 -24q-27 83 -93 131t-158 48q-115 0 -197 -82
t-82 -227q0 -74 23.5 -134.5t62.5 -98t87 -58t99 -20.5q66 0 117 23t78.5 59.5t41 74t14.5 74.5h-262v58h322v-333z" />
    <glyph glyph-name="gcircumflex" unicode="&#x11d;" horiz-adv-x="555" 
d="M182 538h-54l110 137h72l110 -137h-54l-92 99zM46 -27l57 14q6 -58 48.5 -97.5t104.5 -39.5q164 0 164 184v88q-17 -41 -58.5 -68.5t-102.5 -27.5q-93 0 -153 65.5t-60 165.5q0 99 59.5 164.5t153.5 65.5q63 0 104 -27t58 -68v85h59v-442q0 -45 -11 -84.5t-35 -75.5
t-70 -57t-109 -21q-85 0 -142.5 49.5t-66.5 126.5zM267 78q70 0 113 50.5t43 128.5q0 77 -43 127.5t-113 50.5q-71 0 -115.5 -50t-44.5 -128q0 -79 44.5 -129t115.5 -50z" />
    <glyph glyph-name="Gbreve" unicode="&#x11e;" horiz-adv-x="762" 
d="M383 754q-64 0 -102 37t-42 89h51q3 -32 27 -55t66 -23q43 0 66 23t26 55h51q-3 -52 -41 -89t-102 -37zM693 0h-50l-6 137q-26 -58 -90 -104t-167 -46q-63 0 -122.5 24.5t-107 69.5t-76 116.5t-28.5 157.5q0 114 50 199.5t127 126.5t166 41q112 0 194.5 -58t113.5 -155
l-57 -24q-27 83 -93 131t-158 48q-115 0 -197 -82t-82 -227q0 -74 23.5 -134.5t62.5 -98t87 -58t99 -20.5q66 0 117 23t78.5 59.5t41 74t14.5 74.5h-262v58h322v-333z" />
    <glyph glyph-name="gbreve" unicode="&#x11f;" horiz-adv-x="555" 
d="M46 -27l57 14q6 -58 48.5 -97.5t104.5 -39.5q164 0 164 184v88q-17 -41 -58.5 -68.5t-102.5 -27.5q-93 0 -153 65.5t-60 165.5q0 99 59.5 164.5t153.5 65.5q63 0 104 -27t58 -68v85h59v-442q0 -45 -11 -84.5t-35 -75.5t-70 -57t-109 -21q-85 0 -142.5 49.5t-66.5 126.5z
M267 78q70 0 113 50.5t43 128.5q0 77 -43 127.5t-113 50.5q-71 0 -115.5 -50t-44.5 -128q0 -79 44.5 -129t115.5 -50zM269 538q-64 0 -101.5 41.5t-38.5 96.5h47q2 -36 25.5 -62.5t67.5 -26.5t67.5 26.5t25.5 62.5h47q-1 -56 -38 -97t-102 -41z" />
    <glyph glyph-name="Gdotaccent" unicode="&#x120;" horiz-adv-x="762" 
d="M342 819q0 19 14 33t34 14t33.5 -14t13.5 -33q0 -20 -14 -34t-33 -14q-20 0 -34 14.5t-14 33.5zM693 0h-50l-6 137q-26 -58 -90 -104t-167 -46q-63 0 -122.5 24.5t-107 69.5t-76 116.5t-28.5 157.5q0 114 50 199.5t127 126.5t166 41q112 0 194.5 -58t113.5 -155l-57 -24
q-27 83 -93 131t-158 48q-115 0 -197 -82t-82 -227q0 -74 23.5 -134.5t62.5 -98t87 -58t99 -20.5q66 0 117 23t78.5 59.5t41 74t14.5 74.5h-262v58h322v-333z" />
    <glyph glyph-name="gdotaccent" unicode="&#x121;" horiz-adv-x="555" 
d="M224 607q0 19 14 33t33 14t33 -14t14 -33t-14 -33t-33 -14t-33 14t-14 33zM46 -27l57 14q6 -58 48.5 -97.5t104.5 -39.5q164 0 164 184v88q-17 -41 -58.5 -68.5t-102.5 -27.5q-93 0 -153 65.5t-60 165.5q0 99 59.5 164.5t153.5 65.5q63 0 104 -27t58 -68v85h59v-442
q0 -45 -11 -84.5t-35 -75.5t-70 -57t-109 -21q-85 0 -142.5 49.5t-66.5 126.5zM267 78q70 0 113 50.5t43 128.5q0 77 -43 127.5t-113 50.5q-71 0 -115.5 -50t-44.5 -128q0 -79 44.5 -129t115.5 -50z" />
    <glyph glyph-name="Gcommaaccent" unicode="&#x122;" horiz-adv-x="762" 
d="M347 -84q0 18 13.5 30t31.5 12q20 0 35.5 -15t15.5 -44q0 -49 -28.5 -77.5t-69.5 -30.5v31q25 2 43 18.5t19 39.5q-6 -6 -18 -6q-19 0 -30.5 11.5t-11.5 30.5zM693 0h-50l-6 137q-26 -58 -90 -104t-167 -46q-63 0 -122.5 24.5t-107 69.5t-76 116.5t-28.5 157.5
q0 114 50 199.5t127 126.5t166 41q112 0 194.5 -58t113.5 -155l-57 -24q-27 83 -93 131t-158 48q-115 0 -197 -82t-82 -227q0 -74 23.5 -134.5t62.5 -98t87 -58t99 -20.5q66 0 117 23t78.5 59.5t41 74t14.5 74.5h-262v58h322v-333z" />
    <glyph glyph-name="gcommaaccent" unicode="&#x123;" horiz-adv-x="555" 
d="M314 573q0 -19 -13 -30.5t-33 -11.5t-35 15t-15 44q0 47 29 76t69 32v-31q-25 -2 -43 -19t-19 -39q6 6 18 6q19 0 30.5 -11.5t11.5 -30.5zM46 -27l57 14q6 -58 48.5 -97.5t104.5 -39.5q164 0 164 184v88q-17 -41 -58.5 -68.5t-102.5 -27.5q-93 0 -153 65.5t-60 165.5
q0 99 59.5 164.5t153.5 65.5q63 0 104 -27t58 -68v85h59v-442q0 -45 -11 -84.5t-35 -75.5t-70 -57t-109 -21q-85 0 -142.5 49.5t-66.5 126.5zM267 78q70 0 113 50.5t43 128.5q0 77 -43 127.5t-113 50.5q-71 0 -115.5 -50t-44.5 -128q0 -79 44.5 -129t115.5 -50z" />
    <glyph glyph-name="Hcircumflex" unicode="&#x124;" horiz-adv-x="720" 
d="M261 759h-59l115 119h82l116 -119h-59l-98 84zM626 0h-63v331h-406v-331h-63v709h63v-319h406v319h63v-709z" />
    <glyph glyph-name="hcircumflex" unicode="&#x125;" horiz-adv-x="540" 
d="M179 763h-59l115 119h82l116 -119h-59l-98 84zM144 287v-287h-60v722h60v-320q20 38 60 62.5t93 24.5q81 0 125 -50.5t44 -127.5v-311h-60v301q0 60 -32.5 97t-96.5 37q-59 0 -95.5 -43.5t-37.5 -104.5z" />
    <glyph glyph-name="Hbar" unicode="&#x126;" horiz-adv-x="729" 
d="M631 0h-64v331h-405v-331h-63v526h-69v48h69v135h63v-135h405v135h64v-135h73v-48h-73v-526zM162 390h405v136h-405v-136z" />
    <glyph glyph-name="hbar" unicode="&#x127;" horiz-adv-x="542" 
d="M146 287v-287h-60v570h-95v50h95v102h60v-102h130v-50h-130v-168q20 38 60 62.5t93 24.5q81 0 125 -50.5t44 -127.5v-311h-60v301q0 60 -32.5 97t-96.5 37q-59 0 -96 -43.5t-37 -104.5z" />
    <glyph glyph-name="Itilde" unicode="&#x128;" horiz-adv-x="252" 
d="M158 0h-64v709h64v-709zM280 872v-11q0 -46 -24 -72.5t-60 -26.5q-35 0 -68 24l-19 15q-25 21 -48 21q-42 0 -42 -56h-46v12q0 45 24 71t61 26q35 0 71 -27l19 -14q28 -19 46 -19q41 0 41 54v3h45z" />
    <glyph glyph-name="itilde" unicode="&#x129;" horiz-adv-x="227" 
d="M143 0h-59v477h59v-477zM266 659v-11q0 -46 -24 -71.5t-61 -25.5q-32 0 -64 23l-19 15q-25 20 -47 20q-40 0 -40 -55h-47v12q0 44 24 69.5t61 25.5q32 0 68 -27l18 -13q25 -18 44 -18q40 0 40 56h47z" />
    <glyph glyph-name="Imacron" unicode="&#x12a;" horiz-adv-x="252" 
d="M158 0h-64v709h64v-709zM262 793h-272v53h272v-53z" />
    <glyph glyph-name="imacron" unicode="&#x12b;" horiz-adv-x="227" 
d="M143 0h-59v477h59v-477zM242 581h-254v52h254v-52z" />
    <glyph glyph-name="Ibreve" unicode="&#x12c;" horiz-adv-x="252" 
d="M158 0h-64v709h64v-709zM127 754q-64 0 -102 37t-42 89h51q3 -32 27 -55t66 -23q43 0 66 23t26 55h51q-3 -52 -41 -89t-102 -37z" />
    <glyph glyph-name="ibreve" unicode="&#x12d;" horiz-adv-x="227" 
d="M143 0h-59v477h59v-477zM114 538q-64 0 -101.5 41.5t-38.5 96.5h47q2 -36 25.5 -62.5t67.5 -26.5t67.5 26.5t25.5 62.5h47q-1 -56 -38 -97t-102 -41z" />
    <glyph glyph-name="Iogonek" unicode="&#x12e;" horiz-adv-x="252" 
d="M23 -117q0 69 73 117h-2v709h64v-709q-83 -43 -83 -106q0 -27 18 -42t44 -15q18 0 35 5v-44q-21 -8 -45 -8q-44 0 -74 25t-30 68z" />
    <glyph glyph-name="iogonek" unicode="&#x12f;" horiz-adv-x="227" 
d="M61 -106q0 -27 18 -42t44 -15q20 0 35 5v-44q-19 -8 -45 -8q-44 0 -74 25t-30 68q0 69 75 118v476h59v-477q-82 -43 -82 -106zM64 674q0 21 14.5 36t34.5 15q21 0 35.5 -15t14.5 -36q0 -20 -14.5 -34t-35.5 -14q-20 0 -34.5 14t-14.5 34z" />
    <glyph glyph-name="Idotaccent" unicode="&#x130;" horiz-adv-x="252" 
d="M158 0h-64v709h64v-709zM78 819q0 19 14 33t34 14t33.5 -14t13.5 -33q0 -20 -14 -34t-33 -14q-20 0 -34 14.5t-14 33.5z" />
    <glyph glyph-name="dotlessi" unicode="&#x131;" horiz-adv-x="227" 
d="M143 0h-59v477h59v-477z" />
    <glyph glyph-name="IJ" unicode="&#x132;" horiz-adv-x="578" 
d="M148 300h-64v409h64v-409zM84 214l64 12v-15q0 -80 37.5 -123t105.5 -43q67 0 103 43t36 120v501h64v-500q0 -98 -54.5 -160t-148.5 -62q-97 0 -152 59t-55 162v6z" />
    <glyph glyph-name="ij" unicode="&#x133;" horiz-adv-x="474" 
d="M143 0h-59v477h59v-477zM64 674q0 21 14.5 36t34.5 15q21 0 35.5 -15t14.5 -36q0 -20 -14.5 -34t-35.5 -14q-20 0 -34.5 14t-14.5 34zM330 -62v539h60v-541q0 -65 -34 -101.5t-92 -36.5q-35 0 -53 9v51q16 -6 41 -6q78 0 78 86zM310 675q0 21 14.5 35.5t34.5 14.5
q21 0 35.5 -14.5t14.5 -35.5q0 -20 -14.5 -34.5t-35.5 -14.5q-20 0 -34.5 14.5t-14.5 34.5z" />
    <glyph glyph-name="Jcircumflex" unicode="&#x134;" horiz-adv-x="518" 
d="M307 759h-59l115 119h82l116 -119h-59l-98 84zM24 208v45l63 15v-57q0 -79 38 -122.5t106 -43.5q67 0 103.5 43.5t36.5 119.5v501h63v-500q0 -99 -54.5 -160.5t-148.5 -61.5q-96 0 -151.5 59.5t-55.5 161.5z" />
    <glyph glyph-name="jcircumflex" unicode="&#x135;" horiz-adv-x="228" 
d="M21 538h-54l110 137h72l110 -137h-54l-92 99zM84 -60v537h60v-539q0 -65 -33 -103t-91 -38q-31 0 -55 8v50q15 -5 39 -5q80 0 80 90z" />
    <glyph glyph-name="Kcommaaccent" unicode="&#x136;" horiz-adv-x="645" 
d="M540 0l-261 349l-122 -130v-219h-63v709h63v-406l376 406h83l-295 -315l299 -394h-80zM299 -84q0 18 13.5 30t31.5 12q20 0 35.5 -15t15.5 -44q0 -49 -28.5 -77.5t-69.5 -30.5v31q25 2 43 18.5t19 39.5q-6 -6 -18 -6q-19 0 -30.5 11.5t-11.5 30.5z" />
    <glyph glyph-name="kcommaaccent" unicode="&#x137;" horiz-adv-x="500" 
d="M476 477l-203 -203l207 -274h-75l-174 233l-88 -87v-146h-59v722h59v-497l250 252h83zM229 -84q0 18 13.5 30t31.5 12q20 0 35.5 -15t15.5 -44q0 -49 -28.5 -77.5t-69.5 -30.5v31q25 2 43 18.5t19 39.5q-6 -6 -18 -6q-19 0 -30.5 11.5t-11.5 30.5z" />
    <glyph glyph-name="kgreenlandic" unicode="&#x138;" horiz-adv-x="497" 
d="M476 477l-203 -203l207 -274h-75l-174 233l-88 -87v-146h-59v477h59v-252l250 252h83z" />
    <glyph glyph-name="Lacute" unicode="&#x139;" horiz-adv-x="550" 
d="M289 878l-133 -119h-58l107 119h84zM515 0h-421v709h63v-650h358v-59z" />
    <glyph glyph-name="lacute" unicode="&#x13a;" horiz-adv-x="228" 
d="M277 882l-133 -119h-58l107 119h84zM144 0h-60v722h60v-722z" />
    <glyph glyph-name="Lcommaaccent" unicode="&#x13b;" horiz-adv-x="550" 
d="M262 -84q0 18 13.5 30t31.5 12q20 0 35.5 -15t15.5 -44q0 -49 -28.5 -77.5t-69.5 -30.5v31q25 2 43 18.5t19 39.5q-6 -6 -18 -6q-19 0 -30.5 11.5t-11.5 30.5zM515 0h-421v709h63v-650h358v-59z" />
    <glyph glyph-name="lcommaaccent" unicode="&#x13c;" horiz-adv-x="228" 
d="M66 -84q0 18 13.5 30t31.5 12q20 0 35.5 -15t15.5 -44q0 -49 -28.5 -77.5t-69.5 -30.5v31q25 2 43 18.5t19 39.5q-6 -6 -18 -6q-19 0 -30.5 11.5t-11.5 30.5zM144 0h-60v722h60v-722z" />
    <glyph glyph-name="Lcaron" unicode="&#x13d;" horiz-adv-x="550" 
d="M386 759l-62 -186h-47l38 186h71zM515 0h-421v709h63v-650h358v-59z" />
    <glyph glyph-name="lcaron" unicode="&#x13e;" horiz-adv-x="228" 
d="M296 721l-58 -176h-46l36 176h68zM144 0h-60v722h60v-722z" />
    <glyph glyph-name="Ldot" unicode="&#x13f;" horiz-adv-x="550" 
d="M320 376q0 20 14 33.5t33 13.5t33 -13.5t14 -33.5t-14 -33.5t-33 -13.5t-33 13.5t-14 33.5zM515 0h-421v709h63v-650h358v-59z" />
    <glyph glyph-name="ldot" unicode="&#x140;" horiz-adv-x="270" 
d="M144 0h-60v722h60v-722zM200 324q0 20 14 33.5t33 13.5t33 -13.5t14 -33.5t-14 -33.5t-33 -13.5t-33 13.5t-14 33.5z" />
    <glyph glyph-name="Lslash" unicode="&#x141;" horiz-adv-x="563" 
d="M528 0h-421v303l-99 -44v56l99 44v350h64v-322l162 72v-56l-162 -72v-272h357v-59z" />
    <glyph glyph-name="lslash" unicode="&#x142;" horiz-adv-x="253" 
d="M155 0h-60v295l-95 -42v56l95 42v371h60v-345l107 47v-56l-107 -47v-321z" />
    <glyph glyph-name="Nacute" unicode="&#x143;" horiz-adv-x="747" 
d="M506 878l-133 -119h-58l107 119h84zM653 0h-67l-429 630v-630h-63v709h87l409 -605v605h63v-709z" />
    <glyph glyph-name="nacute" unicode="&#x144;" horiz-adv-x="540" 
d="M400 676l-118 -139h-49l89 139h78zM144 285v-285h-60v477h58v-81q20 42 61 67.5t94 25.5q81 0 125 -50.5t44 -127.5v-311h-60v301q0 60 -32.5 97t-96.5 37q-59 0 -96 -44t-37 -106z" />
    <glyph glyph-name="Ncommaaccent" unicode="&#x145;" horiz-adv-x="747" 
d="M338 -84q0 18 13.5 30t31.5 12q20 0 35.5 -15t15.5 -44q0 -49 -28.5 -77.5t-69.5 -30.5v31q25 2 43 18.5t19 39.5q-6 -6 -18 -6q-19 0 -30.5 11.5t-11.5 30.5zM653 0h-67l-429 630v-630h-63v709h87l409 -605v605h63v-709z" />
    <glyph glyph-name="ncommaaccent" unicode="&#x146;" horiz-adv-x="540" 
d="M234 -84q0 18 13.5 30t31.5 12q20 0 35.5 -15t15.5 -44q0 -49 -28.5 -77.5t-69.5 -30.5v31q25 2 43 18.5t19 39.5q-6 -6 -18 -6q-19 0 -30.5 11.5t-11.5 30.5zM144 285v-285h-60v477h58v-81q20 42 61 67.5t94 25.5q81 0 125 -50.5t44 -127.5v-311h-60v301q0 60 -32.5 97
t-96.5 37q-59 0 -96 -44t-37 -106z" />
    <glyph glyph-name="Ncaron" unicode="&#x147;" horiz-adv-x="747" 
d="M219 878h59l97 -84l98 84h59l-116 -119h-82zM653 0h-67l-429 630v-630h-63v709h87l409 -605v605h63v-709z" />
    <glyph glyph-name="ncaron" unicode="&#x148;" horiz-adv-x="540" 
d="M121 676h55l91 -100l91 100h55l-109 -138h-74zM144 285v-285h-60v477h58v-81q20 42 61 67.5t94 25.5q81 0 125 -50.5t44 -127.5v-311h-60v301q0 60 -32.5 97t-96.5 37q-59 0 -96 -44t-37 -106z" />
    <glyph glyph-name="napostrophe" unicode="&#x149;" horiz-adv-x="549" 
d="M83 650q0 18 13.5 29.5t32.5 11.5q20 0 35.5 -15t15.5 -44q0 -48 -29 -76.5t-70 -30.5v30q25 2 43 18.5t20 39.5q-9 -6 -19 -6q-18 0 -30 12t-12 31zM153 285v-285h-60v477h58v-81q20 42 61 67.5t94 25.5q81 0 125 -50.5t44 -127.5v-311h-60v301q0 60 -32.5 97t-96.5 37
q-59 0 -96 -44t-37 -106z" />
    <glyph glyph-name="Eng" unicode="&#x14a;" horiz-adv-x="747" 
d="M524 -144q66 0 66 72v64l-433 634v-626h-63v709h84l412 -606v606h63v-782q0 -56 -30.5 -90.5t-82.5 -34.5q-38 0 -56 8v51q17 -5 40 -5z" />
    <glyph glyph-name="eng" unicode="&#x14b;" horiz-adv-x="540" 
d="M144 285v-285h-60v477h58v-81q20 42 61 67.5t94 25.5q81 0 125 -50.5t44 -127.5v-390q0 -56 -30 -90t-82 -34q-36 0 -56 8v50q25 -5 41 -5q67 0 67 74v377q0 60 -32.5 97t-96.5 37q-59 0 -96 -44t-37 -106z" />
    <glyph glyph-name="Omacron" unicode="&#x14c;" horiz-adv-x="784" 
d="M528 793h-271v53h271v-53zM110 354q0 -144 83 -226.5t199 -82.5t199.5 82.5t83.5 226.5q0 145 -83.5 227.5t-199.5 82.5t-199 -82.5t-83 -227.5zM46 354q0 114 51 199.5t128.5 127t166.5 41.5t167 -41.5t129 -127t51 -199.5q0 -86 -29.5 -157t-79 -116t-111 -69.5
t-127.5 -24.5q-89 0 -166.5 41t-128.5 126.5t-51 199.5z" />
    <glyph glyph-name="omacron" unicode="&#x14d;" horiz-adv-x="557" 
d="M407 581h-254v52h254v-52zM278 41q73 0 123.5 53.5t50.5 143.5q0 91 -50 144t-124 53q-73 0 -123 -53.5t-50 -143.5t50 -143.5t123 -53.5zM278 490q100 0 167.5 -70.5t67.5 -181.5q0 -110 -67.5 -180.5t-167.5 -70.5q-99 0 -166.5 70.5t-67.5 180.5q0 111 66.5 181.5
t167.5 70.5z" />
    <glyph glyph-name="Obreve" unicode="&#x14e;" horiz-adv-x="784" 
d="M395 754q-64 0 -102 37t-42 89h51q3 -32 27 -55t66 -23q43 0 66 23t26 55h51q-3 -52 -41 -89t-102 -37zM110 354q0 -144 83 -226.5t199 -82.5t199.5 82.5t83.5 226.5q0 145 -83.5 227.5t-199.5 82.5t-199 -82.5t-83 -227.5zM46 354q0 114 51 199.5t128.5 127t166.5 41.5
t167 -41.5t129 -127t51 -199.5q0 -86 -29.5 -157t-79 -116t-111 -69.5t-127.5 -24.5q-89 0 -166.5 41t-128.5 126.5t-51 199.5z" />
    <glyph glyph-name="obreve" unicode="&#x14f;" horiz-adv-x="557" 
d="M278 41q73 0 123.5 53.5t50.5 143.5q0 91 -50 144t-124 53q-73 0 -123 -53.5t-50 -143.5t50 -143.5t123 -53.5zM278 490q100 0 167.5 -70.5t67.5 -181.5q0 -110 -67.5 -180.5t-167.5 -70.5q-99 0 -166.5 70.5t-67.5 180.5q0 111 66.5 181.5t167.5 70.5zM278 538
q-64 0 -101.5 41.5t-38.5 96.5h47q2 -36 25.5 -62.5t67.5 -26.5t67.5 26.5t25.5 62.5h47q-1 -56 -38 -97t-102 -41z" />
    <glyph glyph-name="Ohungarumlaut" unicode="&#x150;" horiz-adv-x="784" 
d="M436 878l-88 -119h-44l65 119h67zM567 878l-104 -119h-45l81 119h68zM110 354q0 -144 83 -226.5t199 -82.5t199.5 82.5t83.5 226.5q0 145 -83.5 227.5t-199.5 82.5t-199 -82.5t-83 -227.5zM46 354q0 114 51 199.5t128.5 127t166.5 41.5t167 -41.5t129 -127t51 -199.5
q0 -86 -29.5 -157t-79 -116t-111 -69.5t-127.5 -24.5q-89 0 -166.5 41t-128.5 126.5t-51 199.5z" />
    <glyph glyph-name="ohungarumlaut" unicode="&#x151;" horiz-adv-x="557" 
d="M330 676l-86 -139h-44l63 139h67zM449 676l-98 -139h-44l75 139h67zM278 41q73 0 123.5 53.5t50.5 143.5q0 91 -50 144t-124 53q-73 0 -123 -53.5t-50 -143.5t50 -143.5t123 -53.5zM278 490q100 0 167.5 -70.5t67.5 -181.5q0 -110 -67.5 -180.5t-167.5 -70.5
q-99 0 -166.5 70.5t-67.5 180.5q0 111 66.5 181.5t167.5 70.5z" />
    <glyph glyph-name="OE" unicode="&#x152;" horiz-adv-x="1154" 
d="M110 354q0 -144 84 -226.5t200 -82.5t200 82.5t84 226.5q0 145 -84 227.5t-200 82.5t-200 -82.5t-84 -227.5zM1096 0h-418v144q-46 -77 -122 -117t-162 -40q-89 0 -167 41t-129.5 127t-51.5 199q0 114 51.5 199.5t129.5 127t167 41.5q85 0 161.5 -41t122.5 -117v145h418
v-58h-355v-267h324v-58h-324v-268h355v-58z" />
    <glyph glyph-name="oe" unicode="&#x153;" horiz-adv-x="944" 
d="M281 41q74 0 125 53.5t51 143.5t-51 144t-125 54t-125 -54t-51 -144t51 -143.5t125 -53.5zM521 277h316q-1 69 -43 114t-115 45q-65 0 -109 -46t-49 -113zM846 155l52 -18q-21 -65 -76.5 -107.5t-132.5 -42.5q-66 0 -120 33.5t-82 94.5q-29 -61 -83.5 -94.5t-122.5 -33.5
q-101 0 -169 70.5t-68 180.5q0 111 67.5 181.5t169.5 70.5q67 0 122 -34t84 -93q27 59 78.5 93t112.5 34q104 0 163 -66.5t59 -174.5q0 -14 -1 -22h-380v-4q0 -81 49 -132t121 -51q60 0 100 32t57 83z" />
    <glyph glyph-name="Racute" unicode="&#x154;" horiz-adv-x="605" 
d="M440 878l-133 -119h-58l107 119h84zM477 0l-171 306h-148v-306h-64v709h248q94 0 152.5 -57.5t58.5 -144.5q0 -78 -48.5 -132t-129.5 -64l176 -311h-74zM158 364h173q71 0 114 39.5t43 103.5q0 65 -43 105t-114 40h-173v-288z" />
    <glyph glyph-name="racute" unicode="&#x155;" horiz-adv-x="352" 
d="M321 676l-118 -139h-49l89 139h78zM327 478v-63q-18 5 -42 5q-63 0 -102 -41t-39 -120v-259h-60v477h58v-89q43 95 148 95q24 0 37 -5z" />
    <glyph glyph-name="Rcommaaccent" unicode="&#x156;" horiz-adv-x="605" 
d="M477 0l-171 306h-148v-306h-64v709h248q94 0 152.5 -57.5t58.5 -144.5q0 -78 -48.5 -132t-129.5 -64l176 -311h-74zM158 364h173q71 0 114 39.5t43 103.5q0 65 -43 105t-114 40h-173v-288zM277 -84q0 18 13.5 30t31.5 12q20 0 35.5 -15t15.5 -44q0 -49 -28.5 -77.5
t-69.5 -30.5v31q25 2 43 18.5t19 39.5q-6 -6 -18 -6q-19 0 -30.5 11.5t-11.5 30.5z" />
    <glyph glyph-name="rcommaaccent" unicode="&#x157;" horiz-adv-x="352" 
d="M327 478v-63q-18 5 -42 5q-63 0 -102 -41t-39 -120v-259h-60v477h58v-89q43 95 148 95q24 0 37 -5zM66 -84q0 18 13.5 30t31.5 12q20 0 35.5 -15t15.5 -44q0 -49 -28.5 -77.5t-69.5 -30.5v31q25 2 43 18.5t19 39.5q-6 -6 -18 -6q-19 0 -30.5 11.5t-11.5 30.5z" />
    <glyph glyph-name="Rcaron" unicode="&#x158;" horiz-adv-x="605" 
d="M138 878h59l97 -84l98 84h59l-116 -119h-82zM477 0l-171 306h-148v-306h-64v709h248q94 0 152.5 -57.5t58.5 -144.5q0 -78 -48.5 -132t-129.5 -64l176 -311h-74zM158 364h173q71 0 114 39.5t43 103.5q0 65 -43 105t-114 40h-173v-288z" />
    <glyph glyph-name="rcaron" unicode="&#x159;" horiz-adv-x="352" 
d="M56 676h55l91 -100l91 100h55l-109 -138h-74zM327 478v-63q-18 5 -42 5q-63 0 -102 -41t-39 -120v-259h-60v477h58v-89q43 95 148 95q24 0 37 -5z" />
    <glyph glyph-name="Sacute" unicode="&#x15a;" horiz-adv-x="575" 
d="M448 878l-133 -119h-58l107 119h84zM522 548l-56 -20q-12 60 -55.5 99t-117.5 39q-66 0 -114 -39.5t-48 -100.5q0 -48 29 -80t83 -45l108 -25q84 -20 131 -68.5t47 -121.5q0 -84 -65 -141.5t-170 -57.5q-111 0 -177.5 61.5t-76.5 149.5l59 19q7 -73 59 -123t136 -50
q80 0 126 38.5t46 98.5q0 49 -33 84t-94 49l-107 25q-75 17 -119.5 63.5t-44.5 119.5q0 82 67 141t156 59q101 0 157.5 -49t73.5 -125z" />
    <glyph glyph-name="sacute" unicode="&#x15b;" horiz-adv-x="437" 
d="M354 676l-118 -139h-49l89 139h78zM39 127l55 19q7 -48 41 -77.5t90 -29.5q47 0 77 24t30 61q0 63 -81 81l-80 18q-53 13 -84 45t-31 82q0 58 47.5 99t113.5 41q76 0 117 -37.5t53 -89.5l-53 -20q-8 40 -36.5 67.5t-80.5 27.5q-42 0 -72 -23.5t-30 -60.5q0 -59 73 -76
l79 -17q60 -14 92 -48t32 -85q0 -57 -45.5 -99t-121.5 -42q-81 0 -129 41.5t-56 98.5z" />
    <glyph glyph-name="Scircumflex" unicode="&#x15c;" horiz-adv-x="575" 
d="M207 759h-59l115 119h82l116 -119h-59l-98 84zM522 548l-56 -20q-12 60 -55.5 99t-117.5 39q-66 0 -114 -39.5t-48 -100.5q0 -48 29 -80t83 -45l108 -25q84 -20 131 -68.5t47 -121.5q0 -84 -65 -141.5t-170 -57.5q-111 0 -177.5 61.5t-76.5 149.5l59 19q7 -73 59 -123
t136 -50q80 0 126 38.5t46 98.5q0 49 -33 84t-94 49l-107 25q-75 17 -119.5 63.5t-44.5 119.5q0 82 67 141t156 59q101 0 157.5 -49t73.5 -125z" />
    <glyph glyph-name="scircumflex" unicode="&#x15d;" horiz-adv-x="437" 
d="M135 538h-54l110 137h72l110 -137h-54l-92 99zM39 127l55 19q7 -48 41 -77.5t90 -29.5q47 0 77 24t30 61q0 63 -81 81l-80 18q-53 13 -84 45t-31 82q0 58 47.5 99t113.5 41q76 0 117 -37.5t53 -89.5l-53 -20q-8 40 -36.5 67.5t-80.5 27.5q-42 0 -72 -23.5t-30 -60.5
q0 -59 73 -76l79 -17q60 -14 92 -48t32 -85q0 -57 -45.5 -99t-121.5 -42q-81 0 -129 41.5t-56 98.5z" />
    <glyph glyph-name="Scedilla" unicode="&#x15e;" horiz-adv-x="575" 
d="M522 548l-56 -20q-12 60 -55.5 99t-117.5 39q-65 0 -113.5 -40t-48.5 -100q0 -48 29 -80t83 -45l108 -25q84 -20 131 -68.5t47 -121.5q0 -76 -55 -131.5t-145 -65.5l-30 -46q8 5 21 5q41 0 66.5 -21t25.5 -55q0 -36 -28.5 -59t-80.5 -23q-69 0 -107 47l27 32
q33 -39 80 -39q28 0 44.5 11t16.5 31q0 41 -57 41q-21 0 -36 -8l-24 29l35 53q-105 4 -168.5 65t-73.5 147l59 19q7 -73 59 -123.5t136 -50.5q80 0 126 38.5t46 98.5q0 49 -33.5 84t-93.5 49l-107 25q-75 17 -119.5 63.5t-44.5 119.5q0 82 67 141t156 59q101 0 157.5 -49
t73.5 -125z" />
    <glyph glyph-name="scedilla" unicode="&#x15f;" horiz-adv-x="437" 
d="M39 128l55 19q7 -48 41 -78t90 -30q47 0 77 24t30 61q0 63 -81 81l-80 18q-53 12 -84 45t-31 82q0 58 47.5 99t113.5 41q76 0 117 -37.5t53 -89.5l-53 -20q-8 40 -36.5 67.5t-80.5 27.5q-42 0 -72 -23.5t-30 -60.5q0 -59 73 -76l79 -17q60 -14 92 -48t32 -85t-38 -91.5
t-103 -48.5l-30 -45q10 5 22 5q41 0 66.5 -21t25.5 -55q0 -36 -28.5 -59t-80.5 -23q-70 0 -108 47l27 32q32 -39 80 -39q62 0 62 42q0 41 -57 41q-21 0 -37 -8l-23 29l35 54q-72 5 -115 46t-50 94z" />
    <glyph glyph-name="Scaron" unicode="&#x160;" horiz-adv-x="575" 
d="M139 878h59l97 -84l98 84h59l-116 -119h-82zM522 548l-56 -20q-12 60 -55.5 99t-117.5 39q-66 0 -114 -39.5t-48 -100.5q0 -48 29 -80t83 -45l108 -25q84 -20 131 -68.5t47 -121.5q0 -84 -65 -141.5t-170 -57.5q-111 0 -177.5 61.5t-76.5 149.5l59 19q7 -73 59 -123
t136 -50q80 0 126 38.5t46 98.5q0 49 -33 84t-94 49l-107 25q-75 17 -119.5 63.5t-44.5 119.5q0 82 67 141t156 59q101 0 157.5 -49t73.5 -125z" />
    <glyph glyph-name="scaron" unicode="&#x161;" horiz-adv-x="437" 
d="M75 676h55l91 -100l91 100h55l-109 -138h-74zM39 127l55 19q7 -48 41 -77.5t90 -29.5q47 0 77 24t30 61q0 63 -81 81l-80 18q-53 13 -84 45t-31 82q0 58 47.5 99t113.5 41q76 0 117 -37.5t53 -89.5l-53 -20q-8 40 -36.5 67.5t-80.5 27.5q-42 0 -72 -23.5t-30 -60.5
q0 -59 73 -76l79 -17q60 -14 92 -48t32 -85q0 -57 -45.5 -99t-121.5 -42q-81 0 -129 41.5t-56 98.5z" />
    <glyph glyph-name="Tcommaaccent" unicode="&#x162;" horiz-adv-x="621" 
d="M588 651h-251v-643h2l-2 -3v-5h-4l-38 -57q10 5 22 5q41 0 66 -21t25 -55q0 -36 -28.5 -59t-79.5 -23q-70 0 -108 47l27 32q33 -39 80 -39q62 0 62 42q0 41 -57 41q-21 0 -37 -8l-24 29l43 66h-13v651h-250v58h565v-58z" />
    <glyph glyph-name="tcommaaccent" unicode="&#x163;" horiz-adv-x="342" 
d="M175 628v-151h124v-55h-124v-287q0 -86 81 -86q27 0 43 7v-52q-15 -8 -53 -9l-35 -52q10 5 22 5q41 0 66 -21t25 -55q0 -36 -28.5 -59t-79.5 -23q-70 0 -108 47l27 32q33 -39 80 -39q62 0 62 42q0 41 -57 41q-21 0 -37 -8l-24 29l42 66q-86 21 -86 129v293h-101v55h36
q70 0 70 70v81h55z" />
    <glyph glyph-name="Tcaron" unicode="&#x164;" horiz-adv-x="610" 
d="M148 878h59l97 -84l98 84h59l-116 -119h-82zM588 651h-251v-651h-64v651h-250v58h565v-58z" />
    <glyph glyph-name="tcaron" unicode="&#x165;" horiz-adv-x="342" 
d="M348 730l-58 -176h-46l36 176h68zM175 628v-151h124v-55h-124v-287q0 -86 81 -86q27 0 43 7v-52q-18 -9 -59 -9q-59 0 -92 35t-33 99v293h-101v55h36q70 0 70 70v81h55z" />
    <glyph glyph-name="Tbar" unicode="&#x166;" horiz-adv-x="610" 
d="M588 651h-251v-280h126v-53h-126v-318h-64v318h-125v53h125v280h-251v58h566v-58z" />
    <glyph glyph-name="tbar" unicode="&#x167;" horiz-adv-x="342" 
d="M256 49q27 0 43 7v-52q-20 -9 -60 -9q-58 0 -91 35t-33 99v98h-93v51h93v144h-102v55h37q70 0 70 70v81h55v-151h124v-55h-124v-144h133v-51h-133v-92q0 -86 81 -86z" />
    <glyph glyph-name="Utilde" unicode="&#x168;" horiz-adv-x="654" 
d="M482 872v-11q0 -46 -24 -72.5t-60 -26.5q-35 0 -68 24l-19 15q-25 21 -48 21q-42 0 -42 -56h-46v12q0 45 24 71t61 26q35 0 71 -27l19 -14q28 -19 46 -19q41 0 41 54v3h45zM327 -13q-111 0 -177 65t-66 184v473h63v-470q0 -94 46 -144t134 -50t134 50t46 144v470h63v-473
q0 -119 -66 -184t-177 -65z" />
    <glyph glyph-name="utilde" unicode="&#x169;" horiz-adv-x="543" 
d="M404 74q-18 -37 -57.5 -62t-92.5 -25q-86 0 -132 54.5t-46 135.5v300h60v-291q0 -63 31.5 -104.5t97.5 -41.5q62 0 98.5 41.5t36.5 103.5v292h60v-386q0 -49 6 -91h-57q-5 25 -5 67v7zM419 659v-11q0 -46 -24 -71.5t-61 -25.5q-32 0 -64 23l-19 15q-25 20 -47 20
q-40 0 -40 -55h-47v12q0 44 24 69.5t61 25.5q32 0 68 -27l18 -13q25 -18 44 -18q40 0 40 56h47z" />
    <glyph glyph-name="Umacron" unicode="&#x16a;" horiz-adv-x="654" 
d="M327 -13q-111 0 -177 65t-66 184v473h63v-470q0 -94 46 -144t134 -50t134 50t46 144v470h63v-473q0 -119 -66 -184t-177 -65zM464 793h-272v53h272v-53z" />
    <glyph glyph-name="umacron" unicode="&#x16b;" horiz-adv-x="543" 
d="M395 581h-254v52h254v-52zM404 74q-18 -37 -57.5 -62t-92.5 -25q-86 0 -132 54.5t-46 135.5v300h60v-291q0 -63 31.5 -104.5t97.5 -41.5q62 0 98.5 41.5t36.5 103.5v292h60v-386q0 -49 6 -91h-57q-5 25 -5 67v7z" />
    <glyph glyph-name="Ubreve" unicode="&#x16c;" horiz-adv-x="654" 
d="M329 754q-64 0 -102 37t-42 89h51q3 -32 27 -55t66 -23q43 0 66 23t26 55h51q-3 -52 -41 -89t-102 -37zM327 -13q-111 0 -177 65t-66 184v473h63v-470q0 -94 46 -144t134 -50t134 50t46 144v470h63v-473q0 -119 -66 -184t-177 -65z" />
    <glyph glyph-name="ubreve" unicode="&#x16d;" horiz-adv-x="543" 
d="M404 74q-18 -37 -57.5 -62t-92.5 -25q-86 0 -132 54.5t-46 135.5v300h60v-291q0 -63 31.5 -104.5t97.5 -41.5q62 0 98.5 41.5t36.5 103.5v292h60v-386q0 -49 6 -91h-57q-5 25 -5 67v7zM269 538q-64 0 -101.5 41.5t-38.5 96.5h47q2 -36 25.5 -62.5t67.5 -26.5t67.5 26.5
t25.5 62.5h47q-1 -56 -38 -97t-102 -41z" />
    <glyph glyph-name="Uring" unicode="&#x16e;" horiz-adv-x="654" 
d="M327 -13q-111 0 -177 65t-66 184v473h63v-470q0 -94 46 -144t134 -50t134 50t46 144v470h63v-473q0 -119 -66 -184t-177 -65zM429 845q0 -42 -29.5 -71t-71.5 -29q-41 0 -70.5 29t-29.5 71q0 43 29.5 72.5t70.5 29.5q42 0 71.5 -29.5t29.5 -72.5zM384 845q0 25 -16 42
t-40 17t-40 -17t-16 -42q0 -24 16 -40.5t40 -16.5t40 16.5t16 40.5z" />
    <glyph glyph-name="uring" unicode="&#x16f;" horiz-adv-x="543" 
d="M372 635q0 -43 -31 -74t-74 -31t-74 31t-31 74t31 74t74 31t74 -31t31 -74zM328 635q0 26 -17.5 44.5t-43.5 18.5t-43.5 -18.5t-17.5 -44.5t17.5 -44.5t43.5 -18.5t43.5 18.5t17.5 44.5zM404 74q-18 -37 -57.5 -62t-92.5 -25q-86 0 -132 54.5t-46 135.5v300h60v-291
q0 -63 31.5 -104.5t97.5 -41.5q62 0 98.5 41.5t36.5 103.5v292h60v-386q0 -49 6 -91h-57q-5 25 -5 67v7z" />
    <glyph glyph-name="Uhungarumlaut" unicode="&#x170;" horiz-adv-x="654" 
d="M364 878l-88 -119h-44l65 119h67zM495 878l-104 -119h-45l81 119h68zM327 -13q-111 0 -177 65t-66 184v473h63v-470q0 -94 46 -144t134 -50t134 50t46 144v470h63v-473q0 -119 -66 -184t-177 -65z" />
    <glyph glyph-name="uhungarumlaut" unicode="&#x171;" horiz-adv-x="543" 
d="M306 676l-86 -139h-44l63 139h67zM425 676l-99 -139h-43l74 139h68zM404 74q-18 -37 -57.5 -62t-92.5 -25q-86 0 -132 54.5t-46 135.5v300h60v-291q0 -63 31.5 -104.5t97.5 -41.5q62 0 98.5 41.5t36.5 103.5v292h60v-386q0 -49 6 -91h-57q-5 25 -5 67v7z" />
    <glyph glyph-name="Uogonek" unicode="&#x172;" horiz-adv-x="654" 
d="M269 -117q0 61 56 104h-5q-107 2 -171.5 67t-64.5 182v473h63v-470q0 -94 46 -144t134 -50t134 50t46 144v470h63v-473q0 -98 -45 -159.5t-125 -80.5q-8 -2 -12 -6q-67 -43 -67 -96q0 -27 18 -42t44 -15q20 0 35 5v-44q-21 -8 -45 -8q-44 0 -74 25t-30 68z" />
    <glyph glyph-name="uogonek" unicode="&#x173;" horiz-adv-x="543" 
d="M332 -117q0 71 77 119q-5 28 -5 65v7q-18 -37 -57.5 -62t-92.5 -25q-86 0 -132 54.5t-46 135.5v300h60v-291q0 -63 31.5 -104.5t97.5 -41.5q62 0 98.5 41.5t36.5 103.5v292h60v-386q0 -49 6 -91q-83 -43 -83 -106q0 -27 18 -42t45 -15q19 0 34 5v-44q-19 -8 -45 -8
q-44 0 -73.5 25t-29.5 68z" />
    <glyph glyph-name="Wcircumflex" unicode="&#x174;" horiz-adv-x="984" 
d="M394 759h-59l115 119h82l116 -119h-59l-98 84zM724 89l174 620h65l-204 -709h-69l-198 626l-198 -626h-66l-207 709h66l176 -616l195 616h69z" />
    <glyph glyph-name="wcircumflex" unicode="&#x175;" horiz-adv-x="768" 
d="M292 538h-54l110 137h72l110 -137h-54l-92 99zM354 477h64l142 -403l127 403h63l-158 -477h-64l-144 404l-142 -404h-65l-159 477h66l128 -403z" />
    <glyph glyph-name="Ycircumflex" unicode="&#x176;" horiz-adv-x="597" 
d="M268 303l-249 406h76l206 -347l205 347h72l-248 -406v-303h-62v303zM201 759h-59l115 119h82l116 -119h-59l-98 84z" />
    <glyph glyph-name="ycircumflex" unicode="&#x177;" horiz-adv-x="488" 
d="M150 538h-54l110 137h72l110 -137h-54l-92 99zM163 -194h-65l120 256l-205 415h68l169 -353l158 353h64z" />
    <glyph glyph-name="Ydieresis" unicode="&#x178;" horiz-adv-x="597" 
d="M155 819q0 18 12.5 30.5t29.5 12.5q18 0 30.5 -12.5t12.5 -30.5t-12.5 -30.5t-30.5 -12.5q-17 0 -29.5 12.5t-12.5 30.5zM357 819q0 18 12.5 30.5t30.5 12.5t30.5 -12.5t12.5 -30.5t-12.5 -30.5t-30.5 -12.5t-30.5 12.5t-12.5 30.5zM268 303l-249 406h76l206 -347
l205 347h72l-248 -406v-303h-62v303z" />
    <glyph glyph-name="Zacute" unicode="&#x179;" horiz-adv-x="620" 
d="M456 878l-133 -119h-58l107 119h84zM589 0h-543v65l466 586h-460v58h534v-63l-467 -587h470v-59z" />
    <glyph glyph-name="zacute" unicode="&#x17a;" horiz-adv-x="447" 
d="M343 676l-118 -139h-49l89 139h78zM413 0h-379v53l301 369h-298v55h371v-53l-300 -370h305v-54z" />
    <glyph glyph-name="Zdotaccent" unicode="&#x17b;" horiz-adv-x="620" 
d="M589 0h-543v65l466 586h-460v58h534v-63l-467 -587h470v-59zM273 819q0 19 14 33t34 14q19 0 33 -14t14 -33q0 -20 -14 -34t-33 -14t-33.5 14.5t-14.5 33.5z" />
    <glyph glyph-name="zdotaccent" unicode="&#x17c;" horiz-adv-x="447" 
d="M413 0h-379v53l301 369h-298v55h371v-53l-300 -370h305v-54zM170 607q0 19 14 33t33 14t33 -14t14 -33t-14 -33t-33 -14t-33 14t-14 33z" />
    <glyph glyph-name="Zcaron" unicode="&#x17d;" horiz-adv-x="620" 
d="M167 878h59l97 -84l98 84h59l-116 -119h-82zM589 0h-543v65l466 586h-460v58h534v-63l-467 -587h470v-59z" />
    <glyph glyph-name="zcaron" unicode="&#x17e;" horiz-adv-x="447" 
d="M70 676h55l91 -100l91 100h55l-109 -138h-74zM413 0h-379v53l301 369h-298v55h371v-53l-300 -370h305v-54z" />
    <glyph glyph-name="uni018F" unicode="&#x18f;" horiz-adv-x="780" 
d="M385 722q148 0 249 -98t101 -269t-102 -269.5t-243 -98.5q-142 0 -243 98t-101 260v14h624q-3 145 -85 225t-200 80q-94 0 -168.5 -53t-100.5 -138l-57 20q32 102 122.5 165.5t203.5 63.5zM596 141q61 64 71 162h-557q7 -96 68 -157q35 -49 91 -75t121 -26q130 0 206 96z
" />
    <glyph glyph-name="florin" unicode="&#x192;" horiz-adv-x="475" 
d="M136 11l82 412h-117v54h128l23 113q14 69 56 104t98 35q32 0 64 -9v-54q-31 7 -52 7q-86 0 -107 -103l-20 -93h133v-54h-143l-86 -432q-14 -69 -56 -104t-98 -35q-34 0 -65 9v54q31 -7 53 -7q86 0 107 103z" />
    <glyph glyph-name="uni01B5" unicode="&#x1b5;" horiz-adv-x="633" 
d="M595 0h-543v65l222 278h-168v54h211l201 254h-459v58h533v-63l-198 -249h152v-54h-195l-226 -284h470v-59z" />
    <glyph glyph-name="uni01B6" unicode="&#x1b6;" horiz-adv-x="458" 
d="M418 0h-379v53l141 172h-134v49h174l120 148h-298v55h372v-53l-122 -150h106v-49h-146l-139 -171h305v-54z" />
    <glyph glyph-name="Aringacute" unicode="&#x1fa;" horiz-adv-x="689" 
d="M343 646l-146 -369h293zM399 767q0 25 -16 41.5t-41 16.5q-23 0 -39 -16.5t-16 -41.5t16 -41t39 -16q25 0 41 16t16 41zM501 1014l-129 -112h-56l103 112h82zM444 767q0 -59 -51 -86l276 -681h-68l-88 219h-339l-87 -219h-68l276 680q-52 29 -52 87q0 43 29.5 72t70.5 29
q42 0 71.5 -29.5t29.5 -71.5z" />
    <glyph glyph-name="aringacute.ss02" unicode="&#x1fb;" horiz-adv-x="570" 
d="M413 908l-118 -139h-49l89 139h78zM375 631q0 -43 -30.5 -74t-74.5 -31q-43 0 -74 31t-31 74t31 74t74 31q44 0 74.5 -31t30.5 -74zM331 631q0 26 -17.5 44.5t-43.5 18.5t-43.5 -18.5t-17.5 -44.5t17.5 -44.5t43.5 -18.5t43.5 18.5t17.5 44.5zM105 240q0 -86 45 -142.5
t119 -56.5q73 0 117.5 56.5t44.5 142.5q0 85 -44.5 140.5t-116.5 55.5q-74 0 -119.5 -55t-45.5 -141zM431 75v19q-19 -43 -61 -74.5t-106 -31.5q-99 0 -159.5 71.5t-60.5 180.5q0 107 61 178t159 71q68 0 108.5 -31t57.5 -71v90h60v-386q0 -66 5 -91h-59q-5 30 -5 75z" />
    <glyph glyph-name="AEacute" unicode="&#x1fc;" horiz-adv-x="993" 
d="M707 878l-133 -119h-58l107 119h84zM935 0h-418v212h-288l-138 -212h-80l472 709h452v-58h-355v-267h324v-58h-324v-268h355v-58zM266 268h251v385z" />
    <glyph glyph-name="aeacute" unicode="&#x1fd;" horiz-adv-x="863" 
d="M569 676l-118 -139h-49l89 139h78zM765 155l52 -18q-21 -65 -77 -107.5t-132 -42.5q-65 0 -118.5 32t-83.5 91q-22 -54 -70.5 -88t-123.5 -34q-74 0 -117.5 40t-43.5 95q0 59 38 94.5t106 46.5l130 19q51 8 51 47q0 48 -32.5 78t-89.5 30t-93.5 -30t-42.5 -81l-57 12
q8 69 62.5 110t129.5 41q63 0 106 -27t60 -74q30 48 77 74.5t101 26.5q104 0 162.5 -66.5t59.5 -174.5q0 -14 -1 -22h-381v-4q1 -81 50 -132t121 -51q60 0 100 32t57 83zM219 39q66 0 111.5 41.5t45.5 111.5v60q-8 -9 -61 -18l-114 -17q-41 -6 -64.5 -29.5t-23.5 -61.5
q0 -36 28 -61.5t78 -25.5zM440 277h316q-1 69 -43.5 114t-114.5 45q-65 0 -109 -46t-49 -113z" />
    <glyph glyph-name="Oslashacute" unicode="&#x1fe;" horiz-adv-x="784" 
d="M46 354q0 114 51 199.5t128.5 127t166.5 41.5q118 0 206 -69l75 96l43 -32l-77 -99q100 -102 100 -264q0 -86 -29.5 -157t-79 -116t-111 -69.5t-127.5 -24.5q-109 0 -196 60l-70 -90l-43 32l71 92q-108 103 -108 273zM110 354q0 -139 81 -225l371 478q-74 57 -170 57
q-116 0 -199 -82.5t-83 -227.5zM675 354q0 130 -73 216l-370 -476q70 -49 160 -49q116 0 199.5 82.5t83.5 226.5zM552 878l-133 -119h-58l107 119h84z" />
    <glyph glyph-name="oslashacute" unicode="&#x1ff;" horiz-adv-x="557" 
d="M278 490q74 0 135 -43l55 71l39 -31l-57 -73q63 -69 63 -176q0 -110 -67.5 -180.5t-167.5 -70.5q-73 0 -130 40l-53 -68l-38 31l53 69q-66 69 -66 179q0 111 66.5 181.5t167.5 70.5zM105 238q0 -78 42 -133l231 297q-44 33 -100 33q-73 0 -123 -53.5t-50 -143.5zM278 41
q73 0 123.5 53.5t50.5 143.5q0 77 -39 129l-230 -296q42 -30 95 -30zM417 676l-118 -139h-49l89 139h78z" />
    <glyph glyph-name="Scommaaccent" unicode="&#x218;" horiz-adv-x="575" 
d="M522 548l-56 -20q-12 60 -55.5 99t-117.5 39q-66 0 -114 -39.5t-48 -100.5q0 -48 29 -80t83 -45l108 -25q84 -20 131 -68.5t47 -121.5q0 -84 -65 -141.5t-170 -57.5q-111 0 -177.5 61.5t-76.5 149.5l59 19q7 -73 59 -123t136 -50q80 0 126 38.5t46 98.5q0 49 -33 84
t-94 49l-107 25q-75 17 -119.5 63.5t-44.5 119.5q0 82 67 141t156 59q101 0 157.5 -49t73.5 -125zM252 -84q0 18 13.5 30t31.5 12q20 0 35.5 -15t15.5 -44q0 -49 -28.5 -77.5t-69.5 -30.5v31q25 2 43 18.5t19 39.5q-6 -6 -18 -6q-19 0 -30.5 11.5t-11.5 30.5z" />
    <glyph glyph-name="scommaaccent" unicode="&#x219;" horiz-adv-x="437" 
d="M39 127l55 19q7 -48 41 -77.5t90 -29.5q47 0 77 24t30 61q0 63 -81 81l-80 18q-53 13 -84 45t-31 82q0 58 47.5 99t113.5 41q76 0 117 -37.5t53 -89.5l-53 -20q-8 40 -36.5 67.5t-80.5 27.5q-42 0 -72 -23.5t-30 -60.5q0 -59 73 -76l79 -17q60 -14 92 -48t32 -85
q0 -57 -45.5 -99t-121.5 -42q-81 0 -129 41.5t-56 98.5zM176 -84q0 18 13.5 30t31.5 12q20 0 35.5 -15t15.5 -44q0 -49 -28.5 -77.5t-69.5 -30.5v31q25 2 43 18.5t19 39.5q-6 -6 -18 -6q-19 0 -30.5 11.5t-11.5 30.5z" />
    <glyph glyph-name="uni021A" unicode="&#x21a;" horiz-adv-x="610" 
d="M258 -84q0 18 13.5 30t31.5 12q20 0 35.5 -15t15.5 -44q0 -49 -28.5 -77.5t-69.5 -30.5v31q25 2 43 18.5t19 39.5q-6 -6 -18 -6q-19 0 -30.5 11.5t-11.5 30.5zM588 651h-251v-651h-64v651h-250v58h565v-58z" />
    <glyph glyph-name="uni021B" unicode="&#x21b;" horiz-adv-x="342" 
d="M168 -84q0 18 13.5 30t31.5 12q20 0 35.5 -15t15.5 -44q0 -49 -28.5 -77.5t-69.5 -30.5v31q25 2 43 18.5t19 39.5q-6 -6 -18 -6q-19 0 -30.5 11.5t-11.5 30.5zM175 628v-151h124v-55h-124v-287q0 -86 81 -86q27 0 43 7v-52q-18 -9 -59 -9q-59 0 -92 35t-33 99v293h-101
v55h36q70 0 70 70v81h55z" />
    <glyph glyph-name="dotlessj" unicode="&#x237;" horiz-adv-x="228" 
d="M84 -60v537h60v-539q0 -65 -33 -103t-91 -38q-31 0 -55 8v50q15 -5 39 -5q80 0 80 90z" />
    <glyph glyph-name="uni0259" unicode="&#x259;" horiz-adv-x="533" 
d="M426 199h-318q1 -69 44 -114t115 -45q66 0 110 45.5t49 113.5zM98 322l-51 18q21 65 78 107.5t133 42.5q102 0 167 -69.5t65 -184.5q0 -110 -64.5 -179.5t-157.5 -69.5q-103 0 -163 66t-61 173q0 11 2 23h382v4q-1 81 -49 132t-121 51q-60 0 -101.5 -32.5t-58.5 -81.5z
" />
    <glyph glyph-name="circumflex" unicode="&#x2c6;" horiz-adv-x="374" 
d="M95 538h-54l110 137h72l110 -137h-54l-92 99z" />
    <glyph glyph-name="caron" unicode="&#x2c7;" horiz-adv-x="374" 
d="M41 676h55l91 -100l91 100h55l-109 -138h-74z" />
    <glyph glyph-name="uni02C9" unicode="&#x2c9;" horiz-adv-x="336" 
d="M295 581h-254v52h254v-52z" />
    <glyph glyph-name="breve" unicode="&#x2d8;" horiz-adv-x="362" 
d="M181 538q-64 0 -101.5 41.5t-38.5 96.5h47q2 -36 25.5 -62.5t67.5 -26.5t67.5 26.5t25.5 62.5h47q-1 -56 -38 -97t-102 -41z" />
    <glyph glyph-name="dotaccent" unicode="&#x2d9;" horiz-adv-x="168" 
d="M37 607q0 19 13.5 33t33.5 14t33.5 -14t13.5 -33t-13.5 -33t-33.5 -14t-33.5 14t-13.5 33z" />
    <glyph glyph-name="ring" unicode="&#x2da;" horiz-adv-x="292" 
d="M251 635q0 -43 -30.5 -74t-74.5 -31q-43 0 -74 31t-31 74t31 74t74 31q44 0 74.5 -31t30.5 -74zM207 635q0 26 -17.5 44.5t-43.5 18.5t-43.5 -18.5t-17.5 -44.5t17.5 -44.5t43.5 -18.5t43.5 18.5t17.5 44.5z" />
    <glyph glyph-name="ogonek" unicode="&#x2db;" horiz-adv-x="230" 
d="M41 -117q0 77 93 129l41 -12q-83 -43 -83 -106q0 -27 18 -42t45 -15q19 0 34 5v-44q-19 -8 -45 -8q-44 0 -73.5 25t-29.5 68z" />
    <glyph glyph-name="tilde" unicode="&#x2dc;" horiz-adv-x="381" 
d="M342 659v-11q0 -46 -24 -71.5t-61 -25.5q-32 0 -64 23l-19 15q-25 20 -47 20q-40 0 -40 -55h-47v12q0 44 24 69.5t61 25.5q32 0 68 -27l18 -13q25 -18 44 -18q40 0 40 56h47z" />
    <glyph glyph-name="hungarumlaut" unicode="&#x2dd;" horiz-adv-x="328" 
d="M174 676l-86 -139h-44l63 139h67zM292 676l-98 -139h-44l75 139h67z" />
    <glyph glyph-name="uni0394" unicode="&#x394;" horiz-adv-x="657" 
d="M9 0l283 709h72l284 -709h-639zM327 642l-228 -584h458z" />
    <glyph glyph-name="uni03A9" unicode="&#x3a9;" horiz-adv-x="802" 
d="M401 666q-116 0 -202.5 -80.5t-86.5 -209.5q0 -115 71.5 -195t170.5 -98v-83h-296v55h221q-97 30 -164 116.5t-67 204.5q0 153 104 249.5t249 96.5t249 -96.5t104 -249.5q0 -118 -67.5 -204t-164.5 -117h222v-55h-296v83q99 18 170.5 98t71.5 195q0 129 -86.5 209.5
t-202.5 80.5z" />
    <glyph glyph-name="uni03BC" unicode="&#x3bc;" horiz-adv-x="554" 
d="M415 74q-18 -37 -57.5 -62t-92.5 -25q-81 0 -119 54v-231h-60v667h60v-291q0 -63 32 -104.5t98 -41.5q61 0 98 41.5t37 103.5v292h60v-386q0 -43 5 -91h-57q-4 20 -4 67v7z" />
    <glyph glyph-name="pi" unicode="&#x3c0;" horiz-adv-x="598" 
d="M551 4q-28 -10 -57 -10q-50 0 -76.5 30.5t-26.5 76.5v323h-204v-424h-60v424h-95v53h515v-53h-96v-318q0 -29 16.5 -45t44.5 -16q15 0 39 6v-47z" />
    <glyph glyph-name="Wgrave" unicode="&#x1e80;" horiz-adv-x="984" 
d="M464 759l-134 119h84l107 -119h-57zM724 89l174 620h65l-204 -709h-69l-198 626l-198 -626h-66l-207 709h66l176 -616l195 616h69z" />
    <glyph glyph-name="wgrave" unicode="&#x1e81;" horiz-adv-x="768" 
d="M362 537l-118 139h77l89 -139h-48zM354 477h64l142 -403l127 403h63l-158 -477h-64l-144 404l-142 -404h-65l-159 477h66l128 -403z" />
    <glyph glyph-name="Wacute" unicode="&#x1e82;" horiz-adv-x="984" 
d="M656 878l-133 -119h-58l107 119h84zM724 89l174 620h65l-204 -709h-69l-198 626l-198 -626h-66l-207 709h66l176 -616l195 616h69z" />
    <glyph glyph-name="wacute" unicode="&#x1e83;" horiz-adv-x="768" 
d="M530 676l-118 -139h-49l89 139h78zM354 477h64l142 -403l127 403h63l-158 -477h-64l-144 404l-142 -404h-65l-159 477h66l128 -403z" />
    <glyph glyph-name="Wdieresis" unicode="&#x1e84;" horiz-adv-x="984" 
d="M318 819q0 18 12.5 30.5t30.5 12.5t30.5 -12.5t12.5 -30.5t-12.5 -30.5t-30.5 -12.5t-30.5 12.5t-12.5 30.5zM581 819q0 18 13 30.5t30 12.5q18 0 30.5 -12.5t12.5 -30.5t-12.5 -30.5t-30.5 -12.5q-17 0 -30 12.5t-13 30.5zM724 89l174 620h65l-204 -709h-69l-198 626
l-198 -626h-66l-207 709h66l176 -616l195 616h69z" />
    <glyph glyph-name="wdieresis" unicode="&#x1e85;" horiz-adv-x="768" 
d="M233 610q0 17 12.5 30t29.5 13q18 0 30.5 -13t12.5 -30q0 -18 -12.5 -30t-30.5 -12q-17 0 -29.5 12t-12.5 30zM449 610q0 17 12.5 30t30.5 13q17 0 29.5 -13t12.5 -30q0 -18 -12.5 -30t-29.5 -12q-18 0 -30.5 12t-12.5 30zM354 477h64l142 -403l127 403h63l-158 -477h-64
l-144 404l-142 -404h-65l-159 477h66l128 -403z" />
    <glyph glyph-name="uni1E8A" unicode="&#x1e8a;" horiz-adv-x="598" 
d="M575 709l-239 -353l238 -356h-75l-200 305l-202 -305h-74l240 356l-238 353h76l199 -304l200 304h75zM251 819q0 19 14 33t34 14q19 0 33 -14t14 -33q0 -20 -14 -34t-33 -14t-33.5 14.5t-14.5 33.5z" />
    <glyph glyph-name="uni1E8B" unicode="&#x1e8b;" horiz-adv-x="463" 
d="M13 0l183 243l-175 234h72l140 -191l139 191h70l-173 -234l181 -243h-72l-147 200l-146 -200h-72zM184 607q0 19 14 33t33 14t33 -14t14 -33t-14 -33t-33 -14t-33 14t-14 33z" />
    <glyph glyph-name="Ygrave" unicode="&#x1ef2;" horiz-adv-x="597" 
d="M268 303l-249 406h76l206 -347l205 347h72l-248 -406v-303h-62v303zM284 759l-134 119h84l107 -119h-57z" />
    <glyph glyph-name="ygrave" unicode="&#x1ef3;" horiz-adv-x="488" 
d="M163 -194h-65l120 256l-205 415h68l169 -353l158 353h64zM238 537l-118 139h77l89 -139h-48z" />
    <glyph glyph-name="uni2007" unicode="&#x2007;" horiz-adv-x="594" 
 />
    <glyph glyph-name="uni2008" unicode="&#x2008;" horiz-adv-x="258" 
 />
    <glyph glyph-name="uni200B" unicode="&#x200b;" horiz-adv-x="0" 
 />
    <glyph glyph-name="endash" unicode="&#x2013;" horiz-adv-x="643" 
d="M571 260h-500v54h500v-54z" />
    <glyph glyph-name="emdash" unicode="&#x2014;" horiz-adv-x="1081" 
d="M1000 260h-919v54h919v-54z" />
    <glyph glyph-name="quoteleft" unicode="&#x2018;" horiz-adv-x="187" 
d="M141 535q0 -20 -14 -33.5t-35 -13.5q-23 0 -39 17.5t-16 48.5q0 65 33 107.5t78 53.5v-34q-30 -10 -49.5 -40t-20.5 -64q5 5 18 5q19 0 32 -13.5t13 -33.5z" />
    <glyph glyph-name="quoteright" unicode="&#x2019;" horiz-adv-x="189" 
d="M46 669q0 19 14.5 33t35.5 14q23 0 39.5 -18t16.5 -49q0 -66 -33.5 -109.5t-79.5 -54.5v35q31 9 50.5 39.5t20.5 65.5q-5 -5 -18 -5q-20 0 -33 13.5t-13 35.5z" />
    <glyph glyph-name="quotesinglbase" unicode="&#x201a;" horiz-adv-x="208" 
d="M55 45q0 20 14.5 34t35.5 14q24 0 40 -17.5t16 -49.5q0 -67 -33 -110t-79 -54v35q30 9 50 39.5t21 64.5q-10 -5 -18 -5q-20 0 -33.5 14t-13.5 35z" />
    <glyph glyph-name="quotedblleft" unicode="&#x201c;" horiz-adv-x="327" 
d="M282 536q0 -19 -14.5 -32.5t-35.5 -13.5q-23 0 -39 17.5t-16 48.5q0 65 33 107.5t78 53.5v-35q-30 -9 -49.5 -39.5t-20.5 -63.5q7 5 18 5q20 0 33 -13.5t13 -34.5zM141 536q0 -19 -14 -32.5t-35 -13.5q-23 0 -39 17.5t-16 48.5q0 65 33 107.5t78 53.5v-35
q-30 -9 -49.5 -39.5t-20.5 -63.5q5 5 18 5q19 0 32 -13.5t13 -34.5z" />
    <glyph glyph-name="quotedblright" unicode="&#x201d;" horiz-adv-x="327" 
d="M46 668q0 20 14 33.5t35 13.5q23 0 39 -17.5t16 -48.5q0 -65 -33 -107.5t-78 -53.5v34q30 9 49.5 39t20.5 64q-7 -5 -18 -5q-19 0 -32 13.5t-13 34.5zM186 668q0 20 14 33.5t35 13.5q23 0 39 -17.5t16 -48.5q0 -65 -33 -107.5t-78 -53.5v34q30 9 49.5 39t20.5 64
q-7 -5 -18 -5q-19 0 -32 13.5t-13 34.5z" />
    <glyph glyph-name="quotedblbase" unicode="&#x201e;" horiz-adv-x="346" 
d="M55 44q0 20 14 33.5t35 13.5q23 0 39 -17.5t16 -48.5q0 -65 -32.5 -107.5t-78.5 -53.5v34q31 9 50.5 39.5t20.5 63.5q-10 -5 -18 -5q-20 0 -33 13.5t-13 34.5zM195 44q0 20 14 33.5t36 13.5q23 0 38.5 -17.5t15.5 -48.5q0 -65 -32.5 -107.5t-78.5 -53.5v34
q31 9 50.5 39.5t20.5 63.5q-10 -5 -18 -5q-20 0 -33 13.5t-13 34.5z" />
    <glyph glyph-name="dagger" unicode="&#x2020;" horiz-adv-x="381" 
d="M217 162h-53v335h-136v51h136v161h53v-161h136v-51h-136v-335z" />
    <glyph glyph-name="daggerdbl" unicode="&#x2021;" horiz-adv-x="402" 
d="M39 212h136v285h-136v51h136v161h53v-161h135v-51h-135v-285h135v-51h-135v-161h-53v161h-136v51z" />
    <glyph glyph-name="bullet" unicode="&#x2022;" horiz-adv-x="563" 
d="M498 283q0 -18 -50 -79q-44 -54 -108 -94.5t-125 -40.5q-83 0 -126.5 64t-43.5 150t43.5 150t126.5 64q61 0 125 -40.5t108 -94.5q50 -61 50 -79z" />
    <glyph glyph-name="ellipsis" unicode="&#x2026;" horiz-adv-x="778" 
d="M698 45q0 -21 -14.5 -35t-35.5 -14q-20 0 -34.5 14t-14.5 35q0 20 14.5 34.5t34.5 14.5q21 0 35.5 -14.5t14.5 -34.5zM438 45q0 -21 -14.5 -35t-34.5 -14q-21 0 -35.5 14t-14.5 35q0 20 14.5 34.5t35.5 14.5q20 0 34.5 -14.5t14.5 -34.5zM179 45q0 -21 -14 -35t-35 -14
q-20 0 -34.5 14t-14.5 35q0 20 14.5 34.5t34.5 14.5q21 0 35 -14.5t14 -34.5z" />
    <glyph glyph-name="perthousand" unicode="&#x2030;" horiz-adv-x="1065" 
d="M114 501q0 -44 28.5 -73.5t70.5 -29.5q43 0 71 29.5t28 73.5t-28 73.5t-71 29.5q-42 0 -70.5 -29.5t-28.5 -73.5zM61 501q0 64 44 108.5t108 44.5t108.5 -44.5t44.5 -108.5t-44.5 -108.5t-108.5 -44.5t-108 44.5t-44 108.5zM510 146q0 -44 28.5 -73.5t70.5 -29.5
q43 0 71 29.5t28 73.5t-28 73.5t-71 29.5q-42 0 -70.5 -29.5t-28.5 -73.5zM201 0h-60l473 648h59zM764 146q0 -44 28.5 -73.5t70.5 -29.5q43 0 71.5 29.5t28.5 73.5t-28.5 73.5t-71.5 29.5q-42 0 -70.5 -29.5t-28.5 -73.5zM457 146q0 64 44 108.5t108 44.5q41 0 74.5 -19.5
t52.5 -53.5q19 34 52.5 53.5t74.5 19.5q64 0 108.5 -44.5t44.5 -108.5t-44.5 -108.5t-108.5 -44.5q-41 0 -74.5 19.5t-52.5 53.5q-19 -34 -52.5 -53.5t-74.5 -19.5q-64 0 -108 44.5t-44 108.5z" />
    <glyph glyph-name="guilsinglleft" unicode="&#x2039;" horiz-adv-x="255" 
d="M229 95h-60l-133 191l133 191h60l-132 -191z" />
    <glyph glyph-name="guilsinglright" unicode="&#x203a;" horiz-adv-x="255" 
d="M86 95h-60l133 191l-133 191h60l133 -191z" />
    <glyph glyph-name="uni2042" unicode="&#x2042;" horiz-adv-x="843" 
d="M444 709v-132l125 43l13 -41l-126 -44l82 -110l-35 -27l-83 113l-79 -112l-35 27l79 109l-125 43l15 42l123 -44v133h46zM228 312v-132l125 43l13 -41l-126 -44l82 -110l-35 -27l-83 113l-79 -112l-35 27l79 109l-125 43l15 42l123 -44v133h46zM660 312v-132l125 43
l13 -41l-126 -44l82 -110l-35 -27l-83 113l-79 -112l-35 27l79 109l-125 43l15 42l123 -44v133h46z" />
    <glyph glyph-name="fraction" unicode="&#x2044;" horiz-adv-x="532" 
d="M60 0h-60l473 648h59z" />
    <glyph glyph-name="uni2051" unicode="&#x2051;" horiz-adv-x="425" 
d="M235 709v-132l125 43l13 -41l-126 -44l82 -110l-35 -27l-83 113l-79 -112l-35 27l79 109l-125 43l15 42l123 -44v133h46zM235 312v-132l125 43l13 -41l-126 -44l82 -110l-35 -27l-83 113l-79 -112l-35 27l79 109l-125 43l15 42l123 -44v133h46z" />
    <glyph glyph-name="uni2070" unicode="&#x2070;" horiz-adv-x="429" 
d="M118 528q0 -38 7.5 -68t30 -53t58.5 -23t58.5 23t30 53t7.5 68t-7.5 67.5t-30 52.5t-58.5 23t-58.5 -23t-30 -52.5t-7.5 -67.5zM66 528q0 83 36 134q40 54 112 54t112 -54q36 -49 36 -134q0 -86 -36 -134q-40 -54 -112 -54t-112 54q-36 49 -36 134z" />
    <glyph glyph-name="uni2074" unicode="&#x2074;" horiz-adv-x="435" 
d="M63 428v51l180 230h61v-236h71v-45h-71v-81h-51v81h-190zM253 473v179l-140 -179h140z" />
    <glyph glyph-name="uni2075" unicode="&#x2075;" horiz-adv-x="400" 
d="M63 439l45 20q5 -33 30 -54t60 -21q38 0 62 22t24 57q0 36 -24 57.5t-61 21.5q-46 0 -78 -34l-45 16l49 185h196v-44h-162l-30 -113q31 31 83 31q55 0 89.5 -33t34.5 -86t-37.5 -88.5t-100.5 -35.5q-52 0 -90 29t-45 70z" />
    <glyph glyph-name="uni2076" unicode="&#x2076;" horiz-adv-x="412" 
d="M336 697l-13 -40q-29 16 -69 16q-62 0 -98.5 -40t-41.5 -104q11 25 41 42.5t65 17.5q56 0 92.5 -34t36.5 -90q0 -55 -40.5 -90t-99.5 -35q-63 0 -104.5 44.5t-41.5 123.5q0 97 53.5 152.5t134.5 55.5q53 0 85 -19zM123 465q0 -36 26 -58.5t61 -22.5q36 0 61.5 22.5
t25.5 58.5t-25.5 58.5t-61.5 22.5q-35 0 -61 -22.5t-26 -58.5z" />
    <glyph glyph-name="uni2077" unicode="&#x2077;" horiz-adv-x="411" 
d="M348 709v-47q-144 -117 -166 -315h-54q20 194 155 318h-220v44h285z" />
    <glyph glyph-name="uni2078" unicode="&#x2078;" horiz-adv-x="401" 
d="M201 554q34 0 55 16.5t21 43.5t-20.5 44t-55.5 17t-55.5 -17t-20.5 -44t21 -43.5t55 -16.5zM201 384q40 0 62.5 18t22.5 46q0 29 -22.5 47t-62.5 18t-63 -18t-23 -47q0 -28 23 -46t63 -18zM201 340q-64 0 -101 29.5t-37 74.5q0 31 20.5 55t53.5 34q-28 10 -45.5 32.5
t-17.5 50.5q0 44 35 72t92 28q56 0 91.5 -28t35.5 -72q0 -28 -17.5 -50.5t-46.5 -32.5q34 -10 54 -34t20 -55q0 -45 -36.5 -74.5t-100.5 -29.5z" />
    <glyph glyph-name="uni2079" unicode="&#x2079;" horiz-adv-x="410" 
d="M75 361l13 40q33 -18 73 -18q60 0 96.5 38t38.5 109q-11 -27 -40 -44t-64 -17q-55 0 -92 34t-37 89q0 53 40.5 88.5t98.5 35.5q62 0 103.5 -44t41.5 -122q0 -97 -48 -154t-136 -57q-52 0 -88 22zM286 592q0 36 -25 58t-61 22t-60.5 -22t-24.5 -58t24.5 -58t60.5 -22
t61 22t25 58z" />
    <glyph glyph-name="uni2080" unicode="&#x2080;" horiz-adv-x="422" 
d="M115 100q0 -38 7.5 -68t30 -53t58.5 -23t58.5 23t30 53t7.5 68t-7.5 67.5t-30 52.5t-58.5 23t-58.5 -23t-30 -52.5t-7.5 -67.5zM63 100q0 83 36 134q40 54 112 54t112 -54q36 -49 36 -134q0 -86 -36 -134q-40 -54 -112 -54t-112 54q-36 49 -36 134z" />
    <glyph glyph-name="uni2081" unicode="&#x2081;" horiz-adv-x="287" 
d="M194 -81h-51v277q-4 -6 -36 -16t-51 -12v39q36 5 60 26t29 49h49v-363z" />
    <glyph glyph-name="uni2082" unicode="&#x2082;" horiz-adv-x="385" 
d="M117 147l-50 3q-2 14 -2 24q0 48 35 81t93 33q56 0 90.5 -32t34.5 -78q0 -63 -72 -108l-74 -46q-41 -27 -46 -61h196v-44h-258v5q0 85 78 135l69 42q55 34 55 78q0 27 -20.5 46.5t-53.5 19.5q-34 0 -55.5 -20.5t-21.5 -54.5q0 -7 2 -23z" />
    <glyph glyph-name="uni2083" unicode="&#x2083;" horiz-adv-x="403" 
d="M173 94l-22 39l114 104h-195v44h262v-42l-116 -104q1 0 4.5 0.5t4.5 0.5q48 -2 81.5 -29.5t33.5 -77.5t-38.5 -83.5t-99.5 -33.5q-59 0 -97.5 30t-44.5 76l46 17q3 -36 30.5 -58t64.5 -22q38 0 62.5 21t24.5 53q0 34 -24 52t-59 18q-17 0 -32 -5z" />
    <glyph glyph-name="uni2084" unicode="&#x2084;" horiz-adv-x="435" 
d="M63 0v51l180 230h61v-236h71v-45h-71v-81h-51v81h-190zM253 45v179l-140 -179h140z" />
    <glyph glyph-name="uni2085" unicode="&#x2085;" horiz-adv-x="400" 
d="M63 11l45 20q5 -33 30 -54t60 -21q38 0 62 22t24 57q0 36 -24 57.5t-61 21.5q-46 0 -78 -34l-45 16l49 185h196v-44h-162l-30 -113q31 31 83 31q55 0 89.5 -33t34.5 -86t-37.5 -88.5t-100.5 -35.5q-52 0 -90 29t-45 70z" />
    <glyph glyph-name="uni2086" unicode="&#x2086;" horiz-adv-x="412" 
d="M336 269l-13 -40q-29 16 -69 16q-62 0 -98.5 -40t-41.5 -104q11 25 41 42.5t65 17.5q56 0 92.5 -34t36.5 -90q0 -55 -40.5 -90t-99.5 -35q-63 0 -104.5 44.5t-41.5 123.5q0 97 53.5 152.5t134.5 55.5q53 0 85 -19zM123 37q0 -36 26 -58.5t61 -22.5q36 0 61.5 22.5
t25.5 58.5t-25.5 58.5t-61.5 22.5q-35 0 -61 -22.5t-26 -58.5z" />
    <glyph glyph-name="uni2087" unicode="&#x2087;" horiz-adv-x="411" 
d="M348 281v-47q-144 -117 -166 -315h-54q20 194 155 318h-220v44h285z" />
    <glyph glyph-name="uni2088" unicode="&#x2088;" horiz-adv-x="401" 
d="M201 126q34 0 55 16.5t21 43.5t-20.5 44t-55.5 17t-55.5 -17t-20.5 -44t21 -43.5t55 -16.5zM201 -44q40 0 62.5 18t22.5 46q0 29 -22.5 47t-62.5 18t-63 -18t-23 -47q0 -28 23 -46t63 -18zM201 -88q-64 0 -101 29.5t-37 74.5q0 31 20.5 55t53.5 34q-28 10 -45.5 32.5
t-17.5 50.5q0 44 35 72t92 28q56 0 91.5 -28t35.5 -72q0 -28 -17.5 -50.5t-46.5 -32.5q34 -10 54 -34t20 -55q0 -45 -36.5 -74.5t-100.5 -29.5z" />
    <glyph glyph-name="uni2089" unicode="&#x2089;" horiz-adv-x="410" 
d="M75 -67l13 40q33 -18 73 -18q60 0 96.5 38t38.5 109q-11 -27 -40 -44t-64 -17q-55 0 -92 34t-37 89q0 53 40.5 88.5t98.5 35.5q62 0 103.5 -44t41.5 -122q0 -97 -48 -154t-136 -57q-52 0 -88 22zM286 164q0 36 -25 58t-61 22t-60.5 -22t-24.5 -58t24.5 -58t60.5 -22
t61 22t25 58z" />
    <glyph glyph-name="Euro" unicode="&#x20ac;" horiz-adv-x="678" 
d="M49 278h84q-4 24 -4 46q0 24 3 45h-83v50h93q28 115 121 178.5t193 63.5q105 0 170 -45l-25 -49q-56 38 -145 38q-78 0 -152 -48.5t-98 -137.5h315l-25 -50h-302q-3 -20 -3 -45q0 -24 4 -46h261l-25 -52h-223q25 -89 94.5 -136.5t150.5 -47.5q104 0 168 59l32 -44
q-80 -70 -200 -70q-103 0 -192 62t-118 177h-94v52z" />
    <glyph glyph-name="uni2113" unicode="&#x2113;" horiz-adv-x="382" 
d="M38 261q42 14 69 28v222q0 71 32.5 110.5t83.5 39.5q57 0 86 -36.5t29 -97.5q0 -84 -46 -153.5t-125 -116.5v-121q0 -41 19.5 -63.5t52.5 -22.5q46 0 84 24v-55q-39 -24 -85 -24q-63 0 -97 37t-34 102v94q-33 -14 -69 -24v57zM278 527q0 80 -52 80q-59 0 -59 -96v-185
q111 79 111 201z" />
    <glyph glyph-name="trademark" unicode="&#x2122;" horiz-adv-x="806" 
d="M312 665h-116v-310h-49v310h-117v44h282v-44zM740 355h-48v269l-120 -269h-40l-120 268v-268h-48v354h62l127 -285l127 285h60v-354z" />
    <glyph glyph-name="Omega" unicode="&#x2126;" horiz-adv-x="802" 
d="M401 666q-116 0 -202.5 -80.5t-86.5 -209.5q0 -115 71.5 -195t170.5 -98v-83h-296v55h221q-97 30 -164 116.5t-67 204.5q0 153 104 249.5t249 96.5t249 -96.5t104 -249.5q0 -118 -67.5 -204t-164.5 -117h222v-55h-296v83q99 18 170.5 98t71.5 195q0 129 -86.5 209.5
t-202.5 80.5z" />
    <glyph glyph-name="uni2160" unicode="&#x2160;" horiz-adv-x="510" 
d="M449 648v-56h-163v-535h163v-57h-388v57h164v535h-164v56h388z" />
    <glyph glyph-name="uni2161" unicode="&#x2161;" horiz-adv-x="774" 
d="M713 57v-57h-652v57h157v535h-157v56h652v-56h-158v-535h158zM494 57v535h-214v-535h214z" />
    <glyph glyph-name="uni2162" unicode="&#x2162;" horiz-adv-x="1044" 
d="M983 57v-57h-922v57h157v535h-157v56h922v-56h-157v-535h157zM764 57v535h-211v-535h211zM280 592v-535h211v535h-211z" />
    <glyph glyph-name="uni2163" unicode="&#x2163;" horiz-adv-x="1010" 
d="M948 57v-57h-887v57h152v535h-152v56h887v-56h-114l-185 -535h299zM274 592v-535h276l-182 535h-94zM602 87l167 505h-335z" />
    <glyph glyph-name="uni2164" unicode="&#x2164;" horiz-adv-x="807" 
d="M746 648v-56h-110l-184 -535h290v-57h-676v57h287l-183 535h-109v56h685zM404 87l168 505h-336z" />
    <glyph glyph-name="uni2165" unicode="&#x2165;" horiz-adv-x="1010" 
d="M948 57v-57h-887v57h297l-183 535h-114v56h887v-56h-142v-535h142zM641 592l-184 -535h288v535h-104zM409 87l168 505h-336z" />
    <glyph glyph-name="uni2166" unicode="&#x2166;" horiz-adv-x="1297" 
d="M1236 57v-57h-1175v57h296l-182 535h-114v56h1175v-56h-158v-535h158zM1017 57v535h-211v-535h211zM641 592l-185 -535h288v535h-103zM409 87l167 505h-335z" />
    <glyph glyph-name="uni2167" unicode="&#x2167;" horiz-adv-x="1546" 
d="M1485 57v-57h-1424v57h294l-180 535h-114v56h1424v-56h-154v-535h154zM801 592v-535h204v535h-204zM1066 592v-535h203v535h-203zM636 592l-183 -535h287v535h-104zM406 87l165 505h-330z" />
    <glyph glyph-name="uni2168" unicode="&#x2168;" horiz-adv-x="980" 
d="M919 57v-57h-858v57h152v535h-152v56h857v-56h-102l-191 -272l187 -263h107zM556 320l-190 272h-92v-535h94zM436 592l154 -223l156 223h-310zM590 272l-152 -215h303z" />
    <glyph glyph-name="uni2169" unicode="&#x2169;" horiz-adv-x="771" 
d="M709 648v-56h-98l-192 -274l184 -261h106v-57h-648v57h102l187 261l-193 274h-96v56h648zM228 592l156 -226l157 226h-313zM384 269l-151 -212h299z" />
    <glyph glyph-name="uni216C" unicode="&#x216c;" horiz-adv-x="658" 
d="M597 277v-277h-536v57h144v535h-144v56h358v-56h-153v-535h269v220h62z" />
    <glyph glyph-name="uni216D" unicode="&#x216d;" horiz-adv-x="704" 
d="M642 220v-220h-61v95q-68 -107 -207 -107q-129 0 -221 90t-92 246t92 246.5t220 90.5q136 0 205 -104v92h61v-216h-61q-13 80 -65 126.5t-140 46.5q-106 0 -178 -74t-72 -208t71 -207t179 -73q93 0 145 50t63 126h61z" />
    <glyph glyph-name="uni216E" unicode="&#x216e;" horiz-adv-x="730" 
d="M61 648h302q128 0 217 -86t89 -239q0 -152 -89.5 -237.5t-220.5 -85.5h-298v57h149v535h-149v56zM270 57h90q103 0 174.5 69t71.5 197q0 127 -70.5 198t-175.5 71h-90v-535z" />
    <glyph glyph-name="uni216F" unicode="&#x216f;" horiz-adv-x="1073" 
d="M284 648l249 -564l250 564h226v-56h-137v-535h140v-57h-317v57h116v507l-253 -564h-51l-252 564v-507h123v-57h-317v57h134v535h-134v56h223z" />
    <glyph glyph-name="arrowleft" unicode="&#x2190;" horiz-adv-x="998" 
d="M226 126l-194 164l194 163v-137h714v-53h-714v-137z" />
    <glyph glyph-name="arrowup" unicode="&#x2191;" horiz-adv-x="407" 
d="M209 796l169 -204h-142v-739h-54v739h-142z" />
    <glyph glyph-name="arrowright" unicode="&#x2192;" horiz-adv-x="998" 
d="M950 290l-206 -174v147h-700v53h700v147z" />
    <glyph glyph-name="arrowdown" unicode="&#x2193;" horiz-adv-x="407" 
d="M372 48l-174 -206l-173 206h146v737h54v-737h147z" />
    <glyph glyph-name="uni2196" unicode="&#x2196;" horiz-adv-x="839" 
d="M52 709h250l-106 -106l574 -573l-38 -38l-573 573l-107 -108v252z" />
    <glyph glyph-name="uni2197" unicode="&#x2197;" horiz-adv-x="801" 
d="M482 709h251v-252l-107 108l-573 -573l-39 38l574 573z" />
    <glyph glyph-name="uni2198" unicode="&#x2198;" horiz-adv-x="839" 
d="M770 0h-250l106 106l-574 573l38 38l573 -573l107 108v-252z" />
    <glyph glyph-name="uni2199" unicode="&#x2199;" horiz-adv-x="798" 
d="M299 0h-251v252l107 -108l573 573l39 -38l-574 -573z" />
    <glyph glyph-name="uni21A9" unicode="&#x21a9;" horiz-adv-x="835" 
d="M423 601v53h168q84 0 143.5 -57t59.5 -140q0 -86 -61 -141.5t-145 -55.5h-369v-137l-195 164l195 164v-137h367q63 0 109 39.5t46 103.5q0 62 -44.5 103t-109.5 41h-164z" />
    <glyph glyph-name="uni21B0" unicode="&#x21b0;" horiz-adv-x="759" 
d="M245 395l-195 164l195 164v-137h418v-586h-53v532h-365v-137z" />
    <glyph glyph-name="uni21B1" unicode="&#x21b1;" horiz-adv-x="739" 
d="M129 0h-53v586h437v137l194 -164l-194 -164v137h-384v-532z" />
    <glyph glyph-name="uni21B2" unicode="&#x21b2;" horiz-adv-x="754" 
d="M606 717h53v-585h-437v-138l-194 164l194 164v-137h384v532z" />
    <glyph glyph-name="uni21B3" unicode="&#x21b3;" horiz-adv-x="783" 
d="M531 322l195 -164l-195 -164v138h-437v585h54v-532h383v137z" />
    <glyph glyph-name="uni21B4" unicode="&#x21b4;" horiz-adv-x="767" 
d="M27 656v53h565v-528h137l-164 -194l-164 194h137v475h-511z" />
    <glyph glyph-name="uni21C6" unicode="&#x21c6;" horiz-adv-x="1059" 
d="M253 376l-195 164l195 164v-137h721v-54h-721v-137zM1001 170l-194 -164v137h-722v54h722v137z" />
    <glyph glyph-name="partialdiff" unicode="&#x2202;" horiz-adv-x="610" 
d="M242 667q-75 0 -139 -32l-20 49q72 38 168 38q137 0 222 -99t85 -278q0 -159 -68.5 -258.5t-199.5 -99.5q-99 0 -167 63.5t-68 169.5q0 102 68.5 166t169.5 64q65 0 118.5 -25t84.5 -67q-2 67 -17 121t-44 97t-78 67t-115 24zM302 397q-85 0 -135.5 -51t-50.5 -129
t51.5 -126.5t125.5 -48.5q51 0 90 22t62 58.5t35 78.5t14 87q-31 53 -81.5 81t-110.5 28z" />
    <glyph glyph-name="Delta" unicode="&#x2206;" horiz-adv-x="657" 
d="M9 0l283 709h72l284 -709h-639zM327 642l-228 -584h458z" />
    <glyph glyph-name="product" unicode="&#x220f;" horiz-adv-x="699" 
d="M603 0h-61v654h-383v-654h-63v709h507v-709z" />
    <glyph glyph-name="summation" unicode="&#x2211;" horiz-adv-x="568" 
d="M51 0v58l282 299l-282 293v59h485v-58h-404l281 -294l-287 -299h410v-58h-485z" />
    <glyph glyph-name="minus" unicode="&#x2212;" horiz-adv-x="544" 
d="M482 262h-421v51h421v-51z" />
    <glyph glyph-name="uni2215" unicode="&#x2215;" horiz-adv-x="391" 
d="M382 648l-314 -648h-59l314 648h59z" />
    <glyph glyph-name="uni2219" unicode="&#x2219;" horiz-adv-x="251" 
d="M74 284q0 22 14.5 37t36.5 15t37 -15t15 -37t-15 -36.5t-37 -14.5t-36.5 14.5t-14.5 36.5z" />
    <glyph glyph-name="radical" unicode="&#x221a;" horiz-adv-x="645" 
d="M674 796h-126l-268 -796h-57l-182 518h69l142 -417l248 751h174v-56z" />
    <glyph glyph-name="infinity" unicode="&#x221e;" horiz-adv-x="1275" 
d="M1205 354q0 -96 -41 -146t-113 -50q-111 0 -233 152q-17 -24 -53 -67q-202 -257 -415 -257q-96 0 -161.5 50.5t-94.5 131.5t-29 186t29 186t94.5 131.5t161.5 50.5q213 0 415 -257q36 -43 53 -67q122 152 233 152q72 0 113 -50t41 -146zM851 354q56 -69 103.5 -105.5
t94.5 -36.5q45 0 70.5 36.5t25.5 105.5t-25.5 105.5t-70.5 36.5q-47 0 -94.5 -36.5t-103.5 -105.5zM783 354l-57 72q-190 240 -374 240q-115 0 -171 -86t-56 -226t56 -226t171 -86q184 0 374 240z" />
    <glyph glyph-name="integral" unicode="&#x222b;" horiz-adv-x="307" 
d="M124 -42v599q0 71 39 111.5t105 40.5h28v-54h-24q-40 0 -64 -26.5t-24 -75.5v-600q0 -72 -37.5 -112.5t-102.5 -40.5h-33v54h25q40 0 64 27.5t24 76.5z" />
    <glyph glyph-name="approxequal" unicode="&#x2248;" horiz-adv-x="557" 
d="M482 418l34 -29q-53 -73 -132 -73q-41 0 -96 29l-47 26q-40 20 -70 20q-55 0 -95 -49l-35 30q55 75 130 75q38 0 96 -30l46 -25q41 -22 77 -22q54 0 92 48zM482 225l34 -29q-52 -73 -132 -73q-41 0 -96 29l-47 25q-39 21 -70 21q-54 0 -95 -50l-35 31q54 74 130 74
q41 0 96 -30l46 -24q38 -22 77 -22q54 0 92 48z" />
    <glyph glyph-name="notequal" unicode="&#x2260;" horiz-adv-x="589" 
d="M518 165h-281l-81 -109h-62l81 109h-104v52h142l105 142h-247v51h285l79 107h62l-79 -107h100v-51h-138l-105 -142h243v-52z" />
    <glyph glyph-name="lessequal" unicode="&#x2264;" horiz-adv-x="547" 
d="M71 116h405v-51h-405v51zM71 320v54l405 147v-55l-336 -119l336 -118v-56z" />
    <glyph glyph-name="greaterequal" unicode="&#x2265;" horiz-adv-x="547" 
d="M71 116h405v-51h-405v51zM476 374v-54l-405 -147v56l336 118l-336 119v55z" />
    <glyph glyph-name="dotmath" unicode="&#x22c5;" horiz-adv-x="251" 
d="M74 284q0 22 14.5 37t36.5 15t37 -15t15 -37t-15 -36.5t-37 -14.5t-36.5 14.5t-14.5 36.5z" />
    <glyph glyph-name="uni24C5" unicode="&#x24c5;" horiz-adv-x="830" 
d="M102 354q0 -134 90.5 -227t221.5 -93t221.5 93t90.5 227q0 135 -90.5 228t-221.5 93t-221.5 -93t-90.5 -228zM51 354q0 153 106 260.5t257 107.5t258 -108t107 -260t-107 -259.5t-258 -107.5t-257 107.5t-106 259.5zM353 356h84q39 0 62.5 21t23.5 56q0 36 -23.5 57.5
t-62.5 21.5h-84v-156zM445 313h-92v-158h-49v400h141q56 0 92 -34.5t36 -86.5t-36 -86.5t-92 -34.5z" />
    <glyph glyph-name="filledbox" unicode="&#x25a0;" horiz-adv-x="908" 
d="M104 0v709h701v-709h-701z" />
    <glyph glyph-name="H22073" unicode="&#x25a1;" horiz-adv-x="908" 
d="M805 0h-701v709h701v-709zM156 660v-611h596v611h-596z" />
    <glyph glyph-name="uni25AF" unicode="&#x25af;" horiz-adv-x="540" 
d="M84 0v709h372v-709h-372zM135 51h270v607h-270v-607z" />
    <glyph glyph-name="triagup" unicode="&#x25b2;" horiz-adv-x="840" 
d="M422 726l418 -726h-840z" />
    <glyph glyph-name="uni25B3" unicode="&#x25b3;" horiz-adv-x="840" 
d="M422 726l418 -726h-840zM750 49l-329 572l-331 -572h660z" />
    <glyph glyph-name="lozenge" unicode="&#x25ca;" horiz-adv-x="550" 
d="M106 354l169 -282l168 282l-168 283zM41 354l209 355h50l208 -355l-207 -354h-52z" />
    <glyph glyph-name="circle" unicode="&#x25cb;" horiz-adv-x="840" 
d="M51 354q0 153 108 261t260 108q153 0 261.5 -108t108.5 -261t-108.5 -260.5t-261.5 -107.5q-152 0 -260 107.5t-108 260.5zM105 354q0 -132 91.5 -224.5t222.5 -92.5q132 0 223.5 92.5t91.5 224.5t-91.5 224.5t-223.5 92.5q-131 0 -222.5 -92.5t-91.5 -224.5z" />
    <glyph glyph-name="H18533" unicode="&#x25cf;" horiz-adv-x="840" 
d="M51 354q0 153 108 261t260 108q153 0 261.5 -108t108.5 -261t-108.5 -260.5t-261.5 -107.5q-152 0 -260 107.5t-108 260.5z" />
    <glyph glyph-name="uni262E" unicode="&#x262e;" horiz-adv-x="830" 
d="M779 354q0 -151 -107 -259t-259 -108q-150 0 -256 108t-106 259q0 152 105.5 260t256.5 108q152 0 259 -108t107 -260zM726 354q0 127 -82.5 218t-203.5 101v-273l229 -229q57 82 57 183zM102 354q0 -101 56 -182l228 228v273q-121 -10 -202.5 -101t-81.5 -218zM440 36
q113 7 196 92l-196 197v-289zM190 130q80 -86 196 -94v289z" />
    <glyph glyph-name="uni2713" unicode="&#x2713;" horiz-adv-x="981" 
d="M949 671l-637 -687l-281 314l38 36l246 -270l596 644z" />
    <glyph glyph-name="uni2715" unicode="&#x2715;" horiz-adv-x="747" 
d="M678 -4l-305 311l-304 -311l-38 38l304 311l-303 311l38 38l303 -310l303 310l39 -38l-305 -311l305 -311z" />
    <glyph glyph-name="uni2780" unicode="&#x2780;" horiz-adv-x="829" 
d="M101 354q0 -134 91 -227t221 -93q131 0 222 93.5t91 226.5q0 135 -91 228t-222 93t-221.5 -93t-90.5 -228zM51 354q0 152 105.5 260t256.5 108t258 -108t107 -260q0 -151 -107 -259t-258 -108q-150 0 -256 108t-106 259zM448 174h-51v277q-4 -6 -36 -16t-51 -12v39
q36 5 60 26t29 49h49v-363z" />
    <glyph glyph-name="uni2781" unicode="&#x2781;" horiz-adv-x="829" 
d="M101 354q0 -134 91 -227t221 -93q131 0 222 93.5t91 226.5q0 135 -91 228t-222 93t-221.5 -93t-90.5 -228zM51 354q0 152 105.5 260t256.5 108t258 -108t107 -260q0 -151 -107 -259t-258 -108q-150 0 -256 108t-106 259zM335 404l-50 3q-2 14 -2 24q0 48 35 81t93 33
q56 0 90.5 -32t34.5 -78q0 -63 -72 -108l-74 -46q-41 -27 -46 -61h196v-44h-258v5q0 85 78 135l69 42q55 34 55 78q0 27 -20.5 46.5t-53.5 19.5q-34 0 -55.5 -20.5t-21.5 -54.5q0 -7 2 -23z" />
    <glyph glyph-name="uni2782" unicode="&#x2782;" horiz-adv-x="829" 
d="M51 354q0 152 105.5 260t256.5 108t258 -108t107 -260q0 -151 -107 -259t-258 -108q-150 0 -256 108t-106 259zM101 354q0 -134 91 -227t221 -93q131 0 222 93.5t91 226.5q0 135 -91 228t-222 93t-221.5 -93t-90.5 -228zM383 348l-22 39l115 104h-195v44h262v-43
l-116 -104q4 2 9 2q48 -2 81.5 -30t33.5 -78q0 -49 -38.5 -83t-100.5 -34q-59 0 -97 30.5t-45 75.5l47 17q3 -35 30.5 -57t63.5 -22q38 0 62.5 21t24.5 52q0 34 -23.5 52t-59.5 18q-14 0 -32 -4z" />
    <glyph glyph-name="uni2783" unicode="&#x2783;" horiz-adv-x="829" 
d="M101 354q0 -134 91 -227t221 -93q131 0 222 93.5t91 226.5q0 135 -91 228t-222 93t-221.5 -93t-90.5 -228zM51 354q0 152 105.5 260t256.5 108t258 -108t107 -260q0 -151 -107 -259t-258 -108q-150 0 -256 108t-106 259zM237 257v51l180 230h61v-236h71v-45h-71v-81h-51
v81h-190zM427 302v179l-140 -179h140z" />
    <glyph glyph-name="uni2784" unicode="&#x2784;" horiz-adv-x="829" 
d="M101 354q0 -134 91 -227t221 -93q131 0 222 93.5t91 226.5q0 135 -91 228t-222 93t-221.5 -93t-90.5 -228zM51 354q0 152 105.5 260t256.5 108t258 -108t107 -260q0 -151 -107 -259t-258 -108q-150 0 -256 108t-106 259zM269 265l45 20q5 -33 30 -54t60 -21q38 0 62 22
t24 57q0 36 -24 57.5t-61 21.5q-46 0 -78 -34l-45 16l49 185h196v-44h-162l-30 -113q31 31 83 31q55 0 89.5 -33t34.5 -86t-37.5 -88.5t-100.5 -35.5q-52 0 -90 29t-45 70z" />
    <glyph glyph-name="uni2785" unicode="&#x2785;" horiz-adv-x="829" 
d="M101 354q0 -134 91 -227t221 -93q131 0 222 93.5t91 226.5q0 135 -91 228t-222 93t-221.5 -93t-90.5 -228zM51 354q0 152 105.5 260t256.5 108t258 -108t107 -260q0 -151 -107 -259t-258 -108q-150 0 -256 108t-106 259zM527 524l-13 -40q-29 16 -69 16q-62 0 -98.5 -40
t-41.5 -104q11 25 41 42.5t65 17.5q56 0 92.5 -34t36.5 -90q0 -55 -40.5 -90t-99.5 -35q-63 0 -104.5 44.5t-41.5 123.5q0 97 53.5 152.5t134.5 55.5q53 0 85 -19zM314 292q0 -36 26 -58.5t61 -22.5q36 0 61.5 22.5t25.5 58.5t-25.5 58.5t-61.5 22.5q-35 0 -61 -22.5
t-26 -58.5z" />
    <glyph glyph-name="uni2786" unicode="&#x2786;" horiz-adv-x="829" 
d="M101 354q0 -134 91 -227t221 -93q131 0 222 93.5t91 226.5q0 135 -91 228t-222 93t-221.5 -93t-90.5 -228zM51 354q0 152 105.5 260t256.5 108t258 -108t107 -260q0 -151 -107 -259t-258 -108q-150 0 -256 108t-106 259zM559 535v-47q-144 -117 -166 -315h-54
q20 194 155 318h-220v44h285z" />
    <glyph glyph-name="uni2787" unicode="&#x2787;" horiz-adv-x="829" 
d="M101 354q0 -134 91 -227t221 -93q131 0 222 93.5t91 226.5q0 135 -91 228t-222 93t-221.5 -93t-90.5 -228zM51 354q0 152 105.5 260t256.5 108t258 -108t107 -260q0 -151 -107 -259t-258 -108q-150 0 -256 108t-106 259zM413 381q34 0 55 16.5t21 43.5t-20.5 44t-55.5 17
t-55.5 -17t-20.5 -44t21 -43.5t55 -16.5zM413 211q40 0 62.5 18t22.5 46q0 29 -22.5 47t-62.5 18t-63 -18t-23 -47q0 -28 23 -46t63 -18zM413 167q-64 0 -101 29.5t-37 74.5q0 31 20.5 55t53.5 34q-28 10 -45.5 32.5t-17.5 50.5q0 44 35 72t92 28q56 0 91.5 -28t35.5 -72
q0 -28 -17.5 -50.5t-46.5 -32.5q34 -10 54 -34t20 -55q0 -45 -36.5 -74.5t-100.5 -29.5z" />
    <glyph glyph-name="uni2788" unicode="&#x2788;" horiz-adv-x="829" 
d="M101 354q0 -134 91 -227t221 -93q131 0 222 93.5t91 226.5q0 135 -91 228t-222 93t-221.5 -93t-90.5 -228zM51 354q0 152 105.5 260t256.5 108t258 -108t107 -260q0 -151 -107 -259t-258 -108q-150 0 -256 108t-106 259zM291 188l13 40q33 -18 73 -18q60 0 96.5 38
t38.5 109q-11 -27 -40 -44t-64 -17q-55 0 -92 34t-37 89q0 53 40.5 88.5t98.5 35.5q62 0 103.5 -44t41.5 -122q0 -97 -48 -154t-136 -57q-52 0 -88 22zM502 419q0 36 -25 58t-61 22t-60.5 -22t-24.5 -58t24.5 -58t60.5 -22t61 22t25 58z" />
    <glyph glyph-name="uniE000" unicode="&#xe000;" horiz-adv-x="767" 
d="M202 -13l-164 194h137v528h565v-53h-511v-475h137z" />
    <glyph glyph-name="uniE001" unicode="&#xe001;" horiz-adv-x="969" 
d="M596 355l159 191l159 -191h-129q0 -152 -108 -259.5t-260 -107.5t-259.5 107.5t-107.5 259.5t107.5 259.5t259.5 107.5q96 0 181 -48l-23 -47q-74 42 -158 42q-130 0 -221.5 -92t-91.5 -222q0 -131 91.5 -223t221.5 -92t222 92t92 223h-135z" />
    <glyph glyph-name="uniE002" unicode="&#xe002;" horiz-adv-x="1086" 
d="M207 164l-159 191h130q0 152 107.5 259.5t259.5 107.5q96 0 181 -48l-23 -47q-76 42 -158 42q-130 0 -221.5 -92t-91.5 -222h134zM912 355q0 -152 -107.5 -259.5t-259.5 -107.5q-98 0 -181 47l23 48q73 -42 158 -42q130 0 221.5 92t91.5 222h-132l159 191l159 -191h-132z
" />
    <glyph glyph-name="uniFB00" unicode="&#xfb00;" horiz-adv-x="628" 
d="M565 674q-40 0 -65.5 -24t-25.5 -77v-96h133v-55h-133v-422h-61v422h-238v-422h-62v422h-97v55h97v99q0 74 39.5 114t103.5 40q32 0 54 -10v-54q-18 8 -45 8q-40 0 -65 -24t-25 -77v-96h238v99q0 74 39.5 114t103.5 40q30 0 54 -10v-54q-18 8 -45 8z" />
    <glyph glyph-name="fi" unicode="&#xfb01;" horiz-adv-x="559" 
d="M256 730q32 0 54 -10v-54q-18 8 -45 8q-40 0 -65 -24t-25 -77v-96h300v-477h-60v422h-240v-422h-62v422h-97v55h97v99q0 74 39.5 114t103.5 40zM396 675q0 21 14 35.5t35 14.5q20 0 35 -14.5t15 -35.5q0 -20 -15 -34.5t-35 -14.5q-21 0 -35 14.5t-14 34.5z" />
    <glyph glyph-name="fl" unicode="&#xfb02;" horiz-adv-x="558" 
d="M265 674q-40 0 -65 -24t-25 -77v-96h239v245h60v-722h-60v422h-239v-422h-62v422h-97v55h97v99q0 74 39.5 114t103.5 40q32 0 54 -10v-54q-18 8 -45 8z" />
    <glyph glyph-name="uniFB03" unicode="&#xfb03;" horiz-adv-x="858" 
d="M113 477v99q0 74 39.5 114t103.5 40q32 0 54 -10v-54q-18 8 -45 8q-40 0 -65 -24t-25 -77v-96h238v99q0 74 39.5 114t103.5 40q30 0 54 -10v-54q-18 8 -45 8q-40 0 -65.5 -24t-25.5 -77v-96h300v-477h-59v422h-241v-422h-61v422h-238v-422h-62v422h-97v55h97zM695 675
q0 21 14.5 35.5t34.5 14.5q21 0 35.5 -14.5t14.5 -35.5q0 -20 -14.5 -34.5t-35.5 -14.5q-20 0 -34.5 14.5t-14.5 34.5z" />
    <glyph glyph-name="uniFB04" unicode="&#xfb04;" horiz-adv-x="858" 
d="M113 477v99q0 74 39.5 114t103.5 40q32 0 54 -10v-54q-18 8 -45 8q-40 0 -65 -24t-25 -77v-96h238v99q0 74 39.5 114t103.5 40q30 0 54 -10v-54q-18 8 -45 8q-40 0 -65.5 -24t-25.5 -77v-96h241v245h59v-722h-59v422h-241v-422h-61v422h-238v-422h-62v422h-97v55h97z" />
    <glyph glyph-name="uniFEFF" unicode="&#xfeff;" horiz-adv-x="0" 
 />
    <glyph glyph-name="a" horiz-adv-x="504" 
d="M51 123q0 59 38 94.5t106 46.5l127 19q50 8 50 47q0 48 -31.5 78t-88.5 30t-92.5 -30t-40.5 -82l-58 13q8 69 60.5 110t129.5 41q89 0 135 -46.5t46 -119.5v-242q0 -42 6 -82h-58q-6 33 -6 82q-20 -39 -63 -66.5t-103 -27.5q-72 0 -114.5 40t-42.5 95zM215 39
q69 0 113 42.5t44 113.5v57q-7 -8 -63 -19l-106 -16q-42 -6 -66 -29.5t-24 -61.5q0 -35 27.5 -61t74.5 -26z" />
    <glyph glyph-name="agrave" horiz-adv-x="504" 
d="M51 123q0 59 38 94.5t106 46.5l127 19q50 8 50 47q0 48 -31.5 78t-88.5 30t-92.5 -30t-40.5 -82l-58 13q8 69 60.5 110t129.5 41q89 0 135 -46.5t46 -119.5v-242q0 -42 6 -82h-58q-6 33 -6 82q-20 -39 -63 -66.5t-103 -27.5q-72 0 -114.5 40t-42.5 95zM215 39
q69 0 113 42.5t44 113.5v57q-7 -8 -63 -19l-106 -16q-42 -6 -66 -29.5t-24 -61.5q0 -35 27.5 -61t74.5 -26zM237 537l-118 139h77l89 -139h-48z" />
    <glyph glyph-name="aacute" horiz-adv-x="504" 
d="M51 123q0 59 38 94.5t106 46.5l127 19q50 8 50 47q0 48 -31.5 78t-88.5 30t-92.5 -30t-40.5 -82l-58 13q8 69 60.5 110t129.5 41q89 0 135 -46.5t46 -119.5v-242q0 -42 6 -82h-58q-6 33 -6 82q-20 -39 -63 -66.5t-103 -27.5q-72 0 -114.5 40t-42.5 95zM215 39
q69 0 113 42.5t44 113.5v57q-7 -8 -63 -19l-106 -16q-42 -6 -66 -29.5t-24 -61.5q0 -35 27.5 -61t74.5 -26zM389 676l-118 -139h-49l89 139h78z" />
    <glyph glyph-name="acircumflex" horiz-adv-x="504" 
d="M164 538h-54l110 137h72l110 -137h-54l-92 99zM51 123q0 59 38 94.5t106 46.5l127 19q50 8 50 47q0 48 -31.5 78t-88.5 30t-92.5 -30t-40.5 -82l-58 13q8 69 60.5 110t129.5 41q89 0 135 -46.5t46 -119.5v-242q0 -42 6 -82h-58q-6 33 -6 82q-20 -39 -63 -66.5t-103 -27.5
q-72 0 -114.5 40t-42.5 95zM215 39q69 0 113 42.5t44 113.5v57q-7 -8 -63 -19l-106 -16q-42 -6 -66 -29.5t-24 -61.5q0 -35 27.5 -61t74.5 -26z" />
    <glyph glyph-name="atilde" horiz-adv-x="504" 
d="M51 123q0 59 38 94.5t106 46.5l127 19q50 8 50 47q0 48 -31.5 78t-88.5 30t-92.5 -30t-40.5 -82l-58 13q8 69 60.5 110t129.5 41q89 0 135 -46.5t46 -119.5v-242q0 -42 6 -82h-58q-6 33 -6 82q-20 -39 -63 -66.5t-103 -27.5q-72 0 -114.5 40t-42.5 95zM215 39
q69 0 113 42.5t44 113.5v57q-7 -8 -63 -19l-106 -16q-42 -6 -66 -29.5t-24 -61.5q0 -35 27.5 -61t74.5 -26zM407 659v-11q0 -46 -24 -71.5t-61 -25.5q-32 0 -64 23l-19 15q-25 20 -47 20q-40 0 -40 -55h-47v12q0 44 24 69.5t61 25.5q32 0 68 -27l18 -13q25 -18 44 -18
q40 0 40 56h47z" />
    <glyph glyph-name="adieresis" horiz-adv-x="504" 
d="M125 610q0 17 12.5 30t29.5 13q18 0 30.5 -13t12.5 -30q0 -18 -12.5 -30t-30.5 -12q-17 0 -29.5 12t-12.5 30zM302 610q0 18 12 30.5t30 12.5q17 0 29.5 -13t12.5 -30q0 -18 -12.5 -30t-29.5 -12q-18 0 -30 12t-12 30zM51 123q0 59 38 94.5t106 46.5l127 19q50 8 50 47
q0 48 -31.5 78t-88.5 30t-92.5 -30t-40.5 -82l-58 13q8 69 60.5 110t129.5 41q89 0 135 -46.5t46 -119.5v-242q0 -42 6 -82h-58q-6 33 -6 82q-20 -39 -63 -66.5t-103 -27.5q-72 0 -114.5 40t-42.5 95zM215 39q69 0 113 42.5t44 113.5v57q-7 -8 -63 -19l-106 -16
q-42 -6 -66 -29.5t-24 -61.5q0 -35 27.5 -61t74.5 -26z" />
    <glyph glyph-name="aring" horiz-adv-x="504" 
d="M51 123q0 59 38 94.5t106 46.5l127 19q50 8 50 47q0 48 -31.5 78t-88.5 30t-92.5 -30t-40.5 -82l-58 13q8 69 60.5 110t129.5 41q89 0 135 -46.5t46 -119.5v-242q0 -42 6 -82h-58q-6 33 -6 82q-20 -39 -63 -66.5t-103 -27.5q-72 0 -114.5 40t-42.5 95zM215 39
q69 0 113 42.5t44 113.5v57q-7 -8 -63 -19l-106 -16q-42 -6 -66 -29.5t-24 -61.5q0 -35 27.5 -61t74.5 -26zM358 635q0 -43 -31 -74t-74 -31t-74 31t-31 74t31 74t74 31t74 -31t31 -74zM314 635q0 26 -17.5 44.5t-43.5 18.5t-43.5 -18.5t-17.5 -44.5t17.5 -44.5t43.5 -18.5
t43.5 18.5t17.5 44.5z" />
    <glyph glyph-name="amacron" horiz-adv-x="504" 
d="M51 123q0 59 38 94.5t106 46.5l127 19q50 8 50 47q0 48 -31.5 78t-88.5 30t-92.5 -30t-40.5 -82l-58 13q8 69 60.5 110t129.5 41q89 0 135 -46.5t46 -119.5v-242q0 -42 6 -82h-58q-6 33 -6 82q-20 -39 -63 -66.5t-103 -27.5q-72 0 -114.5 40t-42.5 95zM215 39
q69 0 113 42.5t44 113.5v57q-7 -8 -63 -19l-106 -16q-42 -6 -66 -29.5t-24 -61.5q0 -35 27.5 -61t74.5 -26zM382 581h-254v52h254v-52z" />
    <glyph glyph-name="abreve" horiz-adv-x="504" 
d="M51 123q0 59 38 94.5t106 46.5l127 19q50 8 50 47q0 48 -31.5 78t-88.5 30t-92.5 -30t-40.5 -82l-58 13q8 69 60.5 110t129.5 41q89 0 135 -46.5t46 -119.5v-242q0 -42 6 -82h-58q-6 33 -6 82q-20 -39 -63 -66.5t-103 -27.5q-72 0 -114.5 40t-42.5 95zM215 39
q69 0 113 42.5t44 113.5v57q-7 -8 -63 -19l-106 -16q-42 -6 -66 -29.5t-24 -61.5q0 -35 27.5 -61t74.5 -26zM254 538q-64 0 -101.5 41.5t-38.5 96.5h47q2 -36 25.5 -62.5t67.5 -26.5t67.5 26.5t25.5 62.5h47q-1 -56 -38 -97t-102 -41z" />
    <glyph glyph-name="aogonek" horiz-adv-x="504" 
d="M215 39q69 0 113 42.5t44 113.5v57q-7 -8 -63 -19l-106 -16q-42 -6 -66 -29.5t-24 -61.5q0 -35 27.5 -61t74.5 -26zM304 -117q0 70 76 118q-6 27 -6 81q-20 -39 -63 -66.5t-103 -27.5q-72 0 -114.5 40t-42.5 95q0 59 38 94.5t106 46.5l127 19q50 8 50 47q0 48 -31.5 78
t-88.5 30t-92.5 -30t-40.5 -82l-58 13q8 69 60.5 110t129.5 41q89 0 135 -46.5t46 -119.5v-242q0 -42 6 -82q-82 -43 -82 -106q0 -27 18 -42t44 -15q20 0 35 5v-44q-19 -8 -45 -8q-44 0 -74 25t-30 68z" />
    <glyph glyph-name="aringacute" horiz-adv-x="504" 
d="M51 123q0 59 38 94.5t106 46.5l127 19q50 8 50 47q0 48 -31.5 78t-88.5 30t-92.5 -30t-40.5 -82l-58 13q8 69 60.5 110t129.5 41q89 0 135 -46.5t46 -119.5v-242q0 -42 6 -82h-58q-6 33 -6 82q-20 -39 -63 -66.5t-103 -27.5q-72 0 -114.5 40t-42.5 95zM215 39
q69 0 113 42.5t44 113.5v57q-7 -8 -63 -19l-106 -16q-42 -6 -66 -29.5t-24 -61.5q0 -35 27.5 -61t74.5 -26zM395 918l-118 -139h-49l89 139h78zM357 633q0 -43 -30.5 -74t-74.5 -31q-43 0 -74 31t-31 74t31 74t74 31q44 0 74.5 -31t30.5 -74zM313 633q0 26 -17.5 44.5
t-43.5 18.5t-43.5 -18.5t-17.5 -44.5t17.5 -44.5t43.5 -18.5t43.5 18.5t17.5 44.5z" />
    <glyph glyph-name="i.latn_TRK" horiz-adv-x="227" 
d="M143 0h-59v477h59v-477zM64 674q0 21 14.5 36t34.5 15q21 0 35.5 -15t14.5 -36q0 -20 -14.5 -34t-35.5 -14q-20 0 -34.5 14t-14.5 34z" />
    <glyph glyph-name="Ldot.latn_CAT" horiz-adv-x="550" 
d="M515 0h-421v709h63v-650h358v-59z" />
    <glyph glyph-name="ldot.latn_CAT" horiz-adv-x="270" 
d="M144 0h-60v722h60v-722zM200 324q0 20 14 33.5t33 13.5t33 -13.5t14 -33.5t-14 -33.5t-33 -13.5t-33 13.5t-14 33.5z" />
    <glyph glyph-name="zero.numr" horiz-adv-x="422" 
d="M115 466q0 -38 7.5 -68t30 -53t58.5 -23t58.5 23t30 53t7.5 68t-7.5 67.5t-30 52.5t-58.5 23t-58.5 -23t-30 -52.5t-7.5 -67.5zM63 466q0 83 36 134q40 54 112 54t112 -54q36 -49 36 -134q0 -86 -36 -134q-40 -54 -112 -54t-112 54q-36 49 -36 134z" />
    <glyph glyph-name="one.numr" horiz-adv-x="287" 
d="M194 285h-51v277q-4 -6 -36 -16t-51 -12v39q36 5 60 26t29 49h49v-363z" />
    <glyph glyph-name="two.numr" horiz-adv-x="385" 
d="M117 513l-50 3q-2 14 -2 24q0 48 35 81t93 33q56 0 90.5 -32t34.5 -78q0 -63 -72 -108l-74 -46q-41 -27 -46 -61h196v-44h-258v5q0 85 78 135l69 42q55 34 55 78q0 27 -20.5 46.5t-53.5 19.5q-34 0 -55.5 -20.5t-21.5 -54.5q0 -7 2 -23z" />
    <glyph glyph-name="three.numr" horiz-adv-x="403" 
d="M173 460l-22 39l114 104h-195v44h262v-42l-116 -104q1 0 4.5 0.5t4.5 0.5q48 -2 81.5 -29.5t33.5 -77.5t-38.5 -83.5t-99.5 -33.5q-59 0 -97.5 30t-44.5 76l46 17q3 -36 30.5 -58t64.5 -22q38 0 62.5 21t24.5 53q0 34 -24 52t-59 18q-17 0 -32 -5z" />
    <glyph glyph-name="four.numr" horiz-adv-x="435" 
d="M63 366v51l180 230h61v-236h71v-45h-71v-81h-51v81h-190zM253 411v179l-140 -179h140z" />
    <glyph glyph-name="five.numr" horiz-adv-x="390" 
d="M63 377l45 20q5 -33 30 -54t60 -21q38 0 62 22t24 57q0 36 -24 57.5t-61 21.5q-46 0 -78 -34l-45 16l49 185h196v-44h-162l-30 -113q31 31 83 31q55 0 89.5 -33t34.5 -86t-37.5 -88.5t-100.5 -35.5q-52 0 -90 29t-45 70z" />
    <glyph glyph-name="six.numr" horiz-adv-x="412" 
d="M336 635l-13 -40q-29 16 -69 16q-62 0 -98.5 -40t-41.5 -104q11 25 41 42.5t65 17.5q56 0 92.5 -34t36.5 -90q0 -55 -40.5 -90t-99.5 -35q-63 0 -104.5 44.5t-41.5 123.5q0 97 53.5 152.5t134.5 55.5q53 0 85 -19zM123 403q0 -36 26 -58.5t61 -22.5q36 0 61.5 22.5
t25.5 58.5t-25.5 58.5t-61.5 22.5q-35 0 -61 -22.5t-26 -58.5z" />
    <glyph glyph-name="seven.numr" horiz-adv-x="411" 
d="M348 647v-47q-144 -117 -166 -315h-54q20 194 155 318h-220v44h285z" />
    <glyph glyph-name="eight.numr" horiz-adv-x="401" 
d="M201 492q34 0 55 16.5t21 43.5t-20.5 44t-55.5 17t-55.5 -17t-20.5 -44t21 -43.5t55 -16.5zM201 322q40 0 62.5 18t22.5 46q0 29 -22.5 47t-62.5 18t-63 -18t-23 -47q0 -28 23 -46t63 -18zM201 278q-64 0 -101 29.5t-37 74.5q0 31 20.5 55t53.5 34q-28 10 -45.5 32.5
t-17.5 50.5q0 44 35 72t92 28q56 0 91.5 -28t35.5 -72q0 -28 -17.5 -50.5t-46.5 -32.5q34 -10 54 -34t20 -55q0 -45 -36.5 -74.5t-100.5 -29.5z" />
    <glyph glyph-name="nine.numr" horiz-adv-x="410" 
d="M75 299l13 40q33 -18 73 -18q60 0 96.5 38t38.5 109q-11 -27 -40 -44t-64 -17q-55 0 -92 34t-37 89q0 53 40.5 88.5t98.5 35.5q62 0 103.5 -44t41.5 -122q0 -97 -48 -154t-136 -57q-52 0 -88 22zM286 530q0 36 -25 58t-61 22t-60.5 -22t-24.5 -58t24.5 -58t60.5 -22
t61 22t25 58z" />
    <glyph glyph-name="zero.dnom" horiz-adv-x="429" 
d="M118 181q0 -38 7.5 -68t30 -53t58.5 -23t58.5 23t30 53t7.5 68t-7.5 67.5t-30 52.5t-58.5 23t-58.5 -23t-30 -52.5t-7.5 -67.5zM66 181q0 83 36 134q40 54 112 54t112 -54q36 -49 36 -134q0 -86 -36 -134q-40 -54 -112 -54t-112 54q-36 49 -36 134z" />
    <glyph glyph-name="one.dnom" horiz-adv-x="287" 
d="M194 0h-51v277q-4 -6 -36 -16t-51 -12v39q36 5 60 26t29 49h49v-363z" />
    <glyph glyph-name="two.dnom" horiz-adv-x="385" 
d="M117 228l-50 3q-2 14 -2 24q0 48 35 81t93 33q56 0 90.5 -32t34.5 -78q0 -63 -72 -108l-74 -46q-41 -27 -46 -61h196v-44h-258v5q0 85 78 135l69 42q55 34 55 78q0 27 -20.5 46.5t-53.5 19.5q-34 0 -55.5 -20.5t-21.5 -54.5q0 -7 2 -23z" />
    <glyph glyph-name="three.dnom" horiz-adv-x="403" 
d="M173 175l-22 39l114 104h-195v44h262v-42l-116 -104q1 0 4.5 0.5t4.5 0.5q48 -2 81.5 -29.5t33.5 -77.5t-38.5 -83.5t-99.5 -33.5q-59 0 -97.5 30t-44.5 76l46 17q3 -36 30.5 -58t64.5 -22q38 0 62.5 21t24.5 53q0 34 -24 52t-59 18q-17 0 -32 -5z" />
    <glyph glyph-name="four.dnom" horiz-adv-x="435" 
d="M63 81v51l180 230h61v-236h71v-45h-71v-81h-51v81h-190zM253 126v179l-140 -179h140z" />
    <glyph glyph-name="five.dnom" horiz-adv-x="400" 
d="M63 92l45 20q5 -33 30 -54t60 -21q38 0 62 22t24 57q0 36 -24 57.5t-61 21.5q-46 0 -78 -34l-45 16l49 185h196v-44h-162l-30 -113q31 31 83 31q55 0 89.5 -33t34.5 -86t-37.5 -88.5t-100.5 -35.5q-52 0 -90 29t-45 70z" />
    <glyph glyph-name="six.dnom" horiz-adv-x="412" 
d="M336 350l-13 -40q-29 16 -69 16q-62 0 -98.5 -40t-41.5 -104q11 25 41 42.5t65 17.5q56 0 92.5 -34t36.5 -90q0 -55 -40.5 -90t-99.5 -35q-63 0 -104.5 44.5t-41.5 123.5q0 97 53.5 152.5t134.5 55.5q53 0 85 -19zM123 118q0 -36 26 -58.5t61 -22.5q36 0 61.5 22.5
t25.5 58.5t-25.5 58.5t-61.5 22.5q-35 0 -61 -22.5t-26 -58.5z" />
    <glyph glyph-name="seven.dnom" horiz-adv-x="411" 
d="M348 362v-47q-144 -117 -166 -315h-54q20 194 155 318h-220v44h285z" />
    <glyph glyph-name="eight.dnom" horiz-adv-x="401" 
d="M201 207q34 0 55 16.5t21 43.5t-20.5 44t-55.5 17t-55.5 -17t-20.5 -44t21 -43.5t55 -16.5zM201 37q40 0 62.5 18t22.5 46q0 29 -22.5 47t-62.5 18t-63 -18t-23 -47q0 -28 23 -46t63 -18zM201 -7q-64 0 -101 29.5t-37 74.5q0 31 20.5 55t53.5 34q-28 10 -45.5 32.5
t-17.5 50.5q0 44 35 72t92 28q56 0 91.5 -28t35.5 -72q0 -28 -17.5 -50.5t-46.5 -32.5q34 -10 54 -34t20 -55q0 -45 -36.5 -74.5t-100.5 -29.5z" />
    <glyph glyph-name="nine.dnom" horiz-adv-x="410" 
d="M75 15l13 40q33 -18 73 -18q60 0 96.5 38t38.5 109q-11 -27 -40 -44t-64 -17q-55 0 -92 34t-37 89q0 53 40.5 88.5t98.5 35.5q62 0 103.5 -44t41.5 -122q0 -97 -48 -154t-136 -57q-52 0 -88 22zM286 246q0 36 -25 58t-61 22t-60.5 -22t-24.5 -58t24.5 -58t60.5 -22t61 22
t25 58z" />
    <glyph glyph-name="space.frac" horiz-adv-x="50" 
 />
    <glyph glyph-name="a.ordn" horiz-adv-x="412" 
d="M67 402q0 41 27 66.5t72 31.5l93 14q32 5 32 31q0 31 -21.5 51t-60.5 20q-38 0 -61.5 -21t-28.5 -56l-46 12q5 47 42.5 77.5t92.5 30.5q67 0 100 -33.5t33 -86.5v-169q0 -35 4 -57h-49q-4 20 -4 53q-13 -26 -42.5 -44t-69.5 -18q-52 0 -82.5 28.5t-30.5 69.5zM187 346
q50 0 77 31.5t27 87.5v23q-5 -7 -40 -12l-74 -12q-59 -10 -59 -60q0 -24 18 -41t51 -17z" />
    <glyph glyph-name="b.ordn" horiz-adv-x="478" 
d="M138 313h-49v509h50v-232q12 28 43 48.5t75 20.5q72 0 113 -49.5t41 -126.5t-42.5 -128t-113.5 -51q-81 0 -117 72v-63zM359 483q0 59 -30.5 95t-79.5 36t-80 -36.5t-31 -94.5q0 -59 31 -96.5t80 -37.5t79.5 37.5t30.5 96.5z" />
    <glyph glyph-name="c.ordn" horiz-adv-x="451" 
d="M235 613q-49 0 -82.5 -36t-33.5 -95q0 -60 33 -96t83 -36q43 0 69 23t36 55l44 -18q-13 -44 -52 -75t-97 -31q-72 0 -119.5 50t-47.5 128q0 77 47.5 127t119.5 50q59 0 97 -30.5t50 -76.5l-45 -19q-23 80 -102 80z" />
    <glyph glyph-name="d.ordn" horiz-adv-x="481" 
d="M119 483q0 -58 30.5 -96t79.5 -38q50 0 80 37.5t30 96.5q0 58 -30 94t-80 36q-49 0 -79.5 -36t-30.5 -94zM388 822v-445q0 -40 4 -64h-49q-4 20 -4 54v8q-13 -29 -42.5 -50t-71.5 -21q-71 0 -114 51t-43 128q0 75 43.5 125t112.5 50q47 0 75.5 -20t38.5 -46v230h50z" />
    <glyph glyph-name="e.ordn" horiz-adv-x="450" 
d="M120 510h211q0 45 -28 75t-77 30q-44 0 -73.5 -30.5t-32.5 -74.5zM338 424l44 -14q-15 -47 -54.5 -76.5t-94.5 -29.5q-70 0 -118 48.5t-48 130.5q0 77 46.5 126.5t111.5 49.5q74 0 116.5 -47t42.5 -124q0 -9 -2 -17h-264v-2q0 -53 34 -87t81 -34q79 0 105 76z" />
    <glyph glyph-name="f.ordn" horiz-adv-x="344" 
d="M275 605h-90v-293h-51v293h-67v45h67v62q0 53 28.5 82t76.5 29q25 0 39 -7v-43q-13 5 -32 5q-26 0 -43.5 -16.5t-17.5 -51.5v-60h90v-45z" />
    <glyph glyph-name="g.ordn" horiz-adv-x="446" 
d="M68 295q3 1 23.5 6l24.5 6q5 -40 33 -66.5t70 -26.5q110 0 110 125v55q-27 -63 -110 -63q-66 0 -108.5 46t-42.5 117q0 69 42.5 116.5t108.5 47.5q84 0 111 -65v57h49v-310q0 -72 -36.5 -121t-122.5 -49q-62 0 -103.5 35.5t-48.5 89.5zM226 374q47 0 76.5 33.5t29.5 86.5
q0 52 -29.5 85.5t-76.5 33.5q-48 0 -77.5 -33.5t-29.5 -85.5q0 -53 29.5 -86.5t77.5 -33.5z" />
    <glyph glyph-name="h.ordn" horiz-adv-x="454" 
d="M139 516v-203h-50v509h50v-221q33 58 105 58q58 0 89.5 -36t31.5 -92v-218h-51v209q0 41 -21.5 66t-64.5 25q-39 0 -63 -28t-26 -69z" />
    <glyph glyph-name="i.ordn" horiz-adv-x="255" 
d="M153 313h-50v337h50v-337zM90 785q0 17 11 28t27 11t27 -11.5t11 -27.5t-11 -27t-27 -11t-27 11t-11 27z" />
    <glyph glyph-name="j.ordn" horiz-adv-x="289" 
d="M153 273v377h50v-380q0 -46 -25 -73t-67 -27q-22 0 -40 6v43q12 -4 29 -4q53 0 53 58zM140 786q0 16 11 27t27 11t27 -11t11 -27t-11 -27t-27 -11t-27 11t-11 27z" />
    <glyph glyph-name="k.ordn" horiz-adv-x="408" 
d="M374 650l-141 -140l147 -197h-63l-119 162l-59 -60v-102h-50v509h50v-339l166 167h69z" />
    <glyph glyph-name="l.ordn" horiz-adv-x="228" 
d="M139 313h-50v509h50v-509z" />
    <glyph glyph-name="m.ordn" horiz-adv-x="670" 
d="M90 313v276v35l-1 26h47q0 -1 1 -23t1 -31q13 27 42 45t65 18q37 0 65.5 -20t39.5 -54q15 35 45 54.5t69 19.5q51 0 84.5 -33.5t33.5 -90.5v-222h-50v214q0 38 -21.5 62.5t-61.5 24.5q-38 0 -63 -28.5t-25 -67.5v-205h-50v214q0 38 -21.5 62.5t-60.5 24.5t-64 -28
t-25 -69v-204h-50z" />
    <glyph glyph-name="n.ordn" horiz-adv-x="456" 
d="M141 514v-201h-50v280q0 8 -1 31t-1 26h49q0 -1 1 -22t1 -32q14 28 42.5 45.5t64.5 17.5q58 0 89 -36t31 -92v-218h-50v210q0 40 -22 65t-65 25q-40 0 -64 -28.5t-25 -70.5z" />
    <glyph glyph-name="o.ordn" horiz-adv-x="473" 
d="M236 349q50 0 84 36t34 97t-34.5 96.5t-83.5 35.5t-83.5 -35.5t-34.5 -96.5t34 -97t84 -36zM236 659q72 0 120.5 -49.5t48.5 -127.5q0 -79 -48 -128.5t-121 -49.5q-72 0 -120 49.5t-48 128.5q0 78 48 127.5t120 49.5z" />
    <glyph glyph-name="p.ordn" horiz-adv-x="478" 
d="M139 179h-50v471h49v-63q14 29 44.5 50t74.5 21q70 0 111.5 -50t41.5 -126q0 -77 -42.5 -127.5t-112.5 -50.5q-42 0 -72 20t-44 47v-192zM360 482q0 57 -31 94t-80 37t-80 -37t-31 -94q0 -58 31 -95.5t80 -37.5t80 37.5t31 95.5z" />
    <glyph glyph-name="q.ordn" horiz-adv-x="461" 
d="M389 179h-50v193q-15 -28 -44.5 -48t-71.5 -20q-69 0 -112 51t-43 128q0 75 42 125t112 50q45 0 74.5 -21t42.5 -50v63h50v-471zM118 483q0 -58 31 -96t80 -38t80 37.5t31 96.5q0 56 -31 93t-80 37t-80 -36.5t-31 -93.5z" />
    <glyph glyph-name="r.ordn" horiz-adv-x="274" 
d="M251 652v-54q-18 4 -30 4q-44 0 -70.5 -28t-26.5 -84v-177h-51v272v65h48q1 -10 1 -61q28 65 103 65q12 0 26 -2z" />
    <glyph glyph-name="s.ordn" horiz-adv-x="388" 
d="M68 404l45 14q4 -32 26.5 -52t60.5 -20q31 0 51 15.5t20 39.5q0 43 -54 54l-55 11q-39 8 -61.5 32.5t-22.5 59.5q0 42 34 71.5t82 29.5q56 0 85.5 -27t37.5 -64l-44 -15q-5 27 -24.5 45.5t-54.5 18.5q-28 0 -47.5 -16t-19.5 -40q0 -39 49 -50l54 -11q43 -9 66.5 -33.5
t23.5 -61.5q0 -42 -32 -71.5t-88 -29.5q-60 0 -93.5 30t-38.5 70z" />
    <glyph glyph-name="t.ordn" horiz-adv-x="320" 
d="M175 759v-109h85v-45h-85v-193q0 -58 55 -58q13 0 30 5v-43q-12 -7 -44 -7q-42 0 -66.5 25t-24.5 71v200h-69v45h24q49 0 49 50v59h46z" />
    <glyph glyph-name="u.ordn" horiz-adv-x="422" 
d="M299 363q-13 -26 -41 -42.5t-64 -16.5q-61 0 -93.5 38.5t-32.5 95.5v212h50v-204q0 -42 21.5 -69.5t65.5 -27.5q41 0 65.5 27.5t24.5 68.5v205h51v-274q0 -43 4 -63h-48q-3 18 -3 50z" />
    <glyph glyph-name="v.ordn" horiz-adv-x="379" 
d="M349 650l-134 -337h-51l-136 337h56l106 -278l105 278h54z" />
    <glyph glyph-name="w.ordn" horiz-adv-x="583" 
d="M264 650h53l97 -274l84 274h53l-110 -337h-54l-97 277l-96 -277h-55l-111 337h54l86 -274z" />
    <glyph glyph-name="x.ordn" horiz-adv-x="392" 
d="M38 313l128 171l-123 166h60l93 -129l93 129h59l-122 -165q7 -11 64 -87.5t64 -84.5h-60l-99 135q-1 -2 -48.5 -67.5t-49.5 -67.5h-59z" />
    <glyph glyph-name="y.ordn" horiz-adv-x="390" 
d="M143 176h-54l83 180l-144 294h57l115 -241l106 241h54z" />
    <glyph glyph-name="z.ordn" horiz-adv-x="405" 
d="M338 313h-270v44l203 248h-200v45h263v-44l-204 -249h208v-44z" />
    <glyph glyph-name="space.tf" 
 />
    <glyph glyph-name="numbersign.tf" 
d="M476 647l-39 -179h107v-52h-118l-39 -182h108v-52h-120l-38 -182h-57l40 182h-149l-39 -182h-56l39 182h-99v52h111l38 182h-100v52h111l39 179h56l-38 -179h147l39 179h57zM221 416l-39 -182h149l39 182h-149z" />
    <glyph glyph-name="dollar.tf" 
d="M309 -107h-49v100q-89 7 -144 62t-64 129l58 18q6 -60 45.5 -103.5t104.5 -51.5v256l-36 8q-67 15 -106.5 57.5t-39.5 108.5q0 70 52.5 119.5t129.5 56.5v102h49v-103q80 -6 125.5 -49t60.5 -107l-55 -19q-10 47 -43 80.5t-88 40.5v-246l32 -8q74 -17 117 -62t43 -111
q0 -71 -52.5 -121t-139.5 -57v-100zM441 168q0 43 -29 73.5t-81 44.5l-22 5v-245q62 6 97 39.5t35 82.5zM138 480q0 -86 100 -111l22 -5v236q-53 -7 -87.5 -39.5t-34.5 -80.5z" />
    <glyph glyph-name="percent.tf" 
d="M527 523v-59l-482 -328v58zM70 520q0 -37 24.5 -61.5t60.5 -24.5q37 0 61.5 24.5t24.5 61.5t-24.5 61t-61.5 24q-36 0 -60.5 -24t-24.5 -61zM21 520q0 56 39 94.5t95 38.5t95.5 -38.5t39.5 -94.5t-39.5 -95t-95.5 -39t-95 39t-39 95zM319 126q0 -37 24.5 -61.5
t60.5 -24.5q37 0 61 24.5t24 61.5t-24 61.5t-61 24.5q-36 0 -60.5 -24.5t-24.5 -61.5zM270 126q0 56 39 94.5t95 38.5t95 -38.5t39 -94.5t-39 -94.5t-95 -38.5t-95 38.5t-39 94.5z" />
    <glyph glyph-name="plus.tf" 
d="M59 313h194v207h53v-207h195v-51h-195v-209h-53v209h-194v51z" />
    <glyph glyph-name="comma.tf" 
d="M211 55q0 24 18 41t44 17q29 0 48.5 -21.5t19.5 -60.5q0 -81 -40.5 -134t-96.5 -66v43q38 12 62 49t25 78q-8 -6 -22 -6q-24 0 -41 17t-17 43z" />
    <glyph glyph-name="period.tf" 
d="M216 55q0 25 17.5 43t42.5 18q26 0 43.5 -17.5t17.5 -43.5q0 -25 -17.5 -42.5t-43.5 -17.5q-25 0 -42.5 17.5t-17.5 42.5z" />
    <glyph glyph-name="zero.tf" 
d="M106 324q0 -52 7 -96t24.5 -88.5t54 -70.5t89.5 -26q52 0 88.5 26t54 70.5t24.5 88.5t7 96q0 39 -3.5 73.5t-14.5 74t-29.5 67.5t-51 47t-75.5 19t-76 -19t-51 -47t-29.5 -67.5t-15 -74t-3.5 -73.5zM43 323q0 146 51 232q62 106 187 106t186 -106q50 -84 50 -231
q0 -145 -49 -230q-62 -107 -187 -107q-126 0 -188 107q-50 84 -50 229z" />
    <glyph glyph-name="one.tf" 
d="M101 56h172v470q-7 -16 -63.5 -37.5t-97.5 -23.5v48q64 5 108 42.5t57 92.5h57v-592h164v-56h-397v56z" />
    <glyph glyph-name="two.tf" 
d="M137 418l-62 8q-3 13 -3 31q0 86 59 145t156 59q93 0 150 -55t57 -136q0 -121 -121 -198l-140 -89q-80 -54 -88 -125h357v-58h-433q2 147 135 232l126 81q101 64 101 156q0 57 -39.5 97t-106.5 40q-68 0 -109.5 -43t-41.5 -113q0 -16 3 -32z" />
    <glyph glyph-name="three.tf" 
d="M221 324l-30 52l215 215h-350v57h431v-56l-210 -210q14 2 24 2q83 -1 141.5 -51t58.5 -140q0 -87 -62.5 -146.5t-165.5 -59.5q-99 0 -164 57t-70 143l61 14q2 -72 52.5 -115.5t120.5 -43.5q72 0 118.5 42t46.5 107q0 67 -44.5 105t-111.5 38q-28 0 -61 -10z" />
    <glyph glyph-name="four.tf" 
d="M39 158v72l297 418h88v-432h114v-58h-114v-158h-61v158h-324zM363 216v371l-265 -371h265z" />
    <glyph glyph-name="five.tf" 
d="M44 180l60 18q5 -67 52.5 -111.5t116.5 -44.5q71 0 119 45.5t48 113.5q0 72 -47.5 116.5t-118.5 44.5q-85 0 -144 -65q-48 20 -60 24l82 327h326v-57h-283l-58 -233q55 59 148 59q95 0 156.5 -59.5t61.5 -154.5q0 -91 -64.5 -153.5t-165.5 -62.5q-94 0 -158.5 56.5
t-70.5 136.5z" />
    <glyph glyph-name="six.tf" 
d="M504 625l-19 -52q-54 32 -125 32q-120 0 -185.5 -86.5t-67.5 -214.5v-3q16 51 69 88t124 37q94 0 157 -61t63 -159q0 -96 -68 -157.5t-162 -61.5q-108 0 -176 80t-68 223q0 177 91 274t227 97q87 0 140 -36zM124 207q0 -72 49 -118.5t117 -46.5q70 0 118.5 46t48.5 119
q0 72 -49 118t-118 46t-117.5 -46t-48.5 -118z" />
    <glyph glyph-name="seven.tf" 
d="M520 648v-61q-53 -48 -95 -98t-86 -121.5t-74.5 -165.5t-41.5 -202h-64q34 342 292 591h-414v57h483z" />
    <glyph glyph-name="eight.tf" 
d="M277 359q66 0 107.5 35t41.5 90q0 54 -40.5 89t-108.5 35t-108.5 -35t-40.5 -89q0 -55 41.5 -90t107.5 -35zM277 42q75 0 119 37.5t44 93.5q0 58 -43.5 95.5t-119.5 37.5t-119.5 -38t-43.5 -95q0 -56 44 -93.5t119 -37.5zM277 -13q-103 0 -164 51.5t-61 129.5
q0 60 37.5 104t95.5 60q-51 16 -85 58.5t-34 96.5q0 75 59.5 124.5t151.5 49.5t151.5 -49.5t59.5 -124.5q0 -54 -34 -97t-85 -58q58 -16 96 -60t38 -104q0 -78 -61 -129.5t-165 -51.5z" />
    <glyph glyph-name="nine.tf" 
d="M55 28l21 53q55 -38 132 -38q116 0 178 75t64 210q0 12 -1 20q-17 -53 -68 -86.5t-120 -33.5q-89 0 -153.5 59t-64.5 156q0 94 67 156t160 62q108 0 175.5 -80t67.5 -219q0 -172 -75 -273.5t-230 -101.5q-40 0 -83.5 11.5t-69.5 29.5zM434 444q0 71 -48.5 116t-115.5 45
t-115.5 -45t-48.5 -116q0 -72 48 -117t116 -45t116 45t48 117z" />
    <glyph glyph-name="colon.tf" 
d="M225 426q0 24 16 40t39 16t39 -16t16 -40q0 -23 -16 -38.5t-39 -15.5t-39 15.5t-16 38.5zM225 48q0 23 16 39.5t39 16.5t39 -16.5t16 -39.5t-16 -39t-39 -16t-39 16t-16 39z" />
    <glyph glyph-name="semicolon.tf" 
d="M220 50q0 21 15.5 36t39.5 15q25 0 42.5 -19t17.5 -53q0 -72 -36 -119t-85 -59v38q33 10 54 43t22 70q-5 -5 -19 -5q-22 0 -36.5 14.5t-14.5 38.5zM217 427q0 23 16 39t38 16q23 0 39 -16t16 -39t-16 -38.5t-39 -15.5t-38.5 15.5t-15.5 38.5z" />
    <glyph glyph-name="less.tf" 
d="M75 260v55l402 207v-61l-342 -173l342 -175v-60z" />
    <glyph glyph-name="equal.tf" 
d="M504 359h-447v51h447v-51zM504 165h-447v52h447v-52z" />
    <glyph glyph-name="greater.tf" 
d="M485 315v-55l-402 -207v60l344 175l-344 173v61z" />
    <glyph glyph-name="cent.tf" 
d="M317 0h-49v92q-87 11 -142 76.5t-55 159.5t55 159t142 76v85h49v-84q70 -5 115.5 -43.5t62.5 -95.5l-52 -22q-11 41 -43 72t-83 37v-368q51 5 84 36t47 72l51 -21q-19 -55 -66 -95t-116 -45v-91zM130 328q0 -74 38.5 -123.5t99.5 -58.5v363q-61 -9 -99.5 -58t-38.5 -123z
" />
    <glyph glyph-name="sterling.tf" 
d="M62 344h75q-2 5 -9 20.5t-9.5 22l-8 21t-7.5 24t-4 22.5t-2 25q0 79 54.5 130.5t136.5 51.5q95 0 144.5 -51t54.5 -126l-62 -12q-4 62 -40 98t-96 36q-54 0 -91.5 -35.5t-37.5 -91.5q0 -13 2 -26.5t7 -28.5t9 -24.5l12 -28.5t11 -27h200v-55h-182q7 -28 7 -49
q0 -53 -28.5 -103.5t-72.5 -80.5h214q57 0 87.5 35.5t34.5 93.5l60 -9q-4 -80 -48 -128t-120 -48h-300v60q47 28 79.5 76.5t32.5 96.5q0 29 -9 56h-94v55z" />
    <glyph glyph-name="currency.tf" 
d="M70 227q0 75 47 132l-74 76l39 38l73 -77q59 44 128 44t123 -40l72 73l38 -38l-70 -72q51 -59 51 -136t-49 -134l69 -70l-38 -38l-70 71q-56 -43 -126 -43q-73 0 -131 47l-72 -75l-38 38l73 74q-45 56 -45 130zM124 227q0 -69 46 -115t113 -46t112.5 46t45.5 115
q0 68 -45.5 114t-112.5 46q-66 0 -112.5 -46t-46.5 -114z" />
    <glyph glyph-name="yen.tf" 
d="M498 146h-184v-146h-61v146h-184v48h184v104h-184v47h150l-185 302h72l177 -297l172 297h71l-180 -302h152v-47h-184v-104h184v-48z" />
    <glyph glyph-name="section.tf" horiz-adv-x="559" 
d="M464 241q0 -44 -27.5 -78t-68.5 -49q100 -56 100 -150q0 -73 -55 -120t-133 -47q-85 0 -135 49t-53 130l57 12q2 -63 37.5 -101.5t95.5 -38.5q54 0 89.5 30.5t35.5 79.5q0 70 -76 111l-106 56q-63 33 -94 66.5t-31 86.5q0 45 28 79.5t67 47.5q-97 57 -97 150q0 73 55 120
t130 47q84 0 134 -49.5t52 -128.5l-58 -13q-1 64 -35 102t-94 38q-52 0 -88 -30.5t-36 -80.5q0 -67 75 -108l106 -57q62 -33 93.5 -66.5t31.5 -87.5zM328 335l-94 49q-31 -9 -53.5 -36t-22.5 -61q0 -59 78 -101l93 -50q30 9 53 35.5t23 60.5q0 61 -77 103z" />
    <glyph glyph-name="logicalnot.tf" 
d="M482 157h-55v201h-385v54h440v-255z" />
    <glyph glyph-name="plusminus.tf" 
d="M65 373h188v146h53v-146h189v-50h-189v-145h-53v145h-188v50zM65 116h430v-51h-430v51z" />
    <glyph glyph-name="multiply.tf" 
d="M461 65l-179 185l-178 -184l-36 36l178 185l-177 185l36 37l178 -185l177 185l37 -36l-180 -186l180 -185z" />
    <glyph glyph-name="divide.tf" 
d="M232 465q0 20 14 34t34 14q19 0 33 -14t14 -34t-14 -34t-33 -14q-20 0 -34 14t-14 34zM59 261v54h441v-54h-441zM232 109q0 20 14 34t34 14t33.5 -14t13.5 -34t-14 -34t-33 -14q-20 0 -34 14t-14 34z" />
    <glyph glyph-name="florin.tf" horiz-adv-x="559" 
d="M192 11l82 412h-117v54h128l23 113q14 69 56 104t98 35q32 0 64 -9v-54q-31 7 -52 7q-86 0 -107 -103l-20 -93h133v-54h-143l-86 -432q-14 -69 -56 -104t-98 -35q-34 0 -65 9v54q32 -7 53 -7q86 0 107 103z" />
    <glyph glyph-name="uni2007.tf" 
 />
    <glyph glyph-name="uni2008.tf" 
 />
    <glyph glyph-name="perthousand.tf" 
d="M526 616v-60l-482 -371v58zM64 539q0 -31 20.5 -51t50.5 -20t50 20t20 51t-20 51t-50 20t-50.5 -20t-20.5 -51zM20 539q0 49 33.5 82t81.5 33t82 -33.5t34 -81.5t-34 -81.5t-82 -33.5t-81.5 33t-33.5 82zM121 104q0 48 33.5 81.5t81.5 33.5q60 0 93 -49q32 49 93 49
q48 0 81.5 -33.5t33.5 -81.5t-33.5 -81t-81.5 -33q-61 0 -93 49q-33 -49 -93 -49q-48 0 -81.5 33t-33.5 81zM236 175q-30 0 -50 -20t-20 -51q0 -30 20 -50t50 -20t50 20t20 50q0 31 -20 51t-50 20zM422 175q-30 0 -50.5 -20t-20.5 -51q0 -30 20.5 -50t50.5 -20t50 20t20 50
q0 31 -20 51t-50 20z" />
    <glyph glyph-name="Euro.tf" horiz-adv-x="561" 
d="M100 324q0 27 3 45h-64v50h73q29 115 122 178t193 63q62 0 113 -17l-15 -53q-44 14 -98 14q-79 0 -152.5 -48t-97.5 -137h295l-16 -50h-291q-3 -18 -3 -45q0 -31 3 -46h271l-15 -52h-243q25 -88 95.5 -135t151.5 -47q56 0 99 16l15 -52q-55 -20 -114 -20
q-104 0 -193 61.5t-119 176.5h-74v52h64q-3 30 -3 46z" />
    <glyph glyph-name="minus.tf" 
d="M490 262h-421v51h421v-51z" />
    <glyph glyph-name="approxequal.tf" 
d="M484 418l33 -29q-53 -73 -131 -73q-42 0 -97 29l-47 26q-38 20 -69 20q-56 0 -96 -49l-34 30q53 75 129 75q38 0 96 -30l46 -25q42 -22 77 -22q54 0 93 48zM484 225l33 -29q-52 -73 -131 -73q-42 0 -97 29l-47 25q-37 21 -69 21q-55 0 -96 -50l-34 31q52 74 129 74
q41 0 96 -30l46 -24q39 -22 77 -22q54 0 93 48z" />
    <glyph glyph-name="notequal.tf" 
d="M503 165h-277l-85 -109h-62l85 109h-107v52h145l110 142h-255v51h292l83 107h62l-83 -107h92v-51h-129l-110 -142h239v-52z" />
    <glyph glyph-name="lessequal.tf" 
d="M77 116h405v-51h-405v51zM77 320v54l405 147v-55l-336 -119l336 -118v-56z" />
    <glyph glyph-name="greaterequal.tf" 
d="M77 116h405v-51h-405v51zM482 374v-54l-405 -147v56l336 118l-336 119v55z" />
    <glyph glyph-name="parenleft.case" horiz-adv-x="279" 
d="M61 352q0 251 179 439l36 -32q-163 -179 -163 -407t163 -407l-36 -32q-179 188 -179 439z" />
    <glyph glyph-name="parenright.case" horiz-adv-x="279" 
d="M218 352q0 -251 -179 -439l-36 32q162 178 162 407t-162 407l36 32q179 -188 179 -439z" />
    <glyph glyph-name="hyphen.case" horiz-adv-x="365" 
d="M314 310h-263v54h263v-54z" />
    <glyph glyph-name="bracketleft.case" horiz-adv-x="268" 
d="M250 -62h-154v856h154v-50h-100v-757h100v-49z" />
    <glyph glyph-name="bracketright.case" horiz-adv-x="268" 
d="M172 -62h-154v49h100v757h-100v50h154v-856z" />
    <glyph glyph-name="braceleft.case" horiz-adv-x="333" 
d="M51 337v56q47 5 77.5 32t30.5 76v137q0 155 147 155h9v-48h-9q-52 0 -73.5 -24.5t-21.5 -78.5v-154q0 -48 -27 -80t-74 -43q46 -10 73.5 -42.5t27.5 -80.5v-153q0 -54 21.5 -78t73.5 -24h9v-49h-9q-147 0 -147 155v137q0 48 -30.5 75.5t-77.5 31.5z" />
    <glyph glyph-name="braceright.case" horiz-adv-x="333" 
d="M282 393v-56q-47 -4 -77.5 -31.5t-30.5 -75.5v-137q0 -155 -147 -155h-9v49h9q52 0 73.5 24t21.5 78v153q0 48 27.5 80.5t73.5 42.5q-47 11 -74 43t-27 80v154q0 54 -21.5 78.5t-73.5 24.5h-9v48h9q147 0 147 -155v-137q0 -49 30.5 -76t77.5 -32z" />
    <glyph glyph-name="exclamdown.case" horiz-adv-x="292" 
d="M167 520l17 -520h-76l17 520h42zM96 664q0 20 14.5 34.5t35.5 14.5q20 0 35 -14.5t15 -34.5q0 -21 -15 -35.5t-35 -14.5q-21 0 -35.5 14.5t-14.5 35.5z" />
    <glyph glyph-name="guillemotleft.case" horiz-adv-x="421" 
d="M229 147h-60l-133 191l133 191h60l-132 -191zM395 147h-60l-133 191l133 191h60l-132 -191z" />
    <glyph glyph-name="uni00AD.case" horiz-adv-x="365" 
d="M314 327h-263v54h263v-54z" />
    <glyph glyph-name="guillemotright.case" horiz-adv-x="421" 
d="M252 147h-60l132 191l-132 191h60l133 -191zM86 147h-60l133 191l-133 191h60l133 -191z" />
    <glyph glyph-name="questiondown.case" horiz-adv-x="495" 
d="M231 522h56q3 -15 3 -38q0 -95 -73 -148l-44 -33q-68 -53 -68 -124q0 -57 37 -96t103 -39q71 0 109.5 43t38.5 104q0 25 -8 54l62 -8q7 -25 7 -52q0 -78 -54.5 -137.5t-154.5 -59.5q-92 0 -147.5 56.5t-55.5 133.5q0 98 99 172l45 33q47 36 47 106q0 15 -2 33zM308 665
q0 -21 -14.5 -35.5t-35.5 -14.5q-20 0 -35 14.5t-15 35.5q0 20 15 34.5t35 14.5q21 0 35.5 -14.5t14.5 -34.5z" />
    <glyph glyph-name="endash.case" horiz-adv-x="635" 
d="M567 310h-500v54h500v-54z" />
    <glyph glyph-name="emdash.case" horiz-adv-x="1074" 
d="M996 310h-919v54h919v-54z" />
    <glyph glyph-name="guilsinglleft.case" horiz-adv-x="255" 
d="M229 147h-60l-133 191l133 191h60l-132 -191z" />
    <glyph glyph-name="guilsinglright.case" horiz-adv-x="255" 
d="M86 147h-60l133 191l-133 191h60l133 -191z" />
    <glyph glyph-name="bullet.salt" horiz-adv-x="563" 
d="M437 283q-114 158 -224 158q-53 0 -83.5 -46.5t-30.5 -111.5t30.5 -111.5t83.5 -46.5q110 0 224 158zM498 283q0 -18 -50 -79q-44 -54 -108 -94.5t-125 -40.5q-83 0 -126.5 64t-43.5 150t43.5 150t126.5 64q61 0 125 -40.5t108 -94.5q50 -61 50 -79z" />
    <glyph glyph-name="G.ss01" horiz-adv-x="758" 
d="M395 -13q-90 0 -168 42t-129.5 128t-51.5 198q0 85 30 155.5t79 116t111 70.5t128 25q114 0 196 -59.5t111 -159.5l-58 -21q-26 87 -91 134.5t-158 47.5q-116 0 -200 -82.5t-84 -226.5t84 -227t201 -84q105 0 173 62t81 158h-297v56h362v-22q-8 -135 -95 -223t-224 -88z
" />
    <glyph glyph-name="Gcircumflex.ss01" horiz-adv-x="758" 
d="M395 -13q-90 0 -168 42t-129.5 128t-51.5 198q0 85 30 155.5t79 116t111 70.5t128 25q114 0 196 -59.5t111 -159.5l-58 -21q-26 87 -91 134.5t-158 47.5q-116 0 -200 -82.5t-84 -226.5t84 -227t201 -84q105 0 173 62t81 158h-297v56h362v-22q-8 -135 -95 -223t-224 -88z
M299 759h-59l115 119h82l116 -119h-59l-98 84z" />
    <glyph glyph-name="Gbreve.ss01" horiz-adv-x="758" 
d="M395 -13q-90 0 -168 42t-129.5 128t-51.5 198q0 85 30 155.5t79 116t111 70.5t128 25q114 0 196 -59.5t111 -159.5l-58 -21q-26 87 -91 134.5t-158 47.5q-116 0 -200 -82.5t-84 -226.5t84 -227t201 -84q105 0 173 62t81 158h-297v56h362v-22q-8 -135 -95 -223t-224 -88z
M395 754q-64 0 -102 37t-42 89h51q3 -32 27 -55t66 -23q43 0 66 23t26 55h51q-3 -52 -41 -89t-102 -37z" />
    <glyph glyph-name="Gdotaccent.ss01" horiz-adv-x="758" 
d="M395 -13q-90 0 -168 42t-129.5 128t-51.5 198q0 85 30 155.5t79 116t111 70.5t128 25q114 0 196 -59.5t111 -159.5l-58 -21q-26 87 -91 134.5t-158 47.5q-116 0 -200 -82.5t-84 -226.5t84 -227t201 -84q105 0 173 62t81 158h-297v56h362v-22q-8 -135 -95 -223t-224 -88z
M347 819q0 19 14 33t34 14q19 0 33 -14t14 -33q0 -20 -14 -34t-33 -14t-33.5 14.5t-14.5 33.5z" />
    <glyph glyph-name="Gcommaaccent.ss01" horiz-adv-x="758" 
d="M395 -13q-90 0 -168 42t-129.5 128t-51.5 198q0 85 30 155.5t79 116t111 70.5t128 25q114 0 196 -59.5t111 -159.5l-58 -21q-26 87 -91 134.5t-158 47.5q-116 0 -200 -82.5t-84 -226.5t84 -227t201 -84q105 0 173 62t81 158h-297v56h362v-22q-8 -135 -95 -223t-224 -88z
M355 -84q0 18 13.5 30t31.5 12q20 0 35.5 -15t15.5 -44q0 -49 -28.5 -77.5t-69.5 -30.5v31q25 2 43 18.5t19 39.5q-6 -6 -18 -6q-19 0 -30.5 11.5t-11.5 30.5z" />
    <glyph glyph-name="ampersand.ss04" horiz-adv-x="669" 
d="M395 259v57h253v-57h-84v-27q0 -105 -69 -175t-180 -70q-106 0 -175 59t-69 148q0 69 41.5 120t109.5 71q-55 16 -86 58.5t-31 99.5q0 73 57.5 126t138.5 53q100 0 155 -51t64 -136l-61 -12q-7 68 -45.5 106t-108.5 38q-56 0 -97 -36.5t-41 -89.5q0 -55 39 -89.5
t104 -37.5h5v-56q-77 -2 -129 -45t-52 -116q0 -65 50 -109.5t131 -44.5q82 0 134.5 53t52.5 136v27h-107z" />
    <glyph glyph-name="one.ss05" horiz-adv-x="472" 
d="M54 56h172v470q-7 -16 -63.5 -37.5t-97.5 -23.5v48q65 5 109 42.5t56 92.5h58v-592h163v-56h-397v56z" />
    <glyph glyph-name="registered.ss06" horiz-adv-x="432" 
d="M31 530q0 77 54 132t131 55q76 0 130.5 -55t54.5 -132q0 -76 -54.5 -130.5t-130.5 -54.5q-77 0 -131 54t-54 131zM66 530q0 -64 43.5 -108.5t107.5 -44.5q63 0 106 44.5t43 108.5q0 65 -43 109.5t-106 44.5q-64 0 -107.5 -44.5t-43.5 -109.5zM190 536h28q36 0 36 33
q0 32 -36 32h-28v-65zM252 435l-37 70h-25v-70h-36v196h71q29 0 48.5 -18t19.5 -44q0 -20 -12 -36t-31 -22l42 -76h-40z" />
    <glyph glyph-name="caron.alt" horiz-adv-x="186" 
d="M145 709l-58 -176h-46l36 176h68z" />
    <glyph glyph-name="commaaccent" horiz-adv-x="187" 
d="M48 650q0 18 13.5 29.5t32.5 11.5q20 0 35.5 -15t15.5 -44q0 -48 -29 -76.5t-70 -30.5v30q25 2 43 18.5t20 39.5q-9 -6 -19 -6q-18 0 -30 12t-12 31z" />
    <glyph glyph-name="commaturn" horiz-adv-x="179" 
d="M135 573q0 -19 -13 -30.5t-33 -11.5t-35 15t-15 44q0 47 29 76t69 32v-31q-25 -2 -43 -19t-19 -39q6 6 18 6q19 0 30.5 -11.5t11.5 -30.5z" />
    <glyph glyph-name="dieresis.narrow" horiz-adv-x="278" 
d="M37 610q0 17 11.5 28.5t27.5 11.5t28 -12t12 -28t-11.5 -27.5t-28.5 -11.5q-16 0 -27.5 11.5t-11.5 27.5zM162 610q0 17 11.5 28.5t27.5 11.5q17 0 28.5 -11.5t11.5 -28.5t-11.5 -28t-28.5 -11t-28 11.5t-11 27.5z" />
    <glyph glyph-name="dieresis.uc.narrow" horiz-adv-x="287" 
d="M38 819q0 17 11.5 28.5t27.5 11.5q17 0 28.5 -11.5t11.5 -28.5t-11.5 -28.5t-28.5 -11.5q-16 0 -27.5 11.5t-11.5 28.5zM170 819q0 16 11.5 28t27.5 12q17 0 28.5 -11.5t11.5 -28.5t-11.5 -28.5t-28.5 -11.5q-16 0 -27.5 12t-11.5 28z" />
    <glyph glyph-name="grave.uc" horiz-adv-x="265" 
d="M168 759l-134 119h84l107 -119h-57z" />
    <glyph glyph-name="dieresis.uc" horiz-adv-x="367" 
d="M39 819q0 18 12.5 30.5t30.5 12.5t30.5 -12.5t12.5 -30.5t-12.5 -30.5t-30.5 -12.5t-30.5 12.5t-12.5 30.5zM242 819q0 18 12.5 30.5t29.5 12.5q19 0 31.5 -12.5t12.5 -30.5t-12.5 -30.5t-31.5 -12.5q-17 0 -29.5 12.5t-12.5 30.5z" />
    <glyph glyph-name="macron.uc" horiz-adv-x="340" 
d="M306 793h-272v53h272v-53z" />
    <glyph glyph-name="acute.uc" horiz-adv-x="265" 
d="M230 878l-133 -119h-58l107 119h84z" />
    <glyph glyph-name="circumflex.uc" horiz-adv-x="390" 
d="M98 759h-59l115 119h82l116 -119h-59l-98 84z" />
    <glyph glyph-name="caron.uc" horiz-adv-x="390" 
d="M39 878h59l97 -84l98 84h59l-116 -119h-82z" />
    <glyph glyph-name="breve.uc" horiz-adv-x="365" 
d="M183 754q-64 0 -102 37t-42 89h51q3 -32 27 -55t66 -23q43 0 66 23t26 55h51q-3 -52 -41 -89t-102 -37z" />
    <glyph glyph-name="dotaccent.uc" horiz-adv-x="168" 
d="M36 819q0 19 14 33t34 14t33.5 -14t13.5 -33q0 -20 -14 -34t-33 -14q-20 0 -34 14.5t-14 33.5z" />
    <glyph glyph-name="ring.uc" horiz-adv-x="276" 
d="M239 845q0 -42 -29.5 -71t-71.5 -29q-41 0 -70.5 29t-29.5 71q0 43 29.5 72.5t70.5 29.5q42 0 71.5 -29.5t29.5 -72.5zM194 845q0 25 -16 42t-40 17t-40 -17t-16 -42q0 -24 16 -40.5t40 -16.5t40 16.5t16 40.5z" />
    <glyph glyph-name="tilde.uc" horiz-adv-x="382" 
d="M345 872v-11q0 -46 -24 -72.5t-60 -26.5q-35 0 -68 24l-19 15q-25 21 -48 21q-42 0 -42 -56h-46v12q0 45 24 71t61 26q35 0 71 -27l19 -14q28 -19 46 -19q41 0 41 54v3h45z" />
    <glyph glyph-name="hungarumlaut.uc" horiz-adv-x="339" 
d="M171 878l-88 -119h-44l65 119h67zM302 878l-104 -119h-45l81 119h68z" />
    <glyph glyph-name="caron.alt.uc" horiz-adv-x="188" 
d="M150 709l-62 -186h-47l38 186h71z" />
    <glyph glyph-name="undercommaaccent" horiz-adv-x="180" 
d="M45 -84q0 18 13.5 30t31.5 12q20 0 35.5 -15t15.5 -44q0 -49 -28.5 -77.5t-69.5 -30.5v31q25 2 43 18.5t19 39.5q-6 -6 -18 -6q-19 0 -30.5 11.5t-11.5 30.5z" />
    </font>
</defs>
</svg>
